<mxfile host="app.diagrams.net" agent="Mozilla/5.0 (Windows NT 10.0; Win64; x64) AppleWebKit/537.36 (KHTML, like Gecko) Chrome/127.0.0.0 Safari/537.36" version="24.7.8">
  <diagram name="Page-1" id="03018318-947c-dd8e-b7a3-06fadd420f32">
    <mxGraphModel dx="1837" dy="1067" grid="1" gridSize="10" guides="1" tooltips="1" connect="1" arrows="1" fold="1" page="1" pageScale="1" pageWidth="6000" pageHeight="3300" background="#ffffff" math="0" shadow="0">
      <root>
        <mxCell id="0" />
        <mxCell id="1" parent="0" />
        <mxCell id="wYJrxyhoSdgwNmsz03KT-26" value="Centralized Category Management" style="text;strokeColor=#d79b00;fillColor=#ffe6cc;html=1;fontSize=24;fontStyle=1;verticalAlign=middle;align=center;rounded=0;shadow=0;" vertex="1" parent="1">
          <mxGeometry x="410" y="150" width="570" height="70" as="geometry" />
        </mxCell>
        <mxCell id="wYJrxyhoSdgwNmsz03KT-28" value="Company Central Category" style="html=1;shadow=0;dashed=0;shape=mxgraph.bootstrap.rrect;rSize=5;html=1;whiteSpace=wrap;verticalAlign=top;align=left;fontSize=18;spacing=15;spacingTop=-5;" vertex="1" parent="1">
          <mxGeometry x="430" y="260" width="530" height="550" as="geometry" />
        </mxCell>
        <mxCell id="wYJrxyhoSdgwNmsz03KT-29" value="" style="shape=line;strokeColor=#dddddd;resizeWidth=1;" vertex="1" parent="wYJrxyhoSdgwNmsz03KT-28">
          <mxGeometry width="530" height="10" relative="1" as="geometry">
            <mxPoint y="50" as="offset" />
          </mxGeometry>
        </mxCell>
        <mxCell id="wYJrxyhoSdgwNmsz03KT-30" value="" style="html=1;shadow=0;dashed=0;shape=mxgraph.bootstrap.x;strokeColor=#868686;strokeWidth=2;" vertex="1" parent="wYJrxyhoSdgwNmsz03KT-28">
          <mxGeometry x="1" width="8" height="8" relative="1" as="geometry">
            <mxPoint x="-24" y="20" as="offset" />
          </mxGeometry>
        </mxCell>
        <mxCell id="wYJrxyhoSdgwNmsz03KT-32" value="" style="shape=line;strokeColor=#dddddd;resizeWidth=1;" vertex="1" parent="wYJrxyhoSdgwNmsz03KT-28">
          <mxGeometry width="530" height="10" relative="1" as="geometry">
            <mxPoint y="460" as="offset" />
          </mxGeometry>
        </mxCell>
        <mxCell id="wYJrxyhoSdgwNmsz03KT-33" value="Save changes" style="html=1;shadow=0;dashed=0;shape=mxgraph.bootstrap.rrect;rSize=5;fillColor=#0085FC;strokeColor=none;fontColor=#FFFFFF;fontSize=14;" vertex="1" parent="wYJrxyhoSdgwNmsz03KT-28">
          <mxGeometry x="1" y="1" width="110" height="40" relative="1" as="geometry">
            <mxPoint x="-218" y="-60" as="offset" />
          </mxGeometry>
        </mxCell>
        <mxCell id="wYJrxyhoSdgwNmsz03KT-34" value="Close" style="html=1;shadow=0;dashed=0;shape=mxgraph.bootstrap.rrect;rSize=5;fillColor=#6C757D;strokeColor=none;fontColor=#FFFFFF;fontSize=14;" vertex="1" parent="wYJrxyhoSdgwNmsz03KT-28">
          <mxGeometry x="1" y="1" width="70" height="40" relative="1" as="geometry">
            <mxPoint x="-402" y="-60" as="offset" />
          </mxGeometry>
        </mxCell>
        <mxCell id="wYJrxyhoSdgwNmsz03KT-9" value="Category ID" style="fillColor=none;strokeColor=none;align=left;fontSize=14;" vertex="1" parent="wYJrxyhoSdgwNmsz03KT-28">
          <mxGeometry x="117" y="118" width="100" height="30" as="geometry" />
        </mxCell>
        <mxCell id="wYJrxyhoSdgwNmsz03KT-10" value="" style="html=1;shadow=0;dashed=0;shape=mxgraph.bootstrap.rrect;rSize=5;align=left;spacing=15;fontSize=14;" vertex="1" parent="wYJrxyhoSdgwNmsz03KT-28">
          <mxGeometry x="117" y="157" width="310" height="40" as="geometry" />
        </mxCell>
        <mxCell id="wYJrxyhoSdgwNmsz03KT-11" value="Category EnglishÂ  Description" style="fillColor=none;strokeColor=none;align=left;fontSize=14;" vertex="1" parent="wYJrxyhoSdgwNmsz03KT-28">
          <mxGeometry x="117" y="207" width="310" height="30" as="geometry" />
        </mxCell>
        <mxCell id="wYJrxyhoSdgwNmsz03KT-16" value="" style="html=1;shadow=0;dashed=0;shape=mxgraph.bootstrap.rrect;rSize=5;align=left;spacing=15;fontSize=14;" vertex="1" parent="wYJrxyhoSdgwNmsz03KT-28">
          <mxGeometry x="117" y="252" width="310" height="40" as="geometry" />
        </mxCell>
        <mxCell id="wYJrxyhoSdgwNmsz03KT-27" value="" style="html=1;shadow=0;dashed=0;shape=mxgraph.bootstrap.rrect;rSize=5;align=left;spacing=15;fontSize=14;" vertex="1" parent="wYJrxyhoSdgwNmsz03KT-28">
          <mxGeometry x="117" y="353" width="310" height="40" as="geometry" />
        </mxCell>
        <mxCell id="wYJrxyhoSdgwNmsz03KT-36" value="Category Arabic Description" style="fillColor=none;strokeColor=none;align=left;fontSize=14;" vertex="1" parent="wYJrxyhoSdgwNmsz03KT-28">
          <mxGeometry x="117" y="310" width="310" height="30" as="geometry" />
        </mxCell>
        <mxCell id="wYJrxyhoSdgwNmsz03KT-37" value="Sub Category" style="html=1;shadow=0;dashed=0;shape=mxgraph.bootstrap.rrect;rSize=5;html=1;whiteSpace=wrap;verticalAlign=top;align=left;fontSize=18;spacing=15;spacingTop=-5;" vertex="1" parent="1">
          <mxGeometry x="180" y="910" width="1270" height="720" as="geometry" />
        </mxCell>
        <mxCell id="wYJrxyhoSdgwNmsz03KT-38" value="" style="shape=line;strokeColor=#dddddd;resizeWidth=1;" vertex="1" parent="wYJrxyhoSdgwNmsz03KT-37">
          <mxGeometry width="1270" height="10" relative="1" as="geometry">
            <mxPoint y="50" as="offset" />
          </mxGeometry>
        </mxCell>
        <mxCell id="wYJrxyhoSdgwNmsz03KT-39" value="" style="html=1;shadow=0;dashed=0;shape=mxgraph.bootstrap.x;strokeColor=#868686;strokeWidth=2;" vertex="1" parent="wYJrxyhoSdgwNmsz03KT-37">
          <mxGeometry x="1" width="8" height="8" relative="1" as="geometry">
            <mxPoint x="-24" y="20" as="offset" />
          </mxGeometry>
        </mxCell>
        <mxCell id="wYJrxyhoSdgwNmsz03KT-40" value="" style="shape=line;strokeColor=#dddddd;resizeWidth=1;" vertex="1" parent="wYJrxyhoSdgwNmsz03KT-37">
          <mxGeometry width="1270" height="10" relative="1" as="geometry">
            <mxPoint y="642" as="offset" />
          </mxGeometry>
        </mxCell>
        <mxCell id="wYJrxyhoSdgwNmsz03KT-41" value="Save changes" style="html=1;shadow=0;dashed=0;shape=mxgraph.bootstrap.rrect;rSize=5;fillColor=#0085FC;strokeColor=none;fontColor=#FFFFFF;fontSize=14;" vertex="1" parent="wYJrxyhoSdgwNmsz03KT-37">
          <mxGeometry x="1" y="1" width="110" height="40" relative="1" as="geometry">
            <mxPoint x="-185" y="-60" as="offset" />
          </mxGeometry>
        </mxCell>
        <mxCell id="wYJrxyhoSdgwNmsz03KT-42" value="Close" style="html=1;shadow=0;dashed=0;shape=mxgraph.bootstrap.rrect;rSize=5;fillColor=#6C757D;strokeColor=none;fontColor=#FFFFFF;fontSize=14;" vertex="1" parent="wYJrxyhoSdgwNmsz03KT-37">
          <mxGeometry x="1" y="1" width="70" height="40" relative="1" as="geometry">
            <mxPoint x="-263" y="-60" as="offset" />
          </mxGeometry>
        </mxCell>
        <mxCell id="wYJrxyhoSdgwNmsz03KT-60" value="" style="html=1;shadow=0;dashed=0;shape=mxgraph.bootstrap.rrect;rSize=5;strokeColor=#DFDFDF;html=1;whiteSpace=wrap;fillColor=#FFFFFF;fontColor=#000000;" vertex="1" parent="wYJrxyhoSdgwNmsz03KT-37">
          <mxGeometry x="50" y="91.42857142857142" width="1160" height="171.42857142857142" as="geometry" />
        </mxCell>
        <mxCell id="wYJrxyhoSdgwNmsz03KT-61" value="Central Category" style="html=1;shadow=0;dashed=0;shape=mxgraph.bootstrap.topButton;strokeColor=none;fillColor=#d5e8d4;rSize=5;perimeter=none;whiteSpace=wrap;resizeWidth=1;align=left;spacing=20;fontSize=14;" vertex="1" parent="wYJrxyhoSdgwNmsz03KT-60">
          <mxGeometry width="1160" height="40" relative="1" as="geometry" />
        </mxCell>
        <mxCell id="wYJrxyhoSdgwNmsz03KT-64" value="" style="html=1;shadow=0;dashed=0;shape=mxgraph.bootstrap.rrect;rSize=5;fillColor=none;strokeColor=#999999;align=left;spacing=15;fontSize=14;fontColor=#6C767D;" vertex="1" parent="wYJrxyhoSdgwNmsz03KT-60">
          <mxGeometry x="203" y="67" width="140" height="34.285714285714285" as="geometry" />
        </mxCell>
        <mxCell id="wYJrxyhoSdgwNmsz03KT-68" value="Category ID" style="fillColor=none;strokeColor=none;align=left;fontSize=14;" vertex="1" parent="wYJrxyhoSdgwNmsz03KT-60">
          <mxGeometry x="103" y="67.0014285714285" width="100" height="30" as="geometry" />
        </mxCell>
        <mxCell id="wYJrxyhoSdgwNmsz03KT-69" value="" style="html=1;shadow=0;dashed=0;shape=mxgraph.bootstrap.rrect;rSize=5;fillColor=#6C757D;strokeColor=none;fontColor=#FFFFFF;fontSize=14;" vertex="1" parent="wYJrxyhoSdgwNmsz03KT-60">
          <mxGeometry x="346" y="64.14" width="50" height="42.86" as="geometry" />
        </mxCell>
        <mxCell id="wYJrxyhoSdgwNmsz03KT-70" value="" style="html=1;shadow=0;dashed=0;shape=mxgraph.bootstrap.rrect;rSize=5;fillColor=none;strokeColor=#999999;align=left;spacing=15;fontSize=14;fontColor=#6C767D;" vertex="1" parent="wYJrxyhoSdgwNmsz03KT-60">
          <mxGeometry x="400" y="69.85" width="660" height="34.29" as="geometry" />
        </mxCell>
        <mxCell id="wYJrxyhoSdgwNmsz03KT-71" value="" style="html=1;shadow=0;dashed=0;shape=mxgraph.bootstrap.rrect;rSize=5;strokeColor=#DFDFDF;html=1;whiteSpace=wrap;fillColor=#FFFFFF;fontColor=#000000;" vertex="1" parent="wYJrxyhoSdgwNmsz03KT-37">
          <mxGeometry x="49" y="290" width="1161" height="340" as="geometry" />
        </mxCell>
        <mxCell id="wYJrxyhoSdgwNmsz03KT-72" value="Sub Category" style="html=1;shadow=0;dashed=0;shape=mxgraph.bootstrap.topButton;strokeColor=inherit;fillColor=#F7F7F7;rSize=5;perimeter=none;whiteSpace=wrap;resizeWidth=1;align=left;spacing=20;fontSize=14;" vertex="1" parent="wYJrxyhoSdgwNmsz03KT-71">
          <mxGeometry width="1160" height="40" relative="1" as="geometry" />
        </mxCell>
        <mxCell id="wYJrxyhoSdgwNmsz03KT-77" value="" style="html=1;shadow=0;dashed=0;shape=mxgraph.bootstrap.rrect;rSize=5;fillColor=none;strokeColor=#999999;align=left;spacing=15;fontSize=14;fontColor=#6C767D;noLabel=0;" vertex="1" parent="wYJrxyhoSdgwNmsz03KT-71">
          <mxGeometry x="150" y="96" width="320" height="30" as="geometry" />
        </mxCell>
        <mxCell id="wYJrxyhoSdgwNmsz03KT-78" value="" style="html=1;shadow=0;dashed=0;shape=mxgraph.bootstrap.rrect;rSize=5;fillColor=none;strokeColor=#999999;align=left;spacing=15;fontSize=14;fontColor=#6C767D;" vertex="1" parent="wYJrxyhoSdgwNmsz03KT-71">
          <mxGeometry x="480" y="96" width="326" height="30" as="geometry" />
        </mxCell>
        <mxCell id="wYJrxyhoSdgwNmsz03KT-82" value="" style="html=1;shadow=0;dashed=0;shape=mxgraph.bootstrap.rrect;rSize=5;fillColor=none;strokeColor=#999999;align=left;spacing=15;fontSize=14;fontColor=#6C767D;noLabel=0;" vertex="1" parent="wYJrxyhoSdgwNmsz03KT-71">
          <mxGeometry x="150" y="140" width="320" height="30" as="geometry" />
        </mxCell>
        <mxCell id="wYJrxyhoSdgwNmsz03KT-83" value="" style="html=1;shadow=0;dashed=0;shape=mxgraph.bootstrap.rrect;rSize=5;fillColor=none;strokeColor=#999999;align=left;spacing=15;fontSize=14;fontColor=#6C767D;noLabel=0;" vertex="1" parent="wYJrxyhoSdgwNmsz03KT-71">
          <mxGeometry x="150" y="184" width="320" height="30" as="geometry" />
        </mxCell>
        <mxCell id="wYJrxyhoSdgwNmsz03KT-84" value="" style="html=1;shadow=0;dashed=0;shape=mxgraph.bootstrap.rrect;rSize=5;fillColor=none;strokeColor=#999999;align=left;spacing=15;fontSize=14;fontColor=#6C767D;noLabel=0;" vertex="1" parent="wYJrxyhoSdgwNmsz03KT-71">
          <mxGeometry x="150" y="232" width="320" height="30" as="geometry" />
        </mxCell>
        <mxCell id="wYJrxyhoSdgwNmsz03KT-85" value="" style="html=1;shadow=0;dashed=0;shape=mxgraph.bootstrap.rrect;rSize=5;fillColor=none;strokeColor=#999999;align=left;spacing=15;fontSize=14;fontColor=#6C767D;" vertex="1" parent="wYJrxyhoSdgwNmsz03KT-71">
          <mxGeometry x="480" y="140" width="326" height="30" as="geometry" />
        </mxCell>
        <mxCell id="wYJrxyhoSdgwNmsz03KT-86" value="" style="html=1;shadow=0;dashed=0;shape=mxgraph.bootstrap.rrect;rSize=5;fillColor=none;strokeColor=#999999;align=left;spacing=15;fontSize=14;fontColor=#6C767D;" vertex="1" parent="wYJrxyhoSdgwNmsz03KT-71">
          <mxGeometry x="480" y="184" width="326" height="30" as="geometry" />
        </mxCell>
        <mxCell id="wYJrxyhoSdgwNmsz03KT-87" value="" style="html=1;shadow=0;dashed=0;shape=mxgraph.bootstrap.rrect;rSize=5;fillColor=none;strokeColor=#999999;align=left;spacing=15;fontSize=14;fontColor=#6C767D;" vertex="1" parent="wYJrxyhoSdgwNmsz03KT-71">
          <mxGeometry x="480" y="232" width="326" height="30" as="geometry" />
        </mxCell>
        <mxCell id="wYJrxyhoSdgwNmsz03KT-88" value="" style="html=1;shadow=0;dashed=0;shape=mxgraph.bootstrap.rrect;rSize=5;fillColor=none;strokeColor=#999999;align=left;spacing=15;fontSize=14;fontColor=#6C767D;noLabel=0;" vertex="1" parent="wYJrxyhoSdgwNmsz03KT-71">
          <mxGeometry x="61" y="96" width="80" height="30" as="geometry" />
        </mxCell>
        <mxCell id="wYJrxyhoSdgwNmsz03KT-89" value="" style="html=1;shadow=0;dashed=0;shape=mxgraph.bootstrap.rrect;rSize=5;fillColor=none;strokeColor=#999999;align=left;spacing=15;fontSize=14;fontColor=#6C767D;noLabel=0;" vertex="1" parent="wYJrxyhoSdgwNmsz03KT-71">
          <mxGeometry x="61" y="140" width="80" height="30" as="geometry" />
        </mxCell>
        <mxCell id="wYJrxyhoSdgwNmsz03KT-90" value="" style="html=1;shadow=0;dashed=0;shape=mxgraph.bootstrap.rrect;rSize=5;fillColor=none;strokeColor=#999999;align=left;spacing=15;fontSize=14;fontColor=#6C767D;noLabel=0;" vertex="1" parent="wYJrxyhoSdgwNmsz03KT-71">
          <mxGeometry x="61" y="184" width="80" height="30" as="geometry" />
        </mxCell>
        <mxCell id="wYJrxyhoSdgwNmsz03KT-91" value="" style="html=1;shadow=0;dashed=0;shape=mxgraph.bootstrap.rrect;rSize=5;fillColor=none;strokeColor=#999999;align=left;spacing=15;fontSize=14;fontColor=#6C767D;noLabel=0;" vertex="1" parent="wYJrxyhoSdgwNmsz03KT-71">
          <mxGeometry x="61" y="232" width="80" height="30" as="geometry" />
        </mxCell>
        <mxCell id="wYJrxyhoSdgwNmsz03KT-92" value="ID" style="fillColor=none;strokeColor=none;align=left;fontSize=14;" vertex="1" parent="wYJrxyhoSdgwNmsz03KT-71">
          <mxGeometry x="61" y="59.99999999999977" width="80" height="30" as="geometry" />
        </mxCell>
        <mxCell id="wYJrxyhoSdgwNmsz03KT-93" value="Arabic Desc" style="fillColor=none;strokeColor=none;align=left;fontSize=14;" vertex="1" parent="wYJrxyhoSdgwNmsz03KT-71">
          <mxGeometry x="150" y="59.99999999999977" width="320" height="30" as="geometry" />
        </mxCell>
        <mxCell id="wYJrxyhoSdgwNmsz03KT-94" value="English Desc" style="fillColor=none;strokeColor=none;align=left;fontSize=14;" vertex="1" parent="wYJrxyhoSdgwNmsz03KT-71">
          <mxGeometry x="480" y="59.99999999999977" width="320" height="30" as="geometry" />
        </mxCell>
        <mxCell id="wYJrxyhoSdgwNmsz03KT-95" value="" style="html=1;shadow=0;dashed=0;shape=mxgraph.bootstrap.rrect;rSize=5;strokeColor=none;strokeWidth=1;fillColor=#6C767D;fontColor=#ffffff;whiteSpace=wrap;align=left;verticalAlign=middle;fontStyle=0;fontSize=14;spacingLeft=10;" vertex="1" parent="wYJrxyhoSdgwNmsz03KT-71">
          <mxGeometry x="905" y="96" width="130" height="30" as="geometry" />
        </mxCell>
        <mxCell id="wYJrxyhoSdgwNmsz03KT-96" value="" style="shape=triangle;direction=north;fillColor=#ffffff;strokeColor=none;perimeter=none;" vertex="1" parent="wYJrxyhoSdgwNmsz03KT-95">
          <mxGeometry x="1" y="0.5" width="10" height="5" relative="1" as="geometry">
            <mxPoint x="-17" y="-2.5" as="offset" />
          </mxGeometry>
        </mxCell>
        <mxCell id="wYJrxyhoSdgwNmsz03KT-97" value="" style="html=1;shadow=0;dashed=0;shape=mxgraph.bootstrap.rrect;rSize=5;strokeColor=none;strokeWidth=1;fillColor=#6C767D;fontColor=#ffffff;whiteSpace=wrap;align=left;verticalAlign=middle;fontStyle=0;fontSize=14;spacingLeft=10;" vertex="1" parent="wYJrxyhoSdgwNmsz03KT-71">
          <mxGeometry x="905" y="140" width="130" height="30" as="geometry" />
        </mxCell>
        <mxCell id="wYJrxyhoSdgwNmsz03KT-98" value="" style="shape=triangle;direction=north;fillColor=#ffffff;strokeColor=none;perimeter=none;" vertex="1" parent="wYJrxyhoSdgwNmsz03KT-97">
          <mxGeometry x="1" y="0.5" width="10" height="5" relative="1" as="geometry">
            <mxPoint x="-17" y="-2.5" as="offset" />
          </mxGeometry>
        </mxCell>
        <mxCell id="wYJrxyhoSdgwNmsz03KT-99" value="" style="html=1;shadow=0;dashed=0;shape=mxgraph.bootstrap.rrect;rSize=5;strokeColor=none;strokeWidth=1;fillColor=#6C767D;fontColor=#ffffff;whiteSpace=wrap;align=left;verticalAlign=middle;fontStyle=0;fontSize=14;spacingLeft=10;" vertex="1" parent="wYJrxyhoSdgwNmsz03KT-71">
          <mxGeometry x="905" y="184" width="130" height="30" as="geometry" />
        </mxCell>
        <mxCell id="wYJrxyhoSdgwNmsz03KT-100" value="" style="shape=triangle;direction=north;fillColor=#ffffff;strokeColor=none;perimeter=none;" vertex="1" parent="wYJrxyhoSdgwNmsz03KT-99">
          <mxGeometry x="1" y="0.5" width="10" height="5" relative="1" as="geometry">
            <mxPoint x="-17" y="-2.5" as="offset" />
          </mxGeometry>
        </mxCell>
        <mxCell id="wYJrxyhoSdgwNmsz03KT-101" value="" style="html=1;shadow=0;dashed=0;shape=mxgraph.bootstrap.rrect;rSize=5;strokeColor=none;strokeWidth=1;fillColor=#6C767D;fontColor=#ffffff;whiteSpace=wrap;align=left;verticalAlign=middle;fontStyle=0;fontSize=14;spacingLeft=10;" vertex="1" parent="wYJrxyhoSdgwNmsz03KT-71">
          <mxGeometry x="905" y="232" width="130" height="30" as="geometry" />
        </mxCell>
        <mxCell id="wYJrxyhoSdgwNmsz03KT-102" value="" style="shape=triangle;direction=north;fillColor=#ffffff;strokeColor=none;perimeter=none;" vertex="1" parent="wYJrxyhoSdgwNmsz03KT-101">
          <mxGeometry x="1" y="0.5" width="10" height="5" relative="1" as="geometry">
            <mxPoint x="-17" y="-2.5" as="offset" />
          </mxGeometry>
        </mxCell>
        <mxCell id="wYJrxyhoSdgwNmsz03KT-103" value="Status" style="fillColor=none;strokeColor=none;align=left;fontSize=14;" vertex="1" parent="wYJrxyhoSdgwNmsz03KT-71">
          <mxGeometry x="905" y="59.99999999999977" width="130" height="30" as="geometry" />
        </mxCell>
        <mxCell id="wYJrxyhoSdgwNmsz03KT-104" value="" style="swimlane;fontStyle=0;childLayout=stackLayout;horizontal=1;startSize=0;horizontalStack=0;resizeParent=1;resizeParentMax=0;resizeLast=0;collapsible=0;marginBottom=0;whiteSpace=wrap;html=1;fillColor=#DADDF5;strokeColor=#6c8ebf;gradientColor=default;swimlaneFillColor=#D980FF;" vertex="1" parent="wYJrxyhoSdgwNmsz03KT-71">
          <mxGeometry x="1027" y="107" width="129" height="60" as="geometry" />
        </mxCell>
        <mxCell id="wYJrxyhoSdgwNmsz03KT-105" value="Active" style="text;strokeColor=#DFDFDF;fillColor=#FFFFFF;align=left;verticalAlign=middle;spacingLeft=10;spacingRight=10;overflow=hidden;points=[[0,0.5],[1,0.5]];portConstraint=eastwest;rotatable=0;whiteSpace=wrap;html=1;shape=mxgraph.bootstrap.topButton;rSize=5;fontColor=#333333;" vertex="1" parent="wYJrxyhoSdgwNmsz03KT-104">
          <mxGeometry width="129" height="30" as="geometry" />
        </mxCell>
        <mxCell id="wYJrxyhoSdgwNmsz03KT-106" value="No Active" style="text;strokeColor=#DFDFDF;fillColor=#FFFFFF;align=left;verticalAlign=middle;spacingLeft=10;spacingRight=10;overflow=hidden;points=[[0,0.5],[1,0.5]];portConstraint=eastwest;rotatable=0;whiteSpace=wrap;html=1;rSize=5;fontColor=#333333;" vertex="1" parent="wYJrxyhoSdgwNmsz03KT-104">
          <mxGeometry y="30" width="129" height="30" as="geometry" />
        </mxCell>
        <mxCell id="wYJrxyhoSdgwNmsz03KT-321" value="RefÂ " style="fillColor=none;strokeColor=none;align=left;fontSize=14;" vertex="1" parent="wYJrxyhoSdgwNmsz03KT-71">
          <mxGeometry x="820" y="60" width="69" height="30" as="geometry" />
        </mxCell>
        <mxCell id="wYJrxyhoSdgwNmsz03KT-330" value="Genral" style="html=1;shadow=0;dashed=0;shape=mxgraph.bootstrap.rrect;rSize=5;strokeColor=none;strokeWidth=1;fillColor=#6C767D;fontColor=#ffffff;whiteSpace=wrap;align=right;verticalAlign=middle;fontStyle=0;fontSize=14;spacingRight=10;" vertex="1" parent="wYJrxyhoSdgwNmsz03KT-71">
          <mxGeometry x="816" y="96" width="85" height="30" as="geometry" />
        </mxCell>
        <mxCell id="wYJrxyhoSdgwNmsz03KT-331" value="" style="shape=triangle;direction=west;fillColor=#ffffff;strokeColor=none;perimeter=none;" vertex="1" parent="wYJrxyhoSdgwNmsz03KT-330">
          <mxGeometry y="0.5" width="5" height="10" relative="1" as="geometry">
            <mxPoint x="10" y="-5" as="offset" />
          </mxGeometry>
        </mxCell>
        <mxCell id="wYJrxyhoSdgwNmsz03KT-332" value="" style="swimlane;container=1;shape=mxgraph.bootstrap.rrect;rSize=5;strokeColor=#10739e;fillColor=#e5f4fb;fontStyle=0;childLayout=stackLayout;horizontal=1;startSize=0;horizontalStack=0;resizeParent=1;resizeParentMax=0;resizeLast=0;collapsible=0;marginBottom=0;whiteSpace=wrap;html=1;marginTop=10;marginBottom=10;" vertex="1" parent="wYJrxyhoSdgwNmsz03KT-71">
          <mxGeometry x="646" y="90" width="170" height="120" as="geometry" />
        </mxCell>
        <mxCell id="wYJrxyhoSdgwNmsz03KT-333" value="General" style="text;align=left;verticalAlign=middle;spacingLeft=20;spacingRight=10;overflow=hidden;points=[[0,0.5],[1,0.5]];portConstraint=eastwest;rotatable=0;whiteSpace=wrap;html=1;fontColor=inherit;fontSize=14;fontStyle=0;" vertex="1" parent="wYJrxyhoSdgwNmsz03KT-332">
          <mxGeometry y="10" width="170" height="30" as="geometry" />
        </mxCell>
        <mxCell id="wYJrxyhoSdgwNmsz03KT-334" value="Employee" style="text;align=left;verticalAlign=middle;spacingLeft=20;spacingRight=10;overflow=hidden;points=[[0,0.5],[1,0.5]];portConstraint=eastwest;rotatable=0;whiteSpace=wrap;html=1;fontColor=inherit;fontSize=14;fontStyle=0;" vertex="1" parent="wYJrxyhoSdgwNmsz03KT-332">
          <mxGeometry y="40" width="170" height="30" as="geometry" />
        </mxCell>
        <mxCell id="wYJrxyhoSdgwNmsz03KT-335" value="Vechile" style="text;align=left;verticalAlign=middle;spacingLeft=20;spacingRight=10;overflow=hidden;points=[[0,0.5],[1,0.5]];portConstraint=eastwest;rotatable=0;whiteSpace=wrap;html=1;fontColor=inherit;fontSize=14;fontStyle=0;" vertex="1" parent="wYJrxyhoSdgwNmsz03KT-332">
          <mxGeometry y="70" width="170" height="30" as="geometry" />
        </mxCell>
        <mxCell id="wYJrxyhoSdgwNmsz03KT-336" value="" style="text;shape=line;strokeColor=inherit;align=center;verticalAlign=middle;spacingLeft=20;spacingRight=10;overflow=hidden;points=[[0,0.5],[1,0.5]];portConstraint=eastwest;rotatable=0;whiteSpace=wrap;html=1;fontColor=inherit;" vertex="1" parent="wYJrxyhoSdgwNmsz03KT-332">
          <mxGeometry y="100" width="170" height="10" as="geometry" />
        </mxCell>
        <mxCell id="wYJrxyhoSdgwNmsz03KT-340" value="" style="html=1;shadow=0;dashed=0;shape=mxgraph.bootstrap.rrect;rSize=5;strokeColor=none;strokeWidth=1;fillColor=#6C767D;fontColor=#ffffff;whiteSpace=wrap;align=right;verticalAlign=middle;fontStyle=0;fontSize=14;spacingRight=10;" vertex="1" parent="wYJrxyhoSdgwNmsz03KT-71">
          <mxGeometry x="816" y="184" width="85" height="30" as="geometry" />
        </mxCell>
        <mxCell id="wYJrxyhoSdgwNmsz03KT-341" value="" style="shape=triangle;direction=west;fillColor=#ffffff;strokeColor=none;perimeter=none;" vertex="1" parent="wYJrxyhoSdgwNmsz03KT-340">
          <mxGeometry y="0.5" width="5" height="10" relative="1" as="geometry">
            <mxPoint x="10" y="-5" as="offset" />
          </mxGeometry>
        </mxCell>
        <mxCell id="wYJrxyhoSdgwNmsz03KT-342" value="" style="html=1;shadow=0;dashed=0;shape=mxgraph.bootstrap.rrect;rSize=5;strokeColor=none;strokeWidth=1;fillColor=#6C767D;fontColor=#ffffff;whiteSpace=wrap;align=right;verticalAlign=middle;fontStyle=0;fontSize=14;spacingRight=10;" vertex="1" parent="wYJrxyhoSdgwNmsz03KT-71">
          <mxGeometry x="816" y="232" width="85" height="30" as="geometry" />
        </mxCell>
        <mxCell id="wYJrxyhoSdgwNmsz03KT-343" value="" style="shape=triangle;direction=west;fillColor=#ffffff;strokeColor=none;perimeter=none;" vertex="1" parent="wYJrxyhoSdgwNmsz03KT-342">
          <mxGeometry y="0.5" width="5" height="10" relative="1" as="geometry">
            <mxPoint x="10" y="-5" as="offset" />
          </mxGeometry>
        </mxCell>
        <mxCell id="wYJrxyhoSdgwNmsz03KT-112" value="Job Setup Master" style="html=1;shadow=0;dashed=0;shape=mxgraph.bootstrap.rrect;rSize=5;html=1;whiteSpace=wrap;verticalAlign=top;align=left;fontSize=18;spacing=15;spacingTop=-5;" vertex="1" parent="1">
          <mxGeometry x="183" y="1678" width="1270" height="720" as="geometry" />
        </mxCell>
        <mxCell id="wYJrxyhoSdgwNmsz03KT-113" value="" style="shape=line;strokeColor=#dddddd;resizeWidth=1;" vertex="1" parent="wYJrxyhoSdgwNmsz03KT-112">
          <mxGeometry width="1270" height="10" relative="1" as="geometry">
            <mxPoint y="50" as="offset" />
          </mxGeometry>
        </mxCell>
        <mxCell id="wYJrxyhoSdgwNmsz03KT-114" value="" style="html=1;shadow=0;dashed=0;shape=mxgraph.bootstrap.x;strokeColor=#868686;strokeWidth=2;" vertex="1" parent="wYJrxyhoSdgwNmsz03KT-112">
          <mxGeometry x="1" width="8" height="8" relative="1" as="geometry">
            <mxPoint x="-24" y="20" as="offset" />
          </mxGeometry>
        </mxCell>
        <mxCell id="wYJrxyhoSdgwNmsz03KT-115" value="" style="shape=line;strokeColor=#dddddd;resizeWidth=1;" vertex="1" parent="wYJrxyhoSdgwNmsz03KT-112">
          <mxGeometry width="1270" height="10" relative="1" as="geometry">
            <mxPoint y="642" as="offset" />
          </mxGeometry>
        </mxCell>
        <mxCell id="wYJrxyhoSdgwNmsz03KT-116" value="Save changes" style="html=1;shadow=0;dashed=0;shape=mxgraph.bootstrap.rrect;rSize=5;fillColor=#0085FC;strokeColor=none;fontColor=#FFFFFF;fontSize=14;" vertex="1" parent="wYJrxyhoSdgwNmsz03KT-112">
          <mxGeometry x="1" y="1" width="110" height="40" relative="1" as="geometry">
            <mxPoint x="-185" y="-60" as="offset" />
          </mxGeometry>
        </mxCell>
        <mxCell id="wYJrxyhoSdgwNmsz03KT-117" value="Close" style="html=1;shadow=0;dashed=0;shape=mxgraph.bootstrap.rrect;rSize=5;fillColor=#6C757D;strokeColor=none;fontColor=#FFFFFF;fontSize=14;" vertex="1" parent="wYJrxyhoSdgwNmsz03KT-112">
          <mxGeometry x="1" y="1" width="70" height="40" relative="1" as="geometry">
            <mxPoint x="-263" y="-60" as="offset" />
          </mxGeometry>
        </mxCell>
        <mxCell id="wYJrxyhoSdgwNmsz03KT-163" value="Job Id" style="fillColor=none;strokeColor=none;align=left;fontSize=14;fontColor=#212529;" vertex="1" parent="wYJrxyhoSdgwNmsz03KT-112">
          <mxGeometry x="143" y="83" width="400" height="30" as="geometry" />
        </mxCell>
        <mxCell id="wYJrxyhoSdgwNmsz03KT-164" value="" style="html=1;shadow=0;dashed=0;shape=mxgraph.bootstrap.rrect;rSize=5;fillColor=none;strokeColor=#999999;align=left;spacing=15;fontSize=14;fontColor=#6C767D;" vertex="1" parent="wYJrxyhoSdgwNmsz03KT-112">
          <mxGeometry x="143" y="113" width="130" height="30" as="geometry" />
        </mxCell>
        <mxCell id="wYJrxyhoSdgwNmsz03KT-165" value="Arabic Name" style="fillColor=none;strokeColor=none;align=left;fontSize=14;fontColor=#212529;" vertex="1" parent="wYJrxyhoSdgwNmsz03KT-112">
          <mxGeometry x="545.5" y="147" width="400" height="30" as="geometry" />
        </mxCell>
        <mxCell id="wYJrxyhoSdgwNmsz03KT-166" value="" style="html=1;shadow=0;dashed=0;shape=mxgraph.bootstrap.rrect;rSize=5;fillColor=none;strokeColor=#999999;align=left;spacing=15;fontSize=14;fontColor=#6C767D;" vertex="1" parent="wYJrxyhoSdgwNmsz03KT-112">
          <mxGeometry x="545.5" y="183" width="395" height="30" as="geometry" />
        </mxCell>
        <mxCell id="wYJrxyhoSdgwNmsz03KT-167" value="English Name" style="fillColor=none;strokeColor=none;align=left;fontSize=14;fontColor=#212529;" vertex="1" parent="wYJrxyhoSdgwNmsz03KT-112">
          <mxGeometry x="143" y="153" width="390" height="30" as="geometry" />
        </mxCell>
        <mxCell id="wYJrxyhoSdgwNmsz03KT-168" value="" style="html=1;shadow=0;dashed=0;shape=mxgraph.bootstrap.rrect;rSize=5;fillColor=none;strokeColor=#999999;align=left;spacing=15;fontSize=14;fontColor=#6C767D;" vertex="1" parent="wYJrxyhoSdgwNmsz03KT-112">
          <mxGeometry x="143" y="183" width="390" height="30" as="geometry" />
        </mxCell>
        <mxCell id="wYJrxyhoSdgwNmsz03KT-169" value="Job Description" style="fillColor=none;strokeColor=none;align=left;fontSize=14;fontColor=#212529;" vertex="1" parent="wYJrxyhoSdgwNmsz03KT-112">
          <mxGeometry x="143" y="223" width="390" height="30" as="geometry" />
        </mxCell>
        <mxCell id="wYJrxyhoSdgwNmsz03KT-170" value="" style="html=1;shadow=0;dashed=0;shape=mxgraph.bootstrap.rrect;rSize=5;fillColor=none;strokeColor=#999999;align=left;spacing=15;fontSize=14;fontColor=#6C767D;" vertex="1" parent="wYJrxyhoSdgwNmsz03KT-112">
          <mxGeometry x="143" y="253" width="800" height="110" as="geometry" />
        </mxCell>
        <mxCell id="wYJrxyhoSdgwNmsz03KT-178" value="Job is Active" style="html=1;shadow=0;dashed=0;shape=mxgraph.bootstrap.checkbox2;labelPosition=right;verticalLabelPosition=middle;align=left;verticalAlign=middle;gradientColor=#DEDEDE;fillColor=#EDEDED;checked=0;spacing=5;strokeColor=#999999;fontColor=#212529;checkedFill=#0085FC;checkedStroke=#ffffff;" vertex="1" parent="wYJrxyhoSdgwNmsz03KT-112">
          <mxGeometry x="497" y="464" width="10" height="10" as="geometry" />
        </mxCell>
        <mxCell id="wYJrxyhoSdgwNmsz03KT-182" value="Job Priorty" style="fillColor=none;strokeColor=none;align=left;fontSize=14;fontColor=#212529;" vertex="1" parent="wYJrxyhoSdgwNmsz03KT-112">
          <mxGeometry x="148.5" y="392" width="107.5" height="30" as="geometry" />
        </mxCell>
        <mxCell id="wYJrxyhoSdgwNmsz03KT-183" value="Normal" style="html=1;shadow=0;dashed=0;shape=mxgraph.bootstrap.rrect;rSize=5;strokeColor=none;strokeWidth=1;fillColor=#6C767D;fontColor=#ffffff;whiteSpace=wrap;align=left;verticalAlign=middle;fontStyle=0;fontSize=14;spacingLeft=10;" vertex="1" parent="wYJrxyhoSdgwNmsz03KT-112">
          <mxGeometry x="153" y="433" width="95" height="40" as="geometry" />
        </mxCell>
        <mxCell id="wYJrxyhoSdgwNmsz03KT-184" value="" style="shape=triangle;direction=east;fillColor=#ffffff;strokeColor=none;perimeter=none;" vertex="1" parent="wYJrxyhoSdgwNmsz03KT-183">
          <mxGeometry x="1" y="0.5" width="5" height="10" relative="1" as="geometry">
            <mxPoint x="-15" y="-5" as="offset" />
          </mxGeometry>
        </mxCell>
        <mxCell id="wYJrxyhoSdgwNmsz03KT-185" value="" style="swimlane;container=1;shape=mxgraph.bootstrap.rrect;rSize=5;strokeColor=#999999;fillColor=#ffffff;fontStyle=0;childLayout=stackLayout;horizontal=1;startSize=0;horizontalStack=0;resizeParent=1;resizeParentMax=0;resizeLast=0;collapsible=0;marginBottom=0;whiteSpace=wrap;html=1;marginTop=10;marginBottom=10;" vertex="1" parent="wYJrxyhoSdgwNmsz03KT-112">
          <mxGeometry x="251" y="458" width="170" height="110" as="geometry" />
        </mxCell>
        <mxCell id="wYJrxyhoSdgwNmsz03KT-186" value="Normal" style="text;align=left;verticalAlign=middle;spacingLeft=20;spacingRight=10;overflow=hidden;points=[[0,0.5],[1,0.5]];portConstraint=eastwest;rotatable=0;whiteSpace=wrap;html=1;fontColor=inherit;fontSize=14;fontStyle=0;" vertex="1" parent="wYJrxyhoSdgwNmsz03KT-185">
          <mxGeometry y="10" width="170" height="30" as="geometry" />
        </mxCell>
        <mxCell id="wYJrxyhoSdgwNmsz03KT-187" value="High" style="text;align=left;verticalAlign=middle;spacingLeft=20;spacingRight=10;overflow=hidden;points=[[0,0.5],[1,0.5]];portConstraint=eastwest;rotatable=0;whiteSpace=wrap;html=1;fontColor=inherit;fontSize=14;fontStyle=0;" vertex="1" parent="wYJrxyhoSdgwNmsz03KT-185">
          <mxGeometry y="40" width="170" height="30" as="geometry" />
        </mxCell>
        <mxCell id="wYJrxyhoSdgwNmsz03KT-188" value="Urgent" style="text;align=left;verticalAlign=middle;spacingLeft=20;spacingRight=10;overflow=hidden;points=[[0,0.5],[1,0.5]];portConstraint=eastwest;rotatable=0;whiteSpace=wrap;html=1;fontColor=inherit;fontSize=14;fontStyle=0;" vertex="1" parent="wYJrxyhoSdgwNmsz03KT-185">
          <mxGeometry y="70" width="170" height="30" as="geometry" />
        </mxCell>
        <mxCell id="wYJrxyhoSdgwNmsz03KT-520" value="Required Preview" style="html=1;shadow=0;dashed=0;shape=mxgraph.bootstrap.checkbox2;labelPosition=right;verticalLabelPosition=middle;align=left;verticalAlign=middle;gradientColor=#DEDEDE;fillColor=#EDEDED;checked=0;spacing=5;strokeColor=#999999;fontColor=#212529;checkedFill=#0085FC;checkedStroke=#ffffff;" vertex="1" parent="wYJrxyhoSdgwNmsz03KT-112">
          <mxGeometry x="497" y="498" width="10" height="10" as="geometry" />
        </mxCell>
        <mxCell id="wYJrxyhoSdgwNmsz03KT-522" value="Dispatcher Type" style="fillColor=none;strokeColor=none;align=left;fontSize=14;fontColor=#212529;" vertex="1" parent="wYJrxyhoSdgwNmsz03KT-112">
          <mxGeometry x="673" y="392" width="107.5" height="30" as="geometry" />
        </mxCell>
        <mxCell id="wYJrxyhoSdgwNmsz03KT-523" value="Manual" style="html=1;shadow=0;dashed=0;shape=mxgraph.bootstrap.rrect;rSize=5;strokeColor=none;strokeWidth=1;fillColor=#6C767D;fontColor=#ffffff;whiteSpace=wrap;align=left;verticalAlign=middle;fontStyle=0;fontSize=14;spacingLeft=10;" vertex="1" parent="wYJrxyhoSdgwNmsz03KT-112">
          <mxGeometry x="677.5" y="433" width="95" height="40" as="geometry" />
        </mxCell>
        <mxCell id="wYJrxyhoSdgwNmsz03KT-524" value="" style="shape=triangle;direction=east;fillColor=#ffffff;strokeColor=none;perimeter=none;" vertex="1" parent="wYJrxyhoSdgwNmsz03KT-523">
          <mxGeometry x="1" y="0.5" width="5" height="10" relative="1" as="geometry">
            <mxPoint x="-15" y="-5" as="offset" />
          </mxGeometry>
        </mxCell>
        <mxCell id="wYJrxyhoSdgwNmsz03KT-525" value="" style="swimlane;container=1;shape=mxgraph.bootstrap.rrect;rSize=5;strokeColor=#999999;fillColor=#ffffff;fontStyle=0;childLayout=stackLayout;horizontal=1;startSize=0;horizontalStack=0;resizeParent=1;resizeParentMax=0;resizeLast=0;collapsible=0;marginBottom=0;whiteSpace=wrap;html=1;marginTop=10;marginBottom=10;" vertex="1" parent="wYJrxyhoSdgwNmsz03KT-112">
          <mxGeometry x="775.5" y="455" width="170" height="80" as="geometry" />
        </mxCell>
        <mxCell id="wYJrxyhoSdgwNmsz03KT-526" value="Manual" style="text;align=left;verticalAlign=middle;spacingLeft=20;spacingRight=10;overflow=hidden;points=[[0,0.5],[1,0.5]];portConstraint=eastwest;rotatable=0;whiteSpace=wrap;html=1;fontColor=inherit;fontSize=14;fontStyle=0;" vertex="1" parent="wYJrxyhoSdgwNmsz03KT-525">
          <mxGeometry y="10" width="170" height="30" as="geometry" />
        </mxCell>
        <mxCell id="wYJrxyhoSdgwNmsz03KT-527" value="Auto" style="text;align=left;verticalAlign=middle;spacingLeft=20;spacingRight=10;overflow=hidden;points=[[0,0.5],[1,0.5]];portConstraint=eastwest;rotatable=0;whiteSpace=wrap;html=1;fontColor=inherit;fontSize=14;fontStyle=0;" vertex="1" parent="wYJrxyhoSdgwNmsz03KT-525">
          <mxGeometry y="40" width="170" height="30" as="geometry" />
        </mxCell>
        <mxCell id="wYJrxyhoSdgwNmsz03KT-529" value="Allow Parallel Processing" style="html=1;shadow=0;dashed=0;shape=mxgraph.bootstrap.checkbox2;labelPosition=right;verticalLabelPosition=middle;align=left;verticalAlign=middle;gradientColor=#DEDEDE;fillColor=#EDEDED;checked=0;spacing=5;strokeColor=#999999;fontColor=#212529;checkedFill=#0085FC;checkedStroke=#ffffff;" vertex="1" parent="wYJrxyhoSdgwNmsz03KT-112">
          <mxGeometry x="497" y="530" width="10" height="10" as="geometry" />
        </mxCell>
        <mxCell id="wYJrxyhoSdgwNmsz03KT-191" value="Job Category Link" style="html=1;shadow=0;dashed=0;shape=mxgraph.bootstrap.rrect;rSize=5;html=1;whiteSpace=wrap;verticalAlign=top;align=left;fontSize=18;spacing=15;spacingTop=-5;" vertex="1" parent="1">
          <mxGeometry x="1760" y="230" width="1270" height="720" as="geometry" />
        </mxCell>
        <mxCell id="wYJrxyhoSdgwNmsz03KT-192" value="" style="shape=line;strokeColor=#dddddd;resizeWidth=1;" vertex="1" parent="wYJrxyhoSdgwNmsz03KT-191">
          <mxGeometry width="1270" height="10" relative="1" as="geometry">
            <mxPoint y="50" as="offset" />
          </mxGeometry>
        </mxCell>
        <mxCell id="wYJrxyhoSdgwNmsz03KT-193" value="" style="html=1;shadow=0;dashed=0;shape=mxgraph.bootstrap.x;strokeColor=#868686;strokeWidth=2;" vertex="1" parent="wYJrxyhoSdgwNmsz03KT-191">
          <mxGeometry x="1" width="8" height="8" relative="1" as="geometry">
            <mxPoint x="-24" y="20" as="offset" />
          </mxGeometry>
        </mxCell>
        <mxCell id="wYJrxyhoSdgwNmsz03KT-194" value="" style="shape=line;strokeColor=#dddddd;resizeWidth=1;" vertex="1" parent="wYJrxyhoSdgwNmsz03KT-191">
          <mxGeometry width="1270" height="10" relative="1" as="geometry">
            <mxPoint y="642" as="offset" />
          </mxGeometry>
        </mxCell>
        <mxCell id="wYJrxyhoSdgwNmsz03KT-195" value="Save changes" style="html=1;shadow=0;dashed=0;shape=mxgraph.bootstrap.rrect;rSize=5;fillColor=#0085FC;strokeColor=none;fontColor=#FFFFFF;fontSize=14;" vertex="1" parent="wYJrxyhoSdgwNmsz03KT-191">
          <mxGeometry x="1" y="1" width="110" height="40" relative="1" as="geometry">
            <mxPoint x="-185" y="-60" as="offset" />
          </mxGeometry>
        </mxCell>
        <mxCell id="wYJrxyhoSdgwNmsz03KT-196" value="Close" style="html=1;shadow=0;dashed=0;shape=mxgraph.bootstrap.rrect;rSize=5;fillColor=#6C757D;strokeColor=none;fontColor=#FFFFFF;fontSize=14;" vertex="1" parent="wYJrxyhoSdgwNmsz03KT-191">
          <mxGeometry x="1" y="1" width="70" height="40" relative="1" as="geometry">
            <mxPoint x="-263" y="-60" as="offset" />
          </mxGeometry>
        </mxCell>
        <mxCell id="wYJrxyhoSdgwNmsz03KT-197" value="" style="html=1;shadow=0;dashed=0;shape=mxgraph.bootstrap.rrect;rSize=5;strokeColor=#DFDFDF;html=1;whiteSpace=wrap;fillColor=#FFFFFF;fontColor=#000000;" vertex="1" parent="wYJrxyhoSdgwNmsz03KT-191">
          <mxGeometry x="50" y="91.42857142857142" width="1160" height="171.42857142857142" as="geometry" />
        </mxCell>
        <mxCell id="wYJrxyhoSdgwNmsz03KT-198" value="Category" style="html=1;shadow=0;dashed=0;shape=mxgraph.bootstrap.topButton;strokeColor=none;fillColor=#d5e8d4;rSize=5;perimeter=none;whiteSpace=wrap;resizeWidth=1;align=left;spacing=20;fontSize=14;" vertex="1" parent="wYJrxyhoSdgwNmsz03KT-197">
          <mxGeometry width="1160" height="40" relative="1" as="geometry" />
        </mxCell>
        <mxCell id="wYJrxyhoSdgwNmsz03KT-199" value="" style="html=1;shadow=0;dashed=0;shape=mxgraph.bootstrap.rrect;rSize=5;fillColor=none;strokeColor=#999999;align=left;spacing=15;fontSize=14;fontColor=#6C767D;" vertex="1" parent="wYJrxyhoSdgwNmsz03KT-197">
          <mxGeometry x="203" y="67" width="140" height="34.285714285714285" as="geometry" />
        </mxCell>
        <mxCell id="wYJrxyhoSdgwNmsz03KT-200" value="Category ID" style="fillColor=none;strokeColor=none;align=left;fontSize=14;" vertex="1" parent="wYJrxyhoSdgwNmsz03KT-197">
          <mxGeometry x="103" y="67.0014285714285" width="100" height="30" as="geometry" />
        </mxCell>
        <mxCell id="wYJrxyhoSdgwNmsz03KT-201" value="" style="html=1;shadow=0;dashed=0;shape=mxgraph.bootstrap.rrect;rSize=5;fillColor=#6C757D;strokeColor=none;fontColor=#FFFFFF;fontSize=14;" vertex="1" parent="wYJrxyhoSdgwNmsz03KT-197">
          <mxGeometry x="346" y="64.14" width="50" height="42.86" as="geometry" />
        </mxCell>
        <mxCell id="wYJrxyhoSdgwNmsz03KT-202" value="" style="html=1;shadow=0;dashed=0;shape=mxgraph.bootstrap.rrect;rSize=5;fillColor=none;strokeColor=#999999;align=left;spacing=15;fontSize=14;fontColor=#6C767D;" vertex="1" parent="wYJrxyhoSdgwNmsz03KT-197">
          <mxGeometry x="400" y="69.85" width="660" height="34.29" as="geometry" />
        </mxCell>
        <mxCell id="wYJrxyhoSdgwNmsz03KT-203" value="" style="html=1;shadow=0;dashed=0;shape=mxgraph.bootstrap.rrect;rSize=5;strokeColor=#DFDFDF;html=1;whiteSpace=wrap;fillColor=#FFFFFF;fontColor=#000000;" vertex="1" parent="wYJrxyhoSdgwNmsz03KT-191">
          <mxGeometry x="49" y="290" width="1161" height="340" as="geometry" />
        </mxCell>
        <mxCell id="wYJrxyhoSdgwNmsz03KT-204" value="Jobs List" style="html=1;shadow=0;dashed=0;shape=mxgraph.bootstrap.topButton;strokeColor=inherit;fillColor=#F7F7F7;rSize=5;perimeter=none;whiteSpace=wrap;resizeWidth=1;align=left;spacing=20;fontSize=14;" vertex="1" parent="wYJrxyhoSdgwNmsz03KT-203">
          <mxGeometry width="1160" height="40" relative="1" as="geometry" />
        </mxCell>
        <mxCell id="wYJrxyhoSdgwNmsz03KT-205" value="" style="html=1;shadow=0;dashed=0;shape=mxgraph.bootstrap.rrect;rSize=5;fillColor=none;strokeColor=#999999;align=left;spacing=15;fontSize=14;fontColor=#6C767D;noLabel=0;" vertex="1" parent="wYJrxyhoSdgwNmsz03KT-203">
          <mxGeometry x="398" y="109" width="320" height="30" as="geometry" />
        </mxCell>
        <mxCell id="wYJrxyhoSdgwNmsz03KT-207" value="" style="html=1;shadow=0;dashed=0;shape=mxgraph.bootstrap.rrect;rSize=5;fillColor=none;strokeColor=#999999;align=left;spacing=15;fontSize=14;fontColor=#6C767D;noLabel=0;" vertex="1" parent="wYJrxyhoSdgwNmsz03KT-203">
          <mxGeometry x="398" y="153" width="320" height="30" as="geometry" />
        </mxCell>
        <mxCell id="wYJrxyhoSdgwNmsz03KT-208" value="" style="html=1;shadow=0;dashed=0;shape=mxgraph.bootstrap.rrect;rSize=5;fillColor=none;strokeColor=#999999;align=left;spacing=15;fontSize=14;fontColor=#6C767D;noLabel=0;" vertex="1" parent="wYJrxyhoSdgwNmsz03KT-203">
          <mxGeometry x="398" y="197" width="320" height="30" as="geometry" />
        </mxCell>
        <mxCell id="wYJrxyhoSdgwNmsz03KT-209" value="" style="html=1;shadow=0;dashed=0;shape=mxgraph.bootstrap.rrect;rSize=5;fillColor=none;strokeColor=#999999;align=left;spacing=15;fontSize=14;fontColor=#6C767D;noLabel=0;" vertex="1" parent="wYJrxyhoSdgwNmsz03KT-203">
          <mxGeometry x="398" y="245" width="320" height="30" as="geometry" />
        </mxCell>
        <mxCell id="wYJrxyhoSdgwNmsz03KT-213" value="" style="html=1;shadow=0;dashed=0;shape=mxgraph.bootstrap.rrect;rSize=5;fillColor=none;strokeColor=#999999;align=left;spacing=15;fontSize=14;fontColor=#6C767D;noLabel=0;" vertex="1" parent="wYJrxyhoSdgwNmsz03KT-203">
          <mxGeometry x="242" y="109" width="80" height="30" as="geometry" />
        </mxCell>
        <mxCell id="wYJrxyhoSdgwNmsz03KT-214" value="" style="html=1;shadow=0;dashed=0;shape=mxgraph.bootstrap.rrect;rSize=5;fillColor=none;strokeColor=#999999;align=left;spacing=15;fontSize=14;fontColor=#6C767D;noLabel=0;" vertex="1" parent="wYJrxyhoSdgwNmsz03KT-203">
          <mxGeometry x="242" y="155" width="80" height="30" as="geometry" />
        </mxCell>
        <mxCell id="wYJrxyhoSdgwNmsz03KT-215" value="" style="html=1;shadow=0;dashed=0;shape=mxgraph.bootstrap.rrect;rSize=5;fillColor=none;strokeColor=#999999;align=left;spacing=15;fontSize=14;fontColor=#6C767D;noLabel=0;" vertex="1" parent="wYJrxyhoSdgwNmsz03KT-203">
          <mxGeometry x="242" y="199" width="80" height="30" as="geometry" />
        </mxCell>
        <mxCell id="wYJrxyhoSdgwNmsz03KT-216" value="" style="html=1;shadow=0;dashed=0;shape=mxgraph.bootstrap.rrect;rSize=5;fillColor=none;strokeColor=#999999;align=left;spacing=15;fontSize=14;fontColor=#6C767D;noLabel=0;" vertex="1" parent="wYJrxyhoSdgwNmsz03KT-203">
          <mxGeometry x="242" y="247" width="80" height="30" as="geometry" />
        </mxCell>
        <mxCell id="wYJrxyhoSdgwNmsz03KT-217" value="Job Id" style="fillColor=none;strokeColor=none;align=left;fontSize=14;" vertex="1" parent="wYJrxyhoSdgwNmsz03KT-203">
          <mxGeometry x="242" y="72.99999999999977" width="80" height="30" as="geometry" />
        </mxCell>
        <mxCell id="wYJrxyhoSdgwNmsz03KT-218" value="Job Name" style="fillColor=none;strokeColor=none;align=left;fontSize=14;" vertex="1" parent="wYJrxyhoSdgwNmsz03KT-203">
          <mxGeometry x="398" y="72.99999999999977" width="320" height="30" as="geometry" />
        </mxCell>
        <mxCell id="wYJrxyhoSdgwNmsz03KT-277" value="" style="html=1;shadow=0;dashed=0;shape=mxgraph.bootstrap.rrect;rSize=5;fillColor=#6C757D;strokeColor=none;fontColor=#FFFFFF;fontSize=14;" vertex="1" parent="wYJrxyhoSdgwNmsz03KT-203">
          <mxGeometry x="339" y="109" width="48" height="30" as="geometry" />
        </mxCell>
        <mxCell id="wYJrxyhoSdgwNmsz03KT-232" value="Job Task Flow setup" style="html=1;shadow=0;dashed=0;shape=mxgraph.bootstrap.rrect;rSize=5;html=1;whiteSpace=wrap;verticalAlign=top;align=left;fontSize=18;spacing=15;spacingTop=-5;" vertex="1" parent="1">
          <mxGeometry x="1770" y="1008" width="1270" height="992" as="geometry" />
        </mxCell>
        <mxCell id="wYJrxyhoSdgwNmsz03KT-233" value="" style="shape=line;strokeColor=#dddddd;resizeWidth=1;" vertex="1" parent="wYJrxyhoSdgwNmsz03KT-232">
          <mxGeometry width="1270" height="10" relative="1" as="geometry">
            <mxPoint y="50" as="offset" />
          </mxGeometry>
        </mxCell>
        <mxCell id="wYJrxyhoSdgwNmsz03KT-234" value="" style="html=1;shadow=0;dashed=0;shape=mxgraph.bootstrap.x;strokeColor=#868686;strokeWidth=2;" vertex="1" parent="wYJrxyhoSdgwNmsz03KT-232">
          <mxGeometry x="1" width="8" height="8" relative="1" as="geometry">
            <mxPoint x="-24" y="20" as="offset" />
          </mxGeometry>
        </mxCell>
        <mxCell id="wYJrxyhoSdgwNmsz03KT-235" value="" style="shape=line;strokeColor=#dddddd;resizeWidth=1;" vertex="1" parent="wYJrxyhoSdgwNmsz03KT-232">
          <mxGeometry width="1270" height="10" relative="1" as="geometry">
            <mxPoint y="920" as="offset" />
          </mxGeometry>
        </mxCell>
        <mxCell id="wYJrxyhoSdgwNmsz03KT-236" value="Save changes" style="html=1;shadow=0;dashed=0;shape=mxgraph.bootstrap.rrect;rSize=5;fillColor=#0085FC;strokeColor=none;fontColor=#FFFFFF;fontSize=14;" vertex="1" parent="wYJrxyhoSdgwNmsz03KT-232">
          <mxGeometry x="1" y="1" width="110" height="40" relative="1" as="geometry">
            <mxPoint x="-185" y="-60" as="offset" />
          </mxGeometry>
        </mxCell>
        <mxCell id="wYJrxyhoSdgwNmsz03KT-237" value="Close" style="html=1;shadow=0;dashed=0;shape=mxgraph.bootstrap.rrect;rSize=5;fillColor=#6C757D;strokeColor=none;fontColor=#FFFFFF;fontSize=14;" vertex="1" parent="wYJrxyhoSdgwNmsz03KT-232">
          <mxGeometry x="1" y="1" width="70" height="40" relative="1" as="geometry">
            <mxPoint x="-263" y="-60" as="offset" />
          </mxGeometry>
        </mxCell>
        <mxCell id="wYJrxyhoSdgwNmsz03KT-238" value="" style="html=1;shadow=0;dashed=0;shape=mxgraph.bootstrap.rrect;rSize=5;strokeColor=#DFDFDF;html=1;whiteSpace=wrap;fillColor=#FFFFFF;fontColor=#000000;" vertex="1" parent="wYJrxyhoSdgwNmsz03KT-232">
          <mxGeometry x="50" y="68.46000000000001" width="1160" height="359.15403508771936" as="geometry" />
        </mxCell>
        <mxCell id="wYJrxyhoSdgwNmsz03KT-239" value="Job Details" style="html=1;shadow=0;dashed=0;shape=mxgraph.bootstrap.topButton;strokeColor=none;fillColor=#d5e8d4;rSize=5;perimeter=none;whiteSpace=wrap;resizeWidth=1;align=left;spacing=20;fontSize=14;" vertex="1" parent="wYJrxyhoSdgwNmsz03KT-238">
          <mxGeometry width="1160" height="40" relative="1" as="geometry" />
        </mxCell>
        <mxCell id="wYJrxyhoSdgwNmsz03KT-240" value="" style="html=1;shadow=0;dashed=0;shape=mxgraph.bootstrap.rrect;rSize=5;fillColor=none;strokeColor=#999999;align=left;spacing=15;fontSize=14;fontColor=#6C767D;" vertex="1" parent="wYJrxyhoSdgwNmsz03KT-238">
          <mxGeometry x="203" y="88.50085415789484" width="140" height="38.07017543859649" as="geometry" />
        </mxCell>
        <mxCell id="wYJrxyhoSdgwNmsz03KT-241" value="Job Id" style="fillColor=none;strokeColor=none;align=left;fontSize=14;" vertex="1" parent="wYJrxyhoSdgwNmsz03KT-238">
          <mxGeometry x="77" y="88.50085415789484" width="100" height="38.07017543859649" as="geometry" />
        </mxCell>
        <mxCell id="wYJrxyhoSdgwNmsz03KT-242" value="" style="html=1;shadow=0;dashed=0;shape=mxgraph.bootstrap.rrect;rSize=5;fillColor=#6C757D;strokeColor=none;fontColor=#FFFFFF;fontSize=14;" vertex="1" parent="wYJrxyhoSdgwNmsz03KT-238">
          <mxGeometry x="346" y="88.50085415789484" width="50" height="38.07017543859649" as="geometry" />
        </mxCell>
        <mxCell id="wYJrxyhoSdgwNmsz03KT-243" value="" style="html=1;shadow=0;dashed=0;shape=mxgraph.bootstrap.rrect;rSize=5;fillColor=none;strokeColor=#999999;align=left;spacing=15;fontSize=14;fontColor=#6C767D;" vertex="1" parent="wYJrxyhoSdgwNmsz03KT-238">
          <mxGeometry x="400" y="88.50085415789484" width="660" height="38.07017543859649" as="geometry" />
        </mxCell>
        <mxCell id="wYJrxyhoSdgwNmsz03KT-281" value="" style="html=1;shadow=0;dashed=0;shape=mxgraph.bootstrap.rrect;rSize=5;fillColor=none;strokeColor=#999999;align=left;spacing=15;fontSize=14;fontColor=#6C767D;" vertex="1" parent="wYJrxyhoSdgwNmsz03KT-238">
          <mxGeometry x="203" y="137.26331029824564" width="140" height="38.07017543859649" as="geometry" />
        </mxCell>
        <mxCell id="wYJrxyhoSdgwNmsz03KT-282" value="Task Flow ID" style="fillColor=none;strokeColor=none;align=left;fontSize=14;" vertex="1" parent="wYJrxyhoSdgwNmsz03KT-238">
          <mxGeometry x="77" y="126.57102959649131" width="100" height="38.07017543859649" as="geometry" />
        </mxCell>
        <mxCell id="wYJrxyhoSdgwNmsz03KT-283" value="" style="html=1;shadow=0;dashed=0;shape=mxgraph.bootstrap.rrect;rSize=5;fillColor=none;strokeColor=#999999;align=left;spacing=15;fontSize=14;fontColor=#6C767D;" vertex="1" parent="wYJrxyhoSdgwNmsz03KT-238">
          <mxGeometry x="680" y="137.26331029824564" width="380" height="38.07017543859649" as="geometry" />
        </mxCell>
        <mxCell id="wYJrxyhoSdgwNmsz03KT-284" value="Short Name" style="fillColor=none;strokeColor=none;align=left;fontSize=14;" vertex="1" parent="wYJrxyhoSdgwNmsz03KT-238">
          <mxGeometry x="560" y="137.26331029824564" width="100" height="38.07017543859649" as="geometry" />
        </mxCell>
        <mxCell id="wYJrxyhoSdgwNmsz03KT-285" value="Active" style="html=1;shadow=0;dashed=0;shape=mxgraph.bootstrap.rrect;rSize=5;strokeColor=none;strokeWidth=1;fillColor=#6C767D;fontColor=#ffffff;whiteSpace=wrap;align=left;verticalAlign=middle;fontStyle=0;fontSize=14;spacingLeft=10;" vertex="1" parent="wYJrxyhoSdgwNmsz03KT-238">
          <mxGeometry x="206" y="192.7329824561404" width="140" height="43.50877192982456" as="geometry" />
        </mxCell>
        <mxCell id="wYJrxyhoSdgwNmsz03KT-286" value="" style="shape=triangle;direction=south;fillColor=#ffffff;strokeColor=none;perimeter=none;" vertex="1" parent="wYJrxyhoSdgwNmsz03KT-285">
          <mxGeometry x="1" y="0.5" width="10" height="5" relative="1" as="geometry">
            <mxPoint x="-17" y="-2.5" as="offset" />
          </mxGeometry>
        </mxCell>
        <mxCell id="wYJrxyhoSdgwNmsz03KT-287" value="" style="swimlane;container=1;shape=mxgraph.bootstrap.rrect;rSize=5;strokeColor=#999999;fillColor=#ffffff;fontStyle=0;childLayout=stackLayout;horizontal=1;startSize=0;horizontalStack=0;resizeParent=1;resizeParentMax=0;resizeLast=0;collapsible=0;marginBottom=0;whiteSpace=wrap;html=1;" vertex="1" parent="wYJrxyhoSdgwNmsz03KT-238">
          <mxGeometry x="206" y="239.50491228070183" width="170" height="87.01754385964912" as="geometry" />
        </mxCell>
        <mxCell id="wYJrxyhoSdgwNmsz03KT-288" value="" style="text;align=center;verticalAlign=middle;spacingLeft=10;spacingRight=10;overflow=hidden;points=[[0,0.5],[1,0.5]];portConstraint=eastwest;rotatable=0;whiteSpace=wrap;html=1;fontColor=inherit;" vertex="1" parent="wYJrxyhoSdgwNmsz03KT-287">
          <mxGeometry width="170" height="10.87719298245614" as="geometry" />
        </mxCell>
        <mxCell id="wYJrxyhoSdgwNmsz03KT-289" value="Active" style="text;align=left;verticalAlign=middle;spacingLeft=10;spacingRight=10;overflow=hidden;points=[[0,0.5],[1,0.5]];portConstraint=eastwest;rotatable=0;whiteSpace=wrap;html=1;fontColor=inherit;fontSize=14;fontStyle=0;" vertex="1" parent="wYJrxyhoSdgwNmsz03KT-287">
          <mxGeometry y="10.87719298245614" width="170" height="32.631578947368425" as="geometry" />
        </mxCell>
        <mxCell id="wYJrxyhoSdgwNmsz03KT-290" value="Not Active" style="text;align=left;verticalAlign=middle;spacingLeft=10;spacingRight=10;overflow=hidden;points=[[0,0.5],[1,0.5]];portConstraint=eastwest;rotatable=0;whiteSpace=wrap;html=1;fontColor=inherit;fontSize=14;fontStyle=0;" vertex="1" parent="wYJrxyhoSdgwNmsz03KT-287">
          <mxGeometry y="43.50877192982456" width="170" height="32.631578947368425" as="geometry" />
        </mxCell>
        <mxCell id="wYJrxyhoSdgwNmsz03KT-292" value="" style="text;align=center;verticalAlign=middle;spacingLeft=10;spacingRight=10;overflow=hidden;points=[[0,0.5],[1,0.5]];portConstraint=eastwest;rotatable=0;whiteSpace=wrap;html=1;fontColor=inherit;" vertex="1" parent="wYJrxyhoSdgwNmsz03KT-287">
          <mxGeometry y="76.14035087719299" width="170" height="10.87719298245614" as="geometry" />
        </mxCell>
        <mxCell id="wYJrxyhoSdgwNmsz03KT-293" value="Task Flow Status" style="fillColor=none;strokeColor=none;align=left;fontSize=14;" vertex="1" parent="wYJrxyhoSdgwNmsz03KT-238">
          <mxGeometry x="77" y="192.73699450877194" width="100" height="38.07017543859649" as="geometry" />
        </mxCell>
        <mxCell id="wYJrxyhoSdgwNmsz03KT-244" value="" style="html=1;shadow=0;dashed=0;shape=mxgraph.bootstrap.rrect;rSize=5;strokeColor=#DFDFDF;html=1;whiteSpace=wrap;fillColor=#FFFFFF;fontColor=#000000;" vertex="1" parent="wYJrxyhoSdgwNmsz03KT-232">
          <mxGeometry x="49" y="445.46783625730995" width="1161" height="468.4444444444444" as="geometry" />
        </mxCell>
        <mxCell id="wYJrxyhoSdgwNmsz03KT-245" value="Job Task&amp;nbsp; Sequence Flow&amp;nbsp;" style="html=1;shadow=0;dashed=0;shape=mxgraph.bootstrap.topButton;strokeColor=inherit;fillColor=#F7F7F7;rSize=5;perimeter=none;whiteSpace=wrap;resizeWidth=1;align=left;spacing=20;fontSize=14;" vertex="1" parent="wYJrxyhoSdgwNmsz03KT-244">
          <mxGeometry width="1160" height="40" relative="1" as="geometry" />
        </mxCell>
        <mxCell id="wYJrxyhoSdgwNmsz03KT-246" value="" style="html=1;shadow=0;dashed=0;shape=mxgraph.bootstrap.rrect;rSize=5;fillColor=none;strokeColor=#999999;align=left;spacing=15;fontSize=14;fontColor=#6C767D;noLabel=0;" vertex="1" parent="wYJrxyhoSdgwNmsz03KT-244">
          <mxGeometry x="108" y="132.26666666666668" width="320" height="41.333333333333336" as="geometry" />
        </mxCell>
        <mxCell id="wYJrxyhoSdgwNmsz03KT-247" value="" style="html=1;shadow=0;dashed=0;shape=mxgraph.bootstrap.rrect;rSize=5;fillColor=none;strokeColor=#999999;align=left;spacing=15;fontSize=14;fontColor=#6C767D;" vertex="1" parent="wYJrxyhoSdgwNmsz03KT-244">
          <mxGeometry x="598" y="132.26666666666668" width="110" height="41.333333333333336" as="geometry" />
        </mxCell>
        <mxCell id="wYJrxyhoSdgwNmsz03KT-248" value="" style="html=1;shadow=0;dashed=0;shape=mxgraph.bootstrap.rrect;rSize=5;fillColor=none;strokeColor=#999999;align=left;spacing=15;fontSize=14;fontColor=#6C767D;noLabel=0;" vertex="1" parent="wYJrxyhoSdgwNmsz03KT-244">
          <mxGeometry x="108" y="192.88888888888889" width="320" height="41.333333333333336" as="geometry" />
        </mxCell>
        <mxCell id="wYJrxyhoSdgwNmsz03KT-249" value="" style="html=1;shadow=0;dashed=0;shape=mxgraph.bootstrap.rrect;rSize=5;fillColor=none;strokeColor=#999999;align=left;spacing=15;fontSize=14;fontColor=#6C767D;noLabel=0;" vertex="1" parent="wYJrxyhoSdgwNmsz03KT-244">
          <mxGeometry x="108" y="253.51111111111112" width="320" height="41.333333333333336" as="geometry" />
        </mxCell>
        <mxCell id="wYJrxyhoSdgwNmsz03KT-250" value="" style="html=1;shadow=0;dashed=0;shape=mxgraph.bootstrap.rrect;rSize=5;fillColor=none;strokeColor=#999999;align=left;spacing=15;fontSize=14;fontColor=#6C767D;noLabel=0;" vertex="1" parent="wYJrxyhoSdgwNmsz03KT-244">
          <mxGeometry x="108" y="319.64444444444445" width="320" height="41.333333333333336" as="geometry" />
        </mxCell>
        <mxCell id="wYJrxyhoSdgwNmsz03KT-251" value="" style="html=1;shadow=0;dashed=0;shape=mxgraph.bootstrap.rrect;rSize=5;fillColor=none;strokeColor=#999999;align=left;spacing=15;fontSize=14;fontColor=#6C767D;" vertex="1" parent="wYJrxyhoSdgwNmsz03KT-244">
          <mxGeometry x="598" y="192.88888888888889" width="110" height="41.333333333333336" as="geometry" />
        </mxCell>
        <mxCell id="wYJrxyhoSdgwNmsz03KT-252" value="" style="html=1;shadow=0;dashed=0;shape=mxgraph.bootstrap.rrect;rSize=5;fillColor=none;strokeColor=#999999;align=left;spacing=15;fontSize=14;fontColor=#6C767D;" vertex="1" parent="wYJrxyhoSdgwNmsz03KT-244">
          <mxGeometry x="598" y="253.51111111111112" width="110" height="41.333333333333336" as="geometry" />
        </mxCell>
        <mxCell id="wYJrxyhoSdgwNmsz03KT-253" value="" style="html=1;shadow=0;dashed=0;shape=mxgraph.bootstrap.rrect;rSize=5;fillColor=none;strokeColor=#999999;align=left;spacing=15;fontSize=14;fontColor=#6C767D;" vertex="1" parent="wYJrxyhoSdgwNmsz03KT-244">
          <mxGeometry x="598" y="319.64444444444445" width="110" height="41.333333333333336" as="geometry" />
        </mxCell>
        <mxCell id="wYJrxyhoSdgwNmsz03KT-254" value="" style="html=1;shadow=0;dashed=0;shape=mxgraph.bootstrap.rrect;rSize=5;fillColor=none;strokeColor=#999999;align=left;spacing=15;fontSize=14;fontColor=#6C767D;noLabel=0;" vertex="1" parent="wYJrxyhoSdgwNmsz03KT-244">
          <mxGeometry x="21" y="132.26666666666668" width="80" height="41.333333333333336" as="geometry" />
        </mxCell>
        <mxCell id="wYJrxyhoSdgwNmsz03KT-255" value="" style="html=1;shadow=0;dashed=0;shape=mxgraph.bootstrap.rrect;rSize=5;fillColor=none;strokeColor=#999999;align=left;spacing=15;fontSize=14;fontColor=#6C767D;noLabel=0;" vertex="1" parent="wYJrxyhoSdgwNmsz03KT-244">
          <mxGeometry x="21" y="192.88888888888889" width="80" height="41.333333333333336" as="geometry" />
        </mxCell>
        <mxCell id="wYJrxyhoSdgwNmsz03KT-256" value="" style="html=1;shadow=0;dashed=0;shape=mxgraph.bootstrap.rrect;rSize=5;fillColor=none;strokeColor=#999999;align=left;spacing=15;fontSize=14;fontColor=#6C767D;noLabel=0;" vertex="1" parent="wYJrxyhoSdgwNmsz03KT-244">
          <mxGeometry x="21" y="253.51111111111112" width="80" height="41.333333333333336" as="geometry" />
        </mxCell>
        <mxCell id="wYJrxyhoSdgwNmsz03KT-257" value="" style="html=1;shadow=0;dashed=0;shape=mxgraph.bootstrap.rrect;rSize=5;fillColor=none;strokeColor=#999999;align=left;spacing=15;fontSize=14;fontColor=#6C767D;noLabel=0;" vertex="1" parent="wYJrxyhoSdgwNmsz03KT-244">
          <mxGeometry x="21" y="319.64444444444445" width="80" height="41.333333333333336" as="geometry" />
        </mxCell>
        <mxCell id="wYJrxyhoSdgwNmsz03KT-258" value="TaskÂ &#xa;Sequence" style="fillColor=none;strokeColor=none;align=left;fontSize=14;" vertex="1" parent="wYJrxyhoSdgwNmsz03KT-244">
          <mxGeometry x="21" y="82.66666666666634" width="80" height="41.333333333333336" as="geometry" />
        </mxCell>
        <mxCell id="wYJrxyhoSdgwNmsz03KT-259" value="Description" style="fillColor=none;strokeColor=none;align=left;fontSize=14;" vertex="1" parent="wYJrxyhoSdgwNmsz03KT-244">
          <mxGeometry x="113" y="82.67" width="307" height="41.33" as="geometry" />
        </mxCell>
        <mxCell id="wYJrxyhoSdgwNmsz03KT-260" value="Duration" style="fillColor=none;strokeColor=none;align=left;fontSize=14;" vertex="1" parent="wYJrxyhoSdgwNmsz03KT-244">
          <mxGeometry x="598" y="82.67" width="110" height="41.33" as="geometry" />
        </mxCell>
        <mxCell id="wYJrxyhoSdgwNmsz03KT-261" value="Hours" style="html=1;shadow=0;dashed=0;shape=mxgraph.bootstrap.rrect;rSize=5;strokeColor=none;strokeWidth=1;fillColor=#6C767D;fontColor=#ffffff;whiteSpace=wrap;align=left;verticalAlign=middle;fontStyle=0;fontSize=14;spacingLeft=10;" vertex="1" parent="wYJrxyhoSdgwNmsz03KT-244">
          <mxGeometry x="718" y="132.26666666666668" width="130" height="41.333333333333336" as="geometry" />
        </mxCell>
        <mxCell id="wYJrxyhoSdgwNmsz03KT-262" value="" style="shape=triangle;direction=north;fillColor=#ffffff;strokeColor=none;perimeter=none;" vertex="1" parent="wYJrxyhoSdgwNmsz03KT-261">
          <mxGeometry x="1" y="0.5" width="10" height="5" relative="1" as="geometry">
            <mxPoint x="-17" y="-2.5" as="offset" />
          </mxGeometry>
        </mxCell>
        <mxCell id="wYJrxyhoSdgwNmsz03KT-263" value="" style="html=1;shadow=0;dashed=0;shape=mxgraph.bootstrap.rrect;rSize=5;strokeColor=none;strokeWidth=1;fillColor=#6C767D;fontColor=#ffffff;whiteSpace=wrap;align=left;verticalAlign=middle;fontStyle=0;fontSize=14;spacingLeft=10;" vertex="1" parent="wYJrxyhoSdgwNmsz03KT-244">
          <mxGeometry x="718" y="192.88888888888889" width="130" height="41.333333333333336" as="geometry" />
        </mxCell>
        <mxCell id="wYJrxyhoSdgwNmsz03KT-264" value="" style="shape=triangle;direction=north;fillColor=#ffffff;strokeColor=none;perimeter=none;" vertex="1" parent="wYJrxyhoSdgwNmsz03KT-263">
          <mxGeometry x="1" y="0.5" width="10" height="5" relative="1" as="geometry">
            <mxPoint x="-17" y="-2.5" as="offset" />
          </mxGeometry>
        </mxCell>
        <mxCell id="wYJrxyhoSdgwNmsz03KT-265" value="" style="html=1;shadow=0;dashed=0;shape=mxgraph.bootstrap.rrect;rSize=5;strokeColor=none;strokeWidth=1;fillColor=#6C767D;fontColor=#ffffff;whiteSpace=wrap;align=left;verticalAlign=middle;fontStyle=0;fontSize=14;spacingLeft=10;" vertex="1" parent="wYJrxyhoSdgwNmsz03KT-244">
          <mxGeometry x="718" y="253.51111111111112" width="130" height="41.333333333333336" as="geometry" />
        </mxCell>
        <mxCell id="wYJrxyhoSdgwNmsz03KT-266" value="" style="shape=triangle;direction=north;fillColor=#ffffff;strokeColor=none;perimeter=none;" vertex="1" parent="wYJrxyhoSdgwNmsz03KT-265">
          <mxGeometry x="1" y="0.5" width="10" height="5" relative="1" as="geometry">
            <mxPoint x="-17" y="-2.5" as="offset" />
          </mxGeometry>
        </mxCell>
        <mxCell id="wYJrxyhoSdgwNmsz03KT-267" value="" style="html=1;shadow=0;dashed=0;shape=mxgraph.bootstrap.rrect;rSize=5;strokeColor=none;strokeWidth=1;fillColor=#6C767D;fontColor=#ffffff;whiteSpace=wrap;align=left;verticalAlign=middle;fontStyle=0;fontSize=14;spacingLeft=10;" vertex="1" parent="wYJrxyhoSdgwNmsz03KT-244">
          <mxGeometry x="718" y="319.64444444444445" width="130" height="41.333333333333336" as="geometry" />
        </mxCell>
        <mxCell id="wYJrxyhoSdgwNmsz03KT-268" value="" style="shape=triangle;direction=north;fillColor=#ffffff;strokeColor=none;perimeter=none;" vertex="1" parent="wYJrxyhoSdgwNmsz03KT-267">
          <mxGeometry x="1" y="0.5" width="10" height="5" relative="1" as="geometry">
            <mxPoint x="-17" y="-2.5" as="offset" />
          </mxGeometry>
        </mxCell>
        <mxCell id="wYJrxyhoSdgwNmsz03KT-269" value="Time type" style="fillColor=none;strokeColor=none;align=left;fontSize=14;" vertex="1" parent="wYJrxyhoSdgwNmsz03KT-244">
          <mxGeometry x="718" y="82.66666666666634" width="130" height="41.333333333333336" as="geometry" />
        </mxCell>
        <mxCell id="wYJrxyhoSdgwNmsz03KT-530" value="Fixed" style="html=1;shadow=0;dashed=0;shape=mxgraph.bootstrap.rrect;rSize=5;strokeColor=none;strokeWidth=1;fillColor=#6C767D;fontColor=#ffffff;whiteSpace=wrap;align=left;verticalAlign=middle;fontStyle=0;fontSize=14;spacingLeft=10;" vertex="1" parent="wYJrxyhoSdgwNmsz03KT-244">
          <mxGeometry x="431" y="132.26666666666665" width="130" height="41.333333333333336" as="geometry" />
        </mxCell>
        <mxCell id="wYJrxyhoSdgwNmsz03KT-531" value="" style="shape=triangle;direction=north;fillColor=#ffffff;strokeColor=none;perimeter=none;" vertex="1" parent="wYJrxyhoSdgwNmsz03KT-530">
          <mxGeometry x="1" y="0.5" width="10" height="5" relative="1" as="geometry">
            <mxPoint x="-17" y="-2.5" as="offset" />
          </mxGeometry>
        </mxCell>
        <mxCell id="wYJrxyhoSdgwNmsz03KT-532" value="" style="html=1;shadow=0;dashed=0;shape=mxgraph.bootstrap.rrect;rSize=5;strokeColor=none;strokeWidth=1;fillColor=#6C767D;fontColor=#ffffff;whiteSpace=wrap;align=left;verticalAlign=middle;fontStyle=0;fontSize=14;spacingLeft=10;" vertex="1" parent="wYJrxyhoSdgwNmsz03KT-244">
          <mxGeometry x="431" y="192.8888888888889" width="130" height="41.333333333333336" as="geometry" />
        </mxCell>
        <mxCell id="wYJrxyhoSdgwNmsz03KT-533" value="" style="shape=triangle;direction=north;fillColor=#ffffff;strokeColor=none;perimeter=none;" vertex="1" parent="wYJrxyhoSdgwNmsz03KT-532">
          <mxGeometry x="1" y="0.5" width="10" height="5" relative="1" as="geometry">
            <mxPoint x="-17" y="-2.5" as="offset" />
          </mxGeometry>
        </mxCell>
        <mxCell id="wYJrxyhoSdgwNmsz03KT-534" value="" style="html=1;shadow=0;dashed=0;shape=mxgraph.bootstrap.rrect;rSize=5;strokeColor=none;strokeWidth=1;fillColor=#6C767D;fontColor=#ffffff;whiteSpace=wrap;align=left;verticalAlign=middle;fontStyle=0;fontSize=14;spacingLeft=10;" vertex="1" parent="wYJrxyhoSdgwNmsz03KT-244">
          <mxGeometry x="431" y="253.51111111111118" width="130" height="41.333333333333336" as="geometry" />
        </mxCell>
        <mxCell id="wYJrxyhoSdgwNmsz03KT-535" value="" style="shape=triangle;direction=north;fillColor=#ffffff;strokeColor=none;perimeter=none;" vertex="1" parent="wYJrxyhoSdgwNmsz03KT-534">
          <mxGeometry x="1" y="0.5" width="10" height="5" relative="1" as="geometry">
            <mxPoint x="-17" y="-2.5" as="offset" />
          </mxGeometry>
        </mxCell>
        <mxCell id="wYJrxyhoSdgwNmsz03KT-536" value="" style="html=1;shadow=0;dashed=0;shape=mxgraph.bootstrap.rrect;rSize=5;strokeColor=none;strokeWidth=1;fillColor=#6C767D;fontColor=#ffffff;whiteSpace=wrap;align=left;verticalAlign=middle;fontStyle=0;fontSize=14;spacingLeft=10;" vertex="1" parent="wYJrxyhoSdgwNmsz03KT-244">
          <mxGeometry x="431" y="319.6444444444444" width="130" height="41.333333333333336" as="geometry" />
        </mxCell>
        <mxCell id="wYJrxyhoSdgwNmsz03KT-537" value="" style="shape=triangle;direction=north;fillColor=#ffffff;strokeColor=none;perimeter=none;" vertex="1" parent="wYJrxyhoSdgwNmsz03KT-536">
          <mxGeometry x="1" y="0.5" width="10" height="5" relative="1" as="geometry">
            <mxPoint x="-17" y="-2.5" as="offset" />
          </mxGeometry>
        </mxCell>
        <mxCell id="wYJrxyhoSdgwNmsz03KT-538" value="Duration type" style="fillColor=none;strokeColor=none;align=left;fontSize=14;" vertex="1" parent="wYJrxyhoSdgwNmsz03KT-244">
          <mxGeometry x="431" y="82.66666666666629" width="130" height="41.333333333333336" as="geometry" />
        </mxCell>
        <mxCell id="wYJrxyhoSdgwNmsz03KT-539" value="" style="swimlane;fontStyle=0;childLayout=stackLayout;horizontal=1;startSize=0;horizontalStack=0;resizeParent=1;resizeParentMax=0;resizeLast=0;collapsible=0;marginBottom=0;whiteSpace=wrap;html=1;strokeColor=none;fillColor=none;" vertex="1" parent="wYJrxyhoSdgwNmsz03KT-244">
          <mxGeometry x="530" y="152.42222222222222" width="129" height="82.66666666666667" as="geometry" />
        </mxCell>
        <mxCell id="wYJrxyhoSdgwNmsz03KT-540" value="Fixed" style="text;strokeColor=#DFDFDF;fillColor=#FFFFFF;align=left;verticalAlign=middle;spacingLeft=10;spacingRight=10;overflow=hidden;points=[[0,0.5],[1,0.5]];portConstraint=eastwest;rotatable=0;whiteSpace=wrap;html=1;shape=mxgraph.bootstrap.topButton;rSize=5;fontColor=#333333;" vertex="1" parent="wYJrxyhoSdgwNmsz03KT-539">
          <mxGeometry width="129" height="41.333333333333336" as="geometry" />
        </mxCell>
        <mxCell id="wYJrxyhoSdgwNmsz03KT-541" value="Open" style="text;strokeColor=#DFDFDF;fillColor=#FFFFFF;align=left;verticalAlign=middle;spacingLeft=10;spacingRight=10;overflow=hidden;points=[[0,0.5],[1,0.5]];portConstraint=eastwest;rotatable=0;whiteSpace=wrap;html=1;rSize=5;fontColor=#333333;" vertex="1" parent="wYJrxyhoSdgwNmsz03KT-539">
          <mxGeometry y="41.333333333333336" width="129" height="41.333333333333336" as="geometry" />
        </mxCell>
        <mxCell id="wYJrxyhoSdgwNmsz03KT-542" value="Yes" style="html=1;shadow=0;dashed=0;shape=mxgraph.bootstrap.rrect;rSize=5;strokeColor=none;strokeWidth=1;fillColor=#6C767D;fontColor=#ffffff;whiteSpace=wrap;align=left;verticalAlign=middle;fontStyle=0;fontSize=14;spacingLeft=10;" vertex="1" parent="wYJrxyhoSdgwNmsz03KT-244">
          <mxGeometry x="861" y="132.26666666666665" width="130" height="41.333333333333336" as="geometry" />
        </mxCell>
        <mxCell id="wYJrxyhoSdgwNmsz03KT-543" value="" style="shape=triangle;direction=north;fillColor=#ffffff;strokeColor=none;perimeter=none;" vertex="1" parent="wYJrxyhoSdgwNmsz03KT-542">
          <mxGeometry x="1" y="0.5" width="10" height="5" relative="1" as="geometry">
            <mxPoint x="-17" y="-2.5" as="offset" />
          </mxGeometry>
        </mxCell>
        <mxCell id="wYJrxyhoSdgwNmsz03KT-544" value="" style="html=1;shadow=0;dashed=0;shape=mxgraph.bootstrap.rrect;rSize=5;strokeColor=none;strokeWidth=1;fillColor=#6C767D;fontColor=#ffffff;whiteSpace=wrap;align=left;verticalAlign=middle;fontStyle=0;fontSize=14;spacingLeft=10;" vertex="1" parent="wYJrxyhoSdgwNmsz03KT-244">
          <mxGeometry x="861" y="192.8888888888889" width="130" height="41.333333333333336" as="geometry" />
        </mxCell>
        <mxCell id="wYJrxyhoSdgwNmsz03KT-545" value="" style="shape=triangle;direction=north;fillColor=#ffffff;strokeColor=none;perimeter=none;" vertex="1" parent="wYJrxyhoSdgwNmsz03KT-544">
          <mxGeometry x="1" y="0.5" width="10" height="5" relative="1" as="geometry">
            <mxPoint x="-17" y="-2.5" as="offset" />
          </mxGeometry>
        </mxCell>
        <mxCell id="wYJrxyhoSdgwNmsz03KT-546" value="" style="html=1;shadow=0;dashed=0;shape=mxgraph.bootstrap.rrect;rSize=5;strokeColor=none;strokeWidth=1;fillColor=#6C767D;fontColor=#ffffff;whiteSpace=wrap;align=left;verticalAlign=middle;fontStyle=0;fontSize=14;spacingLeft=10;" vertex="1" parent="wYJrxyhoSdgwNmsz03KT-244">
          <mxGeometry x="861" y="253.51111111111118" width="130" height="41.333333333333336" as="geometry" />
        </mxCell>
        <mxCell id="wYJrxyhoSdgwNmsz03KT-547" value="" style="shape=triangle;direction=north;fillColor=#ffffff;strokeColor=none;perimeter=none;" vertex="1" parent="wYJrxyhoSdgwNmsz03KT-546">
          <mxGeometry x="1" y="0.5" width="10" height="5" relative="1" as="geometry">
            <mxPoint x="-17" y="-2.5" as="offset" />
          </mxGeometry>
        </mxCell>
        <mxCell id="wYJrxyhoSdgwNmsz03KT-548" value="" style="html=1;shadow=0;dashed=0;shape=mxgraph.bootstrap.rrect;rSize=5;strokeColor=none;strokeWidth=1;fillColor=#6C767D;fontColor=#ffffff;whiteSpace=wrap;align=left;verticalAlign=middle;fontStyle=0;fontSize=14;spacingLeft=10;" vertex="1" parent="wYJrxyhoSdgwNmsz03KT-244">
          <mxGeometry x="861" y="319.6444444444444" width="130" height="41.333333333333336" as="geometry" />
        </mxCell>
        <mxCell id="wYJrxyhoSdgwNmsz03KT-549" value="" style="shape=triangle;direction=north;fillColor=#ffffff;strokeColor=none;perimeter=none;" vertex="1" parent="wYJrxyhoSdgwNmsz03KT-548">
          <mxGeometry x="1" y="0.5" width="10" height="5" relative="1" as="geometry">
            <mxPoint x="-17" y="-2.5" as="offset" />
          </mxGeometry>
        </mxCell>
        <mxCell id="wYJrxyhoSdgwNmsz03KT-550" value="Enforce Sequence" style="fillColor=none;strokeColor=none;align=left;fontSize=14;" vertex="1" parent="wYJrxyhoSdgwNmsz03KT-244">
          <mxGeometry x="861" y="82.66666666666629" width="130" height="41.333333333333336" as="geometry" />
        </mxCell>
        <mxCell id="wYJrxyhoSdgwNmsz03KT-551" value="" style="swimlane;fontStyle=0;childLayout=stackLayout;horizontal=1;startSize=0;horizontalStack=0;resizeParent=1;resizeParentMax=0;resizeLast=0;collapsible=0;marginBottom=0;whiteSpace=wrap;html=1;strokeColor=none;fillColor=none;" vertex="1" parent="wYJrxyhoSdgwNmsz03KT-244">
          <mxGeometry x="983" y="147.42" width="87" height="82.66666666666667" as="geometry" />
        </mxCell>
        <mxCell id="wYJrxyhoSdgwNmsz03KT-552" value="Yes" style="text;strokeColor=#DFDFDF;fillColor=#FFFFFF;align=left;verticalAlign=middle;spacingLeft=10;spacingRight=10;overflow=hidden;points=[[0,0.5],[1,0.5]];portConstraint=eastwest;rotatable=0;whiteSpace=wrap;html=1;shape=mxgraph.bootstrap.topButton;rSize=5;fontColor=#333333;" vertex="1" parent="wYJrxyhoSdgwNmsz03KT-551">
          <mxGeometry width="87" height="41.333333333333336" as="geometry" />
        </mxCell>
        <mxCell id="wYJrxyhoSdgwNmsz03KT-553" value="No" style="text;strokeColor=#DFDFDF;fillColor=#FFFFFF;align=left;verticalAlign=middle;spacingLeft=10;spacingRight=10;overflow=hidden;points=[[0,0.5],[1,0.5]];portConstraint=eastwest;rotatable=0;whiteSpace=wrap;html=1;rSize=5;fontColor=#333333;" vertex="1" parent="wYJrxyhoSdgwNmsz03KT-551">
          <mxGeometry y="41.333333333333336" width="87" height="41.333333333333336" as="geometry" />
        </mxCell>
        <mxCell id="wYJrxyhoSdgwNmsz03KT-270" value="" style="swimlane;fontStyle=0;childLayout=stackLayout;horizontal=1;startSize=0;horizontalStack=0;resizeParent=1;resizeParentMax=0;resizeLast=0;collapsible=0;marginBottom=0;whiteSpace=wrap;html=1;strokeColor=none;fillColor=none;" vertex="1" parent="wYJrxyhoSdgwNmsz03KT-244">
          <mxGeometry x="746" y="163.42" width="107" height="82.66666666666667" as="geometry" />
        </mxCell>
        <mxCell id="wYJrxyhoSdgwNmsz03KT-271" value="Hours" style="text;strokeColor=#DFDFDF;fillColor=#FFFFFF;align=left;verticalAlign=middle;spacingLeft=10;spacingRight=10;overflow=hidden;points=[[0,0.5],[1,0.5]];portConstraint=eastwest;rotatable=0;whiteSpace=wrap;html=1;shape=mxgraph.bootstrap.topButton;rSize=5;fontColor=#333333;" vertex="1" parent="wYJrxyhoSdgwNmsz03KT-270">
          <mxGeometry width="107" height="41.333333333333336" as="geometry" />
        </mxCell>
        <mxCell id="wYJrxyhoSdgwNmsz03KT-272" value="Days" style="text;strokeColor=#DFDFDF;fillColor=#FFFFFF;align=left;verticalAlign=middle;spacingLeft=10;spacingRight=10;overflow=hidden;points=[[0,0.5],[1,0.5]];portConstraint=eastwest;rotatable=0;whiteSpace=wrap;html=1;rSize=5;fontColor=#333333;" vertex="1" parent="wYJrxyhoSdgwNmsz03KT-270">
          <mxGeometry y="41.333333333333336" width="107" height="41.333333333333336" as="geometry" />
        </mxCell>
        <mxCell id="wYJrxyhoSdgwNmsz03KT-273" value="" style="html=1;shadow=0;dashed=0;shape=mxgraph.bootstrap.rrect;rSize=5;fillColor=none;strokeColor=#999999;align=left;spacing=15;fontSize=14;fontColor=#6C767D;" vertex="1" parent="1">
          <mxGeometry x="2012" y="441.42857142857156" width="140" height="34.285714285714285" as="geometry" />
        </mxCell>
        <mxCell id="wYJrxyhoSdgwNmsz03KT-274" value="" style="html=1;shadow=0;dashed=0;shape=mxgraph.bootstrap.rrect;rSize=5;fillColor=#6C757D;strokeColor=none;fontColor=#FFFFFF;fontSize=14;" vertex="1" parent="1">
          <mxGeometry x="2155" y="438.56857142857143" width="50" height="42.86" as="geometry" />
        </mxCell>
        <mxCell id="wYJrxyhoSdgwNmsz03KT-275" value="" style="html=1;shadow=0;dashed=0;shape=mxgraph.bootstrap.rrect;rSize=5;fillColor=none;strokeColor=#999999;align=left;spacing=15;fontSize=14;fontColor=#6C767D;" vertex="1" parent="1">
          <mxGeometry x="2209" y="444.27857142857147" width="660" height="34.29" as="geometry" />
        </mxCell>
        <mxCell id="wYJrxyhoSdgwNmsz03KT-276" value="Sub category" style="fillColor=none;strokeColor=none;align=left;fontSize=14;" vertex="1" parent="1">
          <mxGeometry x="1907" y="446.42999999999984" width="100" height="30" as="geometry" />
        </mxCell>
        <mxCell id="wYJrxyhoSdgwNmsz03KT-278" value="" style="html=1;shadow=0;dashed=0;shape=mxgraph.bootstrap.rrect;rSize=5;fillColor=#6C757D;strokeColor=none;fontColor=#FFFFFF;fontSize=14;" vertex="1" parent="1">
          <mxGeometry x="2148" y="672" width="48" height="30" as="geometry" />
        </mxCell>
        <mxCell id="wYJrxyhoSdgwNmsz03KT-279" value="" style="html=1;shadow=0;dashed=0;shape=mxgraph.bootstrap.rrect;rSize=5;fillColor=#6C757D;strokeColor=none;fontColor=#FFFFFF;fontSize=14;" vertex="1" parent="1">
          <mxGeometry x="2148" y="715" width="48" height="30" as="geometry" />
        </mxCell>
        <mxCell id="wYJrxyhoSdgwNmsz03KT-280" value="" style="html=1;shadow=0;dashed=0;shape=mxgraph.bootstrap.rrect;rSize=5;fillColor=#6C757D;strokeColor=none;fontColor=#FFFFFF;fontSize=14;" vertex="1" parent="1">
          <mxGeometry x="2148" y="767" width="48" height="30" as="geometry" />
        </mxCell>
        <mxCell id="wYJrxyhoSdgwNmsz03KT-294" value="User Job Link" style="html=1;shadow=0;dashed=0;shape=mxgraph.bootstrap.rrect;rSize=5;html=1;whiteSpace=wrap;verticalAlign=top;align=left;fontSize=18;spacing=15;spacingTop=-5;" vertex="1" parent="1">
          <mxGeometry x="3121" y="237" width="965" height="720" as="geometry" />
        </mxCell>
        <mxCell id="wYJrxyhoSdgwNmsz03KT-295" value="" style="shape=line;strokeColor=#dddddd;resizeWidth=1;" vertex="1" parent="wYJrxyhoSdgwNmsz03KT-294">
          <mxGeometry width="965.0000000000001" height="10" relative="1" as="geometry">
            <mxPoint y="50" as="offset" />
          </mxGeometry>
        </mxCell>
        <mxCell id="wYJrxyhoSdgwNmsz03KT-296" value="" style="html=1;shadow=0;dashed=0;shape=mxgraph.bootstrap.x;strokeColor=#868686;strokeWidth=2;" vertex="1" parent="wYJrxyhoSdgwNmsz03KT-294">
          <mxGeometry x="1" width="8" height="8" relative="1" as="geometry">
            <mxPoint x="-24" y="20" as="offset" />
          </mxGeometry>
        </mxCell>
        <mxCell id="wYJrxyhoSdgwNmsz03KT-297" value="" style="shape=line;strokeColor=#dddddd;resizeWidth=1;" vertex="1" parent="wYJrxyhoSdgwNmsz03KT-294">
          <mxGeometry width="965.0000000000001" height="10" relative="1" as="geometry">
            <mxPoint y="642" as="offset" />
          </mxGeometry>
        </mxCell>
        <mxCell id="wYJrxyhoSdgwNmsz03KT-298" value="Save changes" style="html=1;shadow=0;dashed=0;shape=mxgraph.bootstrap.rrect;rSize=5;fillColor=#0085FC;strokeColor=none;fontColor=#FFFFFF;fontSize=14;" vertex="1" parent="wYJrxyhoSdgwNmsz03KT-294">
          <mxGeometry x="1" y="1" width="110" height="40" relative="1" as="geometry">
            <mxPoint x="-185" y="-60" as="offset" />
          </mxGeometry>
        </mxCell>
        <mxCell id="wYJrxyhoSdgwNmsz03KT-299" value="Close" style="html=1;shadow=0;dashed=0;shape=mxgraph.bootstrap.rrect;rSize=5;fillColor=#6C757D;strokeColor=none;fontColor=#FFFFFF;fontSize=14;" vertex="1" parent="wYJrxyhoSdgwNmsz03KT-294">
          <mxGeometry x="1" y="1" width="70" height="40" relative="1" as="geometry">
            <mxPoint x="-263" y="-60" as="offset" />
          </mxGeometry>
        </mxCell>
        <mxCell id="wYJrxyhoSdgwNmsz03KT-300" value="" style="html=1;shadow=0;dashed=0;shape=mxgraph.bootstrap.rrect;rSize=5;strokeColor=#DFDFDF;html=1;whiteSpace=wrap;fillColor=#FFFFFF;fontColor=#000000;" vertex="1" parent="wYJrxyhoSdgwNmsz03KT-294">
          <mxGeometry x="37.99212598425198" y="91.42857142857142" width="881.4173228346458" height="255.36388471177943" as="geometry" />
        </mxCell>
        <mxCell id="wYJrxyhoSdgwNmsz03KT-301" value="User info" style="html=1;shadow=0;dashed=0;shape=mxgraph.bootstrap.topButton;strokeColor=none;fillColor=#d5e8d4;rSize=5;perimeter=none;whiteSpace=wrap;resizeWidth=1;align=left;spacing=20;fontSize=14;" vertex="1" parent="wYJrxyhoSdgwNmsz03KT-300">
          <mxGeometry width="881.4173228346458" height="40" relative="1" as="geometry" />
        </mxCell>
        <mxCell id="wYJrxyhoSdgwNmsz03KT-302" value="" style="html=1;shadow=0;dashed=0;shape=mxgraph.bootstrap.rrect;rSize=5;fillColor=none;strokeColor=#999999;align=left;spacing=15;fontSize=14;fontColor=#6C767D;" vertex="1" parent="wYJrxyhoSdgwNmsz03KT-300">
          <mxGeometry x="151.9685039370079" y="67" width="106.37795275590553" height="34.285714285714285" as="geometry" />
        </mxCell>
        <mxCell id="wYJrxyhoSdgwNmsz03KT-303" value="Employee Code" style="fillColor=none;strokeColor=none;align=left;fontSize=14;" vertex="1" parent="wYJrxyhoSdgwNmsz03KT-300">
          <mxGeometry x="46.425196850393704" y="67.0014285714285" width="75.98425196850395" height="30" as="geometry" />
        </mxCell>
        <mxCell id="wYJrxyhoSdgwNmsz03KT-304" value="" style="html=1;shadow=0;dashed=0;shape=mxgraph.bootstrap.rrect;rSize=5;fillColor=#6C757D;strokeColor=none;fontColor=#FFFFFF;fontSize=14;" vertex="1" parent="wYJrxyhoSdgwNmsz03KT-300">
          <mxGeometry x="262.90551181102364" y="64.14" width="37.99212598425198" height="42.86" as="geometry" />
        </mxCell>
        <mxCell id="wYJrxyhoSdgwNmsz03KT-305" value="" style="html=1;shadow=0;dashed=0;shape=mxgraph.bootstrap.rrect;rSize=5;fillColor=none;strokeColor=#999999;align=left;spacing=15;fontSize=14;fontColor=#6C767D;" vertex="1" parent="wYJrxyhoSdgwNmsz03KT-300">
          <mxGeometry x="303.9370078740158" y="69.85" width="501.49606299212604" height="34.29" as="geometry" />
        </mxCell>
        <mxCell id="wYJrxyhoSdgwNmsz03KT-319" value="" style="html=1;shadow=0;dashed=0;shape=mxgraph.bootstrap.rrect;rSize=5;fillColor=none;strokeColor=#999999;align=left;spacing=15;fontSize=14;fontColor=#6C767D;" vertex="1" parent="wYJrxyhoSdgwNmsz03KT-300">
          <mxGeometry x="151.9685039370079" y="118.57" width="106.37795275590553" height="34.285714285714285" as="geometry" />
        </mxCell>
        <mxCell id="wYJrxyhoSdgwNmsz03KT-320" value="User Id" style="fillColor=none;strokeColor=none;align=left;fontSize=14;" vertex="1" parent="wYJrxyhoSdgwNmsz03KT-300">
          <mxGeometry x="71.4251968503937" y="118.5714285714285" width="75.98425196850395" height="30" as="geometry" />
        </mxCell>
        <mxCell id="wYJrxyhoSdgwNmsz03KT-375" value="Active" style="html=1;shadow=0;dashed=0;shape=mxgraph.bootstrap.rrect;rSize=5;strokeColor=none;strokeWidth=1;fillColor=#6C767D;fontColor=#ffffff;whiteSpace=wrap;align=left;verticalAlign=middle;fontStyle=0;fontSize=14;spacingLeft=10;" vertex="1" parent="wYJrxyhoSdgwNmsz03KT-300">
          <mxGeometry x="667.0078740157478" y="121.574411027569" width="140" height="43.50877192982456" as="geometry" />
        </mxCell>
        <mxCell id="wYJrxyhoSdgwNmsz03KT-376" value="" style="shape=triangle;direction=south;fillColor=#ffffff;strokeColor=none;perimeter=none;" vertex="1" parent="wYJrxyhoSdgwNmsz03KT-375">
          <mxGeometry x="1" y="0.5" width="10" height="5" relative="1" as="geometry">
            <mxPoint x="-17" y="-2.5" as="offset" />
          </mxGeometry>
        </mxCell>
        <mxCell id="wYJrxyhoSdgwNmsz03KT-377" value="" style="swimlane;container=1;shape=mxgraph.bootstrap.rrect;rSize=5;strokeColor=#999999;fillColor=#ffffff;fontStyle=0;childLayout=stackLayout;horizontal=1;startSize=0;horizontalStack=0;resizeParent=1;resizeParentMax=0;resizeLast=0;collapsible=0;marginBottom=0;whiteSpace=wrap;html=1;" vertex="1" parent="wYJrxyhoSdgwNmsz03KT-300">
          <mxGeometry x="769.01" y="120.35" width="100.99" height="87.01754385964912" as="geometry" />
        </mxCell>
        <mxCell id="wYJrxyhoSdgwNmsz03KT-378" value="" style="text;align=center;verticalAlign=middle;spacingLeft=10;spacingRight=10;overflow=hidden;points=[[0,0.5],[1,0.5]];portConstraint=eastwest;rotatable=0;whiteSpace=wrap;html=1;fontColor=inherit;" vertex="1" parent="wYJrxyhoSdgwNmsz03KT-377">
          <mxGeometry width="100.99" height="10.87719298245614" as="geometry" />
        </mxCell>
        <mxCell id="wYJrxyhoSdgwNmsz03KT-379" value="Active" style="text;align=left;verticalAlign=middle;spacingLeft=10;spacingRight=10;overflow=hidden;points=[[0,0.5],[1,0.5]];portConstraint=eastwest;rotatable=0;whiteSpace=wrap;html=1;fontColor=inherit;fontSize=14;fontStyle=0;" vertex="1" parent="wYJrxyhoSdgwNmsz03KT-377">
          <mxGeometry y="10.87719298245614" width="100.99" height="32.631578947368425" as="geometry" />
        </mxCell>
        <mxCell id="wYJrxyhoSdgwNmsz03KT-380" value="Not Active" style="text;align=left;verticalAlign=middle;spacingLeft=10;spacingRight=10;overflow=hidden;points=[[0,0.5],[1,0.5]];portConstraint=eastwest;rotatable=0;whiteSpace=wrap;html=1;fontColor=inherit;fontSize=14;fontStyle=0;" vertex="1" parent="wYJrxyhoSdgwNmsz03KT-377">
          <mxGeometry y="43.50877192982456" width="100.99" height="32.631578947368425" as="geometry" />
        </mxCell>
        <mxCell id="wYJrxyhoSdgwNmsz03KT-381" value="" style="text;align=center;verticalAlign=middle;spacingLeft=10;spacingRight=10;overflow=hidden;points=[[0,0.5],[1,0.5]];portConstraint=eastwest;rotatable=0;whiteSpace=wrap;html=1;fontColor=inherit;" vertex="1" parent="wYJrxyhoSdgwNmsz03KT-377">
          <mxGeometry y="76.14035087719299" width="100.99" height="10.87719298245614" as="geometry" />
        </mxCell>
        <mxCell id="wYJrxyhoSdgwNmsz03KT-382" value="Status" style="fillColor=none;strokeColor=none;align=left;fontSize=14;" vertex="1" parent="wYJrxyhoSdgwNmsz03KT-300">
          <mxGeometry x="567.0051968503935" y="121.5714285714285" width="75.98425196850395" height="30" as="geometry" />
        </mxCell>
        <mxCell id="wYJrxyhoSdgwNmsz03KT-306" value="" style="html=1;shadow=0;dashed=0;shape=mxgraph.bootstrap.rrect;rSize=5;strokeColor=#DFDFDF;html=1;whiteSpace=wrap;fillColor=#FFFFFF;fontColor=#000000;" vertex="1" parent="wYJrxyhoSdgwNmsz03KT-294">
          <mxGeometry x="37.23228346456693" y="290" width="882.1771653543308" height="340" as="geometry" />
        </mxCell>
        <mxCell id="wYJrxyhoSdgwNmsz03KT-307" value="Use Job Assings Details" style="html=1;shadow=0;dashed=0;shape=mxgraph.bootstrap.topButton;strokeColor=inherit;fillColor=#F7F7F7;rSize=5;perimeter=none;whiteSpace=wrap;resizeWidth=1;align=left;spacing=20;fontSize=14;" vertex="1" parent="wYJrxyhoSdgwNmsz03KT-306">
          <mxGeometry width="881.4173228346458" height="40" relative="1" as="geometry" />
        </mxCell>
        <mxCell id="wYJrxyhoSdgwNmsz03KT-308" value="" style="html=1;shadow=0;dashed=0;shape=mxgraph.bootstrap.rrect;rSize=5;fillColor=none;strokeColor=#999999;align=left;spacing=15;fontSize=14;fontColor=#6C767D;noLabel=0;" vertex="1" parent="wYJrxyhoSdgwNmsz03KT-306">
          <mxGeometry x="643.7677952755907" y="109" width="90" height="30" as="geometry" />
        </mxCell>
        <mxCell id="wYJrxyhoSdgwNmsz03KT-309" value="" style="html=1;shadow=0;dashed=0;shape=mxgraph.bootstrap.rrect;rSize=5;fillColor=none;strokeColor=#999999;align=left;spacing=15;fontSize=14;fontColor=#6C767D;noLabel=0;" vertex="1" parent="wYJrxyhoSdgwNmsz03KT-306">
          <mxGeometry x="643.7677952755907" y="153" width="90" height="30" as="geometry" />
        </mxCell>
        <mxCell id="wYJrxyhoSdgwNmsz03KT-310" value="" style="html=1;shadow=0;dashed=0;shape=mxgraph.bootstrap.rrect;rSize=5;fillColor=none;strokeColor=#999999;align=left;spacing=15;fontSize=14;fontColor=#6C767D;noLabel=0;" vertex="1" parent="wYJrxyhoSdgwNmsz03KT-306">
          <mxGeometry x="643.7677952755907" y="197" width="90" height="30" as="geometry" />
        </mxCell>
        <mxCell id="wYJrxyhoSdgwNmsz03KT-311" value="" style="html=1;shadow=0;dashed=0;shape=mxgraph.bootstrap.rrect;rSize=5;fillColor=none;strokeColor=#999999;align=left;spacing=15;fontSize=14;fontColor=#6C767D;noLabel=0;" vertex="1" parent="wYJrxyhoSdgwNmsz03KT-306">
          <mxGeometry x="643.7677952755907" y="245" width="90" height="30" as="geometry" />
        </mxCell>
        <mxCell id="wYJrxyhoSdgwNmsz03KT-312" value="" style="html=1;shadow=0;dashed=0;shape=mxgraph.bootstrap.rrect;rSize=5;fillColor=none;strokeColor=#999999;align=left;spacing=15;fontSize=14;fontColor=#6C767D;noLabel=0;" vertex="1" parent="wYJrxyhoSdgwNmsz03KT-306">
          <mxGeometry x="89.66141732283467" y="109" width="90" height="30" as="geometry" />
        </mxCell>
        <mxCell id="wYJrxyhoSdgwNmsz03KT-313" value="" style="html=1;shadow=0;dashed=0;shape=mxgraph.bootstrap.rrect;rSize=5;fillColor=none;strokeColor=#999999;align=left;spacing=15;fontSize=14;fontColor=#6C767D;noLabel=0;" vertex="1" parent="wYJrxyhoSdgwNmsz03KT-306">
          <mxGeometry x="89.66141732283467" y="155" width="90" height="30" as="geometry" />
        </mxCell>
        <mxCell id="wYJrxyhoSdgwNmsz03KT-314" value="" style="html=1;shadow=0;dashed=0;shape=mxgraph.bootstrap.rrect;rSize=5;fillColor=none;strokeColor=#999999;align=left;spacing=15;fontSize=14;fontColor=#6C767D;noLabel=0;" vertex="1" parent="wYJrxyhoSdgwNmsz03KT-306">
          <mxGeometry x="89.66141732283467" y="199" width="90" height="30" as="geometry" />
        </mxCell>
        <mxCell id="wYJrxyhoSdgwNmsz03KT-315" value="" style="html=1;shadow=0;dashed=0;shape=mxgraph.bootstrap.rrect;rSize=5;fillColor=none;strokeColor=#999999;align=left;spacing=15;fontSize=14;fontColor=#6C767D;noLabel=0;" vertex="1" parent="wYJrxyhoSdgwNmsz03KT-306">
          <mxGeometry x="89.66141732283467" y="247" width="90" height="30" as="geometry" />
        </mxCell>
        <mxCell id="wYJrxyhoSdgwNmsz03KT-316" value="Ctaegory" style="fillColor=none;strokeColor=none;align=left;fontSize=14;" vertex="1" parent="wYJrxyhoSdgwNmsz03KT-306">
          <mxGeometry x="89.66141732283467" y="72.99999999999977" width="60.787401574803155" height="30" as="geometry" />
        </mxCell>
        <mxCell id="wYJrxyhoSdgwNmsz03KT-317" value="Job Id" style="fillColor=none;strokeColor=none;align=left;fontSize=14;" vertex="1" parent="wYJrxyhoSdgwNmsz03KT-306">
          <mxGeometry x="644.3777952755906" y="72.99999999999977" width="60.787401574803155" height="30" as="geometry" />
        </mxCell>
        <mxCell id="wYJrxyhoSdgwNmsz03KT-318" value="" style="html=1;shadow=0;dashed=0;shape=mxgraph.bootstrap.rrect;rSize=5;fillColor=#6C757D;strokeColor=none;fontColor=#FFFFFF;fontSize=14;" vertex="1" parent="wYJrxyhoSdgwNmsz03KT-306">
          <mxGeometry x="361.7667716535434" y="109" width="36.472440944881896" height="30" as="geometry" />
        </mxCell>
        <mxCell id="wYJrxyhoSdgwNmsz03KT-393" value="" style="html=1;shadow=0;dashed=0;shape=mxgraph.bootstrap.rrect;rSize=5;fillColor=none;strokeColor=#999999;align=left;spacing=15;fontSize=14;fontColor=#6C767D;noLabel=0;" vertex="1" parent="wYJrxyhoSdgwNmsz03KT-306">
          <mxGeometry x="191.77141732283462" y="107" width="160" height="30" as="geometry" />
        </mxCell>
        <mxCell id="wYJrxyhoSdgwNmsz03KT-394" value="" style="html=1;shadow=0;dashed=0;shape=mxgraph.bootstrap.rrect;rSize=5;fillColor=none;strokeColor=#999999;align=left;spacing=15;fontSize=14;fontColor=#6C767D;noLabel=0;" vertex="1" parent="wYJrxyhoSdgwNmsz03KT-306">
          <mxGeometry x="191.77141732283462" y="153" width="160" height="30" as="geometry" />
        </mxCell>
        <mxCell id="wYJrxyhoSdgwNmsz03KT-395" value="" style="html=1;shadow=0;dashed=0;shape=mxgraph.bootstrap.rrect;rSize=5;fillColor=none;strokeColor=#999999;align=left;spacing=15;fontSize=14;fontColor=#6C767D;noLabel=0;" vertex="1" parent="wYJrxyhoSdgwNmsz03KT-306">
          <mxGeometry x="191.77141732283462" y="197" width="160" height="30" as="geometry" />
        </mxCell>
        <mxCell id="wYJrxyhoSdgwNmsz03KT-396" value="" style="html=1;shadow=0;dashed=0;shape=mxgraph.bootstrap.rrect;rSize=5;fillColor=none;strokeColor=#999999;align=left;spacing=15;fontSize=14;fontColor=#6C767D;noLabel=0;" vertex="1" parent="wYJrxyhoSdgwNmsz03KT-306">
          <mxGeometry x="191.77141732283462" y="245" width="160" height="30" as="geometry" />
        </mxCell>
        <mxCell id="wYJrxyhoSdgwNmsz03KT-397" value="Sub Ctaegory" style="fillColor=none;strokeColor=none;align=left;fontSize=14;" vertex="1" parent="wYJrxyhoSdgwNmsz03KT-306">
          <mxGeometry x="191.77141732283462" y="70.99999999999977" width="160" height="30" as="geometry" />
        </mxCell>
        <mxCell id="wYJrxyhoSdgwNmsz03KT-398" value="" style="html=1;shadow=0;dashed=0;shape=mxgraph.bootstrap.rrect;rSize=5;fillColor=#6C757D;strokeColor=none;fontColor=#FFFFFF;fontSize=14;" vertex="1" parent="wYJrxyhoSdgwNmsz03KT-306">
          <mxGeometry x="361.7667716535434" y="153" width="36.472440944881896" height="30" as="geometry" />
        </mxCell>
        <mxCell id="wYJrxyhoSdgwNmsz03KT-399" value="" style="html=1;shadow=0;dashed=0;shape=mxgraph.bootstrap.rrect;rSize=5;fillColor=#6C757D;strokeColor=none;fontColor=#FFFFFF;fontSize=14;" vertex="1" parent="wYJrxyhoSdgwNmsz03KT-306">
          <mxGeometry x="361.7667716535434" y="197" width="36.472440944881896" height="30" as="geometry" />
        </mxCell>
        <mxCell id="wYJrxyhoSdgwNmsz03KT-400" value="" style="html=1;shadow=0;dashed=0;shape=mxgraph.bootstrap.rrect;rSize=5;fillColor=#6C757D;strokeColor=none;fontColor=#FFFFFF;fontSize=14;" vertex="1" parent="wYJrxyhoSdgwNmsz03KT-306">
          <mxGeometry x="361.7667716535434" y="245" width="36.472440944881896" height="30" as="geometry" />
        </mxCell>
        <mxCell id="wYJrxyhoSdgwNmsz03KT-401" value="" style="html=1;shadow=0;dashed=0;shape=mxgraph.bootstrap.rrect;rSize=5;fillColor=#dae8fc;strokeColor=#6c8ebf;align=left;spacing=15;fontSize=14;noLabel=0;" vertex="1" parent="wYJrxyhoSdgwNmsz03KT-306">
          <mxGeometry x="411.7714173228346" y="109" width="220" height="30" as="geometry" />
        </mxCell>
        <mxCell id="wYJrxyhoSdgwNmsz03KT-402" value="" style="html=1;shadow=0;dashed=0;shape=mxgraph.bootstrap.rrect;rSize=5;fillColor=#dae8fc;strokeColor=#6c8ebf;align=left;spacing=15;fontSize=14;noLabel=0;" vertex="1" parent="wYJrxyhoSdgwNmsz03KT-306">
          <mxGeometry x="411.7714173228346" y="155" width="220" height="30" as="geometry" />
        </mxCell>
        <mxCell id="wYJrxyhoSdgwNmsz03KT-403" value="" style="html=1;shadow=0;dashed=0;shape=mxgraph.bootstrap.rrect;rSize=5;fillColor=#dae8fc;strokeColor=#6c8ebf;align=left;spacing=15;fontSize=14;noLabel=0;" vertex="1" parent="wYJrxyhoSdgwNmsz03KT-306">
          <mxGeometry x="411.7714173228346" y="199" width="220" height="30" as="geometry" />
        </mxCell>
        <mxCell id="wYJrxyhoSdgwNmsz03KT-404" value="" style="html=1;shadow=0;dashed=0;shape=mxgraph.bootstrap.rrect;rSize=5;fillColor=#dae8fc;strokeColor=#6c8ebf;align=left;spacing=15;fontSize=14;noLabel=0;" vertex="1" parent="wYJrxyhoSdgwNmsz03KT-306">
          <mxGeometry x="411.7714173228346" y="247" width="220" height="30" as="geometry" />
        </mxCell>
        <mxCell id="wYJrxyhoSdgwNmsz03KT-338" value="" style="html=1;shadow=0;dashed=0;shape=mxgraph.bootstrap.rrect;rSize=5;strokeColor=none;strokeWidth=1;fillColor=#6C767D;fontColor=#ffffff;whiteSpace=wrap;align=right;verticalAlign=middle;fontStyle=0;fontSize=14;spacingRight=10;" vertex="1" parent="1">
          <mxGeometry x="1045" y="1340" width="85" height="30" as="geometry" />
        </mxCell>
        <mxCell id="wYJrxyhoSdgwNmsz03KT-339" value="" style="shape=triangle;direction=west;fillColor=#ffffff;strokeColor=none;perimeter=none;" vertex="1" parent="wYJrxyhoSdgwNmsz03KT-338">
          <mxGeometry y="0.5" width="5" height="10" relative="1" as="geometry">
            <mxPoint x="10" y="-5" as="offset" />
          </mxGeometry>
        </mxCell>
        <mxCell id="wYJrxyhoSdgwNmsz03KT-344" value="Dispatcher Setup" style="html=1;shadow=0;shape=mxgraph.bootstrap.rrect;rSize=5;html=1;whiteSpace=wrap;verticalAlign=top;align=left;fontSize=18;spacing=15;spacingTop=-5;textShadow=0;labelBackgroundColor=none;labelBorderColor=none;perimeterSpacing=1;" vertex="1" parent="1">
          <mxGeometry x="3120" y="1008" width="965" height="682" as="geometry" />
        </mxCell>
        <mxCell id="wYJrxyhoSdgwNmsz03KT-345" value="" style="shape=line;strokeColor=#dddddd;resizeWidth=1;" vertex="1" parent="wYJrxyhoSdgwNmsz03KT-344">
          <mxGeometry width="965.0000000000001" height="10" relative="1" as="geometry">
            <mxPoint y="50" as="offset" />
          </mxGeometry>
        </mxCell>
        <mxCell id="wYJrxyhoSdgwNmsz03KT-346" value="" style="html=1;shadow=0;dashed=0;shape=mxgraph.bootstrap.x;strokeColor=#868686;strokeWidth=2;" vertex="1" parent="wYJrxyhoSdgwNmsz03KT-344">
          <mxGeometry x="1" width="8" height="8" relative="1" as="geometry">
            <mxPoint x="-24" y="20" as="offset" />
          </mxGeometry>
        </mxCell>
        <mxCell id="wYJrxyhoSdgwNmsz03KT-347" value="" style="shape=line;strokeColor=#dddddd;resizeWidth=1;" vertex="1" parent="wYJrxyhoSdgwNmsz03KT-344">
          <mxGeometry width="965.0000000000001" height="10" relative="1" as="geometry">
            <mxPoint y="600" as="offset" />
          </mxGeometry>
        </mxCell>
        <mxCell id="wYJrxyhoSdgwNmsz03KT-348" value="Save changes" style="html=1;shadow=0;dashed=0;shape=mxgraph.bootstrap.rrect;rSize=5;fillColor=#0085FC;strokeColor=none;fontColor=#FFFFFF;fontSize=14;" vertex="1" parent="wYJrxyhoSdgwNmsz03KT-344">
          <mxGeometry x="1" y="1" width="110" height="40" relative="1" as="geometry">
            <mxPoint x="-185" y="-64" as="offset" />
          </mxGeometry>
        </mxCell>
        <mxCell id="wYJrxyhoSdgwNmsz03KT-349" value="Close" style="html=1;shadow=0;dashed=0;shape=mxgraph.bootstrap.rrect;rSize=5;fillColor=#6C757D;strokeColor=none;fontColor=#FFFFFF;fontSize=14;" vertex="1" parent="wYJrxyhoSdgwNmsz03KT-344">
          <mxGeometry x="1" y="1" width="70" height="40" relative="1" as="geometry">
            <mxPoint x="-263" y="-64" as="offset" />
          </mxGeometry>
        </mxCell>
        <mxCell id="wYJrxyhoSdgwNmsz03KT-358" value="" style="html=1;shadow=0;dashed=0;shape=mxgraph.bootstrap.rrect;rSize=5;strokeColor=#DFDFDF;html=1;whiteSpace=wrap;fillColor=#ffffff;fontColor=#000000;snapToPoint=0;comic=0;fillStyle=auto;" vertex="1" parent="wYJrxyhoSdgwNmsz03KT-344">
          <mxGeometry x="38.23228346456693" y="233.01666666666665" width="882.1771653543308" height="322.05555555555554" as="geometry" />
        </mxCell>
        <mxCell id="wYJrxyhoSdgwNmsz03KT-359" value="Assign Category to dispatcher" style="html=1;shadow=0;dashed=0;shape=mxgraph.bootstrap.topButton;strokeColor=inherit;fillColor=#F7F7F7;rSize=5;perimeter=none;whiteSpace=wrap;resizeWidth=1;align=left;spacing=20;fontSize=14;" vertex="1" parent="wYJrxyhoSdgwNmsz03KT-358">
          <mxGeometry width="881.4173228346458" height="40" relative="1" as="geometry" />
        </mxCell>
        <mxCell id="wYJrxyhoSdgwNmsz03KT-405" value="" style="html=1;shadow=0;dashed=0;shape=mxgraph.bootstrap.rrect;rSize=5;fillColor=none;strokeColor=#999999;align=left;spacing=15;fontSize=14;fontColor=#6C767D;noLabel=0;" vertex="1" parent="wYJrxyhoSdgwNmsz03KT-358">
          <mxGeometry x="26.651417322834277" y="103.98333333333335" width="90" height="30" as="geometry" />
        </mxCell>
        <mxCell id="wYJrxyhoSdgwNmsz03KT-406" value="" style="html=1;shadow=0;dashed=0;shape=mxgraph.bootstrap.rrect;rSize=5;fillColor=none;strokeColor=#999999;align=left;spacing=15;fontSize=14;fontColor=#6C767D;noLabel=0;" vertex="1" parent="wYJrxyhoSdgwNmsz03KT-358">
          <mxGeometry x="26.651417322834277" y="149.98333333333335" width="90" height="30" as="geometry" />
        </mxCell>
        <mxCell id="wYJrxyhoSdgwNmsz03KT-407" value="" style="html=1;shadow=0;dashed=0;shape=mxgraph.bootstrap.rrect;rSize=5;fillColor=none;strokeColor=#999999;align=left;spacing=15;fontSize=14;fontColor=#6C767D;noLabel=0;" vertex="1" parent="wYJrxyhoSdgwNmsz03KT-358">
          <mxGeometry x="26.651417322834277" y="193.98333333333335" width="90" height="30" as="geometry" />
        </mxCell>
        <mxCell id="wYJrxyhoSdgwNmsz03KT-408" value="" style="html=1;shadow=0;dashed=0;shape=mxgraph.bootstrap.rrect;rSize=5;fillColor=none;strokeColor=#999999;align=left;spacing=15;fontSize=14;fontColor=#6C767D;noLabel=0;" vertex="1" parent="wYJrxyhoSdgwNmsz03KT-358">
          <mxGeometry x="26.651417322834277" y="241.98333333333335" width="90" height="30" as="geometry" />
        </mxCell>
        <mxCell id="wYJrxyhoSdgwNmsz03KT-409" value="Ctaegory" style="fillColor=none;strokeColor=none;align=left;fontSize=14;" vertex="1" parent="wYJrxyhoSdgwNmsz03KT-358">
          <mxGeometry x="26.651417322834277" y="67.98333333333312" width="60.787401574803155" height="30" as="geometry" />
        </mxCell>
        <mxCell id="wYJrxyhoSdgwNmsz03KT-410" value="" style="html=1;shadow=0;dashed=0;shape=mxgraph.bootstrap.rrect;rSize=5;fillColor=#6C757D;strokeColor=none;fontColor=#FFFFFF;fontSize=14;" vertex="1" parent="wYJrxyhoSdgwNmsz03KT-358">
          <mxGeometry x="298.7567716535432" y="103.98333333333335" width="36.472440944881896" height="30" as="geometry" />
        </mxCell>
        <mxCell id="wYJrxyhoSdgwNmsz03KT-411" value="" style="html=1;shadow=0;dashed=0;shape=mxgraph.bootstrap.rrect;rSize=5;fillColor=none;strokeColor=#999999;align=left;spacing=15;fontSize=14;fontColor=#6C767D;noLabel=0;" vertex="1" parent="wYJrxyhoSdgwNmsz03KT-358">
          <mxGeometry x="128.7614173228344" y="101.98333333333335" width="160" height="30" as="geometry" />
        </mxCell>
        <mxCell id="wYJrxyhoSdgwNmsz03KT-412" value="" style="html=1;shadow=0;dashed=0;shape=mxgraph.bootstrap.rrect;rSize=5;fillColor=none;strokeColor=#999999;align=left;spacing=15;fontSize=14;fontColor=#6C767D;noLabel=0;" vertex="1" parent="wYJrxyhoSdgwNmsz03KT-358">
          <mxGeometry x="128.7614173228344" y="147.98333333333335" width="160" height="30" as="geometry" />
        </mxCell>
        <mxCell id="wYJrxyhoSdgwNmsz03KT-413" value="" style="html=1;shadow=0;dashed=0;shape=mxgraph.bootstrap.rrect;rSize=5;fillColor=none;strokeColor=#999999;align=left;spacing=15;fontSize=14;fontColor=#6C767D;noLabel=0;" vertex="1" parent="wYJrxyhoSdgwNmsz03KT-358">
          <mxGeometry x="128.7614173228344" y="191.98333333333335" width="160" height="30" as="geometry" />
        </mxCell>
        <mxCell id="wYJrxyhoSdgwNmsz03KT-414" value="" style="html=1;shadow=0;dashed=0;shape=mxgraph.bootstrap.rrect;rSize=5;fillColor=none;strokeColor=#999999;align=left;spacing=15;fontSize=14;fontColor=#6C767D;noLabel=0;" vertex="1" parent="wYJrxyhoSdgwNmsz03KT-358">
          <mxGeometry x="128.7614173228344" y="239.98333333333335" width="160" height="30" as="geometry" />
        </mxCell>
        <mxCell id="wYJrxyhoSdgwNmsz03KT-415" value="Sub Ctaegory" style="fillColor=none;strokeColor=none;align=left;fontSize=14;" vertex="1" parent="wYJrxyhoSdgwNmsz03KT-358">
          <mxGeometry x="128.7614173228344" y="65.98333333333312" width="160" height="30" as="geometry" />
        </mxCell>
        <mxCell id="wYJrxyhoSdgwNmsz03KT-416" value="" style="html=1;shadow=0;dashed=0;shape=mxgraph.bootstrap.rrect;rSize=5;fillColor=#6C757D;strokeColor=none;fontColor=#FFFFFF;fontSize=14;" vertex="1" parent="wYJrxyhoSdgwNmsz03KT-358">
          <mxGeometry x="298.7567716535432" y="147.98333333333335" width="36.472440944881896" height="30" as="geometry" />
        </mxCell>
        <mxCell id="wYJrxyhoSdgwNmsz03KT-417" value="" style="html=1;shadow=0;dashed=0;shape=mxgraph.bootstrap.rrect;rSize=5;fillColor=#6C757D;strokeColor=none;fontColor=#FFFFFF;fontSize=14;" vertex="1" parent="wYJrxyhoSdgwNmsz03KT-358">
          <mxGeometry x="298.7567716535432" y="191.98333333333335" width="36.472440944881896" height="30" as="geometry" />
        </mxCell>
        <mxCell id="wYJrxyhoSdgwNmsz03KT-418" value="" style="html=1;shadow=0;dashed=0;shape=mxgraph.bootstrap.rrect;rSize=5;fillColor=#6C757D;strokeColor=none;fontColor=#FFFFFF;fontSize=14;" vertex="1" parent="wYJrxyhoSdgwNmsz03KT-358">
          <mxGeometry x="298.7567716535432" y="239.98333333333335" width="36.472440944881896" height="30" as="geometry" />
        </mxCell>
        <mxCell id="wYJrxyhoSdgwNmsz03KT-419" value="" style="html=1;shadow=0;dashed=0;shape=mxgraph.bootstrap.rrect;rSize=5;fillColor=#dae8fc;strokeColor=#6c8ebf;align=left;spacing=15;fontSize=14;noLabel=0;" vertex="1" parent="wYJrxyhoSdgwNmsz03KT-358">
          <mxGeometry x="348.7614173228344" y="103.98333333333335" width="220" height="30" as="geometry" />
        </mxCell>
        <mxCell id="wYJrxyhoSdgwNmsz03KT-420" value="" style="html=1;shadow=0;dashed=0;shape=mxgraph.bootstrap.rrect;rSize=5;fillColor=#dae8fc;strokeColor=#6c8ebf;align=left;spacing=15;fontSize=14;noLabel=0;" vertex="1" parent="wYJrxyhoSdgwNmsz03KT-358">
          <mxGeometry x="348.7614173228344" y="149.98333333333335" width="220" height="30" as="geometry" />
        </mxCell>
        <mxCell id="wYJrxyhoSdgwNmsz03KT-421" value="" style="html=1;shadow=0;dashed=0;shape=mxgraph.bootstrap.rrect;rSize=5;fillColor=#dae8fc;strokeColor=#6c8ebf;align=left;spacing=15;fontSize=14;noLabel=0;" vertex="1" parent="wYJrxyhoSdgwNmsz03KT-358">
          <mxGeometry x="348.7614173228344" y="193.98333333333335" width="220" height="30" as="geometry" />
        </mxCell>
        <mxCell id="wYJrxyhoSdgwNmsz03KT-422" value="" style="html=1;shadow=0;dashed=0;shape=mxgraph.bootstrap.rrect;rSize=5;fillColor=#dae8fc;strokeColor=#6c8ebf;align=left;spacing=15;fontSize=14;noLabel=0;" vertex="1" parent="wYJrxyhoSdgwNmsz03KT-358">
          <mxGeometry x="348.7614173228344" y="241.98333333333335" width="220" height="30" as="geometry" />
        </mxCell>
        <mxCell id="wYJrxyhoSdgwNmsz03KT-371" value="" style="html=1;shadow=0;dashed=0;shape=mxgraph.bootstrap.rrect;rSize=5;fillColor=none;strokeColor=#999999;align=left;spacing=15;fontSize=14;fontColor=#6C767D;" vertex="1" parent="wYJrxyhoSdgwNmsz03KT-344">
          <mxGeometry x="230.00062992126004" y="80.37992460317457" width="106.37795275590553" height="32.476190476190474" as="geometry" />
        </mxCell>
        <mxCell id="wYJrxyhoSdgwNmsz03KT-372" value="" style="html=1;shadow=0;dashed=0;shape=mxgraph.bootstrap.rrect;rSize=5;fillColor=#6C757D;strokeColor=none;fontColor=#FFFFFF;fontSize=14;" vertex="1" parent="wYJrxyhoSdgwNmsz03KT-344">
          <mxGeometry x="340.9376377952758" y="77.6708690476189" width="37.99212598425198" height="40.597944444444444" as="geometry" />
        </mxCell>
        <mxCell id="wYJrxyhoSdgwNmsz03KT-373" value="" style="html=1;shadow=0;dashed=0;shape=mxgraph.bootstrap.rrect;rSize=5;fillColor=none;strokeColor=#999999;align=left;spacing=15;fontSize=14;fontColor=#6C767D;" vertex="1" parent="wYJrxyhoSdgwNmsz03KT-344">
          <mxGeometry x="381.9691338582679" y="83.07950793650781" width="501.49606299212604" height="32.48025" as="geometry" />
        </mxCell>
        <mxCell id="wYJrxyhoSdgwNmsz03KT-374" value="Employee Code" style="fillColor=none;strokeColor=none;align=left;fontSize=14;" vertex="1" parent="wYJrxyhoSdgwNmsz03KT-344">
          <mxGeometry x="118.45732283464577" y="80.38127777777768" width="75.98425196850395" height="28.416666666666664" as="geometry" />
        </mxCell>
        <mxCell id="wYJrxyhoSdgwNmsz03KT-383" value="" style="html=1;shadow=0;dashed=0;shape=mxgraph.bootstrap.rrect;rSize=5;fillColor=none;strokeColor=#999999;align=left;spacing=15;fontSize=14;fontColor=#6C767D;" vertex="1" parent="wYJrxyhoSdgwNmsz03KT-344">
          <mxGeometry x="230.00062992126004" y="125.03198015873022" width="106.37795275590553" height="32.476190476190474" as="geometry" />
        </mxCell>
        <mxCell id="wYJrxyhoSdgwNmsz03KT-384" value="User Id" style="fillColor=none;strokeColor=none;align=left;fontSize=14;" vertex="1" parent="wYJrxyhoSdgwNmsz03KT-344">
          <mxGeometry x="118.45732283464577" y="125.03333333333333" width="75.98425196850395" height="28.416666666666664" as="geometry" />
        </mxCell>
        <mxCell id="wYJrxyhoSdgwNmsz03KT-385" value="Active" style="html=1;shadow=0;dashed=0;shape=mxgraph.bootstrap.rrect;rSize=5;strokeColor=none;strokeWidth=1;fillColor=#6C767D;fontColor=#ffffff;whiteSpace=wrap;align=left;verticalAlign=middle;fontStyle=0;fontSize=14;spacingLeft=10;" vertex="1" parent="wYJrxyhoSdgwNmsz03KT-344">
          <mxGeometry x="680.4699999999998" y="135.66399171539973" width="140" height="41.212475633528264" as="geometry" />
        </mxCell>
        <mxCell id="wYJrxyhoSdgwNmsz03KT-386" value="" style="shape=triangle;direction=south;fillColor=#ffffff;strokeColor=none;perimeter=none;" vertex="1" parent="wYJrxyhoSdgwNmsz03KT-385">
          <mxGeometry x="1" y="0.5" width="10" height="5" relative="1" as="geometry">
            <mxPoint x="-17" y="-2.5" as="offset" />
          </mxGeometry>
        </mxCell>
        <mxCell id="wYJrxyhoSdgwNmsz03KT-387" value="" style="swimlane;container=1;shape=mxgraph.bootstrap.rrect;rSize=5;strokeColor=#999999;fillColor=#ffffff;fontStyle=0;childLayout=stackLayout;horizontal=1;startSize=0;horizontalStack=0;resizeParent=1;resizeParentMax=0;resizeLast=0;collapsible=0;marginBottom=0;whiteSpace=wrap;html=1;" vertex="1" parent="wYJrxyhoSdgwNmsz03KT-344">
          <mxGeometry x="782.4721259842522" y="134.50420238095245" width="100.99" height="82.42495126705653" as="geometry" />
        </mxCell>
        <mxCell id="wYJrxyhoSdgwNmsz03KT-388" value="" style="text;align=center;verticalAlign=middle;spacingLeft=10;spacingRight=10;overflow=hidden;points=[[0,0.5],[1,0.5]];portConstraint=eastwest;rotatable=0;whiteSpace=wrap;html=1;fontColor=inherit;" vertex="1" parent="wYJrxyhoSdgwNmsz03KT-387">
          <mxGeometry width="100.99" height="10.303118908382066" as="geometry" />
        </mxCell>
        <mxCell id="wYJrxyhoSdgwNmsz03KT-389" value="Active" style="text;align=left;verticalAlign=middle;spacingLeft=10;spacingRight=10;overflow=hidden;points=[[0,0.5],[1,0.5]];portConstraint=eastwest;rotatable=0;whiteSpace=wrap;html=1;fontColor=inherit;fontSize=14;fontStyle=0;" vertex="1" parent="wYJrxyhoSdgwNmsz03KT-387">
          <mxGeometry y="10.303118908382066" width="100.99" height="30.9093567251462" as="geometry" />
        </mxCell>
        <mxCell id="wYJrxyhoSdgwNmsz03KT-390" value="Not Active" style="text;align=left;verticalAlign=middle;spacingLeft=10;spacingRight=10;overflow=hidden;points=[[0,0.5],[1,0.5]];portConstraint=eastwest;rotatable=0;whiteSpace=wrap;html=1;fontColor=inherit;fontSize=14;fontStyle=0;" vertex="1" parent="wYJrxyhoSdgwNmsz03KT-387">
          <mxGeometry y="41.212475633528264" width="100.99" height="30.9093567251462" as="geometry" />
        </mxCell>
        <mxCell id="wYJrxyhoSdgwNmsz03KT-391" value="" style="text;align=center;verticalAlign=middle;spacingLeft=10;spacingRight=10;overflow=hidden;points=[[0,0.5],[1,0.5]];portConstraint=eastwest;rotatable=0;whiteSpace=wrap;html=1;fontColor=inherit;" vertex="1" parent="wYJrxyhoSdgwNmsz03KT-387">
          <mxGeometry y="72.12183235867447" width="100.99" height="10.303118908382066" as="geometry" />
        </mxCell>
        <mxCell id="wYJrxyhoSdgwNmsz03KT-392" value="Status" style="fillColor=none;strokeColor=none;align=left;fontSize=14;" vertex="1" parent="wYJrxyhoSdgwNmsz03KT-344">
          <mxGeometry x="580.4673228346455" y="135.66116666666667" width="75.98425196850395" height="28.416666666666664" as="geometry" />
        </mxCell>
        <mxCell id="wYJrxyhoSdgwNmsz03KT-464" value="Work Distribution" style="html=1;shadow=0;dashed=0;shape=mxgraph.bootstrap.rrect;rSize=5;html=1;whiteSpace=wrap;verticalAlign=top;align=left;fontSize=18;spacing=15;spacingTop=-5;" vertex="1" parent="1">
          <mxGeometry x="4160" y="90" width="1680" height="1443" as="geometry" />
        </mxCell>
        <mxCell id="wYJrxyhoSdgwNmsz03KT-465" value="" style="shape=line;strokeColor=#dddddd;resizeWidth=1;" vertex="1" parent="wYJrxyhoSdgwNmsz03KT-464">
          <mxGeometry width="1680.0000000000005" height="10" relative="1" as="geometry">
            <mxPoint y="50" as="offset" />
          </mxGeometry>
        </mxCell>
        <mxCell id="wYJrxyhoSdgwNmsz03KT-466" value="" style="html=1;shadow=0;dashed=0;shape=mxgraph.bootstrap.x;strokeColor=#868686;strokeWidth=2;" vertex="1" parent="wYJrxyhoSdgwNmsz03KT-464">
          <mxGeometry x="1" width="8" height="8" relative="1" as="geometry">
            <mxPoint x="-24" y="20" as="offset" />
          </mxGeometry>
        </mxCell>
        <mxCell id="wYJrxyhoSdgwNmsz03KT-511" value="" style="html=1;shadow=0;dashed=0;fillColor=#647687;strokeColor=#314354;fontSize=16;align=left;spacing=2;spacingLeft=55;fontColor=#ffffff;" vertex="1" parent="wYJrxyhoSdgwNmsz03KT-464">
          <mxGeometry x="10" y="61" width="1670" height="60" as="geometry" />
        </mxCell>
        <mxCell id="wYJrxyhoSdgwNmsz03KT-512" value="" style="html=1;shadow=0;dashed=0;shape=mxgraph.bootstrap.logo;fillColor=#54407A;strokeColor=none;sketch=0;" vertex="1" parent="wYJrxyhoSdgwNmsz03KT-511">
          <mxGeometry width="40" height="40" relative="1" as="geometry">
            <mxPoint x="10" y="10" as="offset" />
          </mxGeometry>
        </mxCell>
        <mxCell id="wYJrxyhoSdgwNmsz03KT-513" value="Trasnaction Date" style="fillColor=none;strokeColor=none;align=left;fontSize=12;fontColor=#212529;" vertex="1" parent="wYJrxyhoSdgwNmsz03KT-464">
          <mxGeometry x="320" y="185" width="120" height="38" as="geometry" />
        </mxCell>
        <mxCell id="wYJrxyhoSdgwNmsz03KT-514" value="col-form-label-sm" style="html=1;shadow=0;dashed=0;shape=mxgraph.bootstrap.rrect;rSize=5;fillColor=none;strokeColor=#999999;align=left;spacing=15;fontSize=12;fontColor=#6C767D;" vertex="1" parent="wYJrxyhoSdgwNmsz03KT-464">
          <mxGeometry x="456" y="185" width="600" height="38" as="geometry" />
        </mxCell>
        <mxCell id="wYJrxyhoSdgwNmsz03KT-515" value="User Id" style="fillColor=none;strokeColor=none;align=left;fontSize=14;fontColor=#212529;" vertex="1" parent="wYJrxyhoSdgwNmsz03KT-464">
          <mxGeometry x="320" y="233" width="120" height="38" as="geometry" />
        </mxCell>
        <mxCell id="wYJrxyhoSdgwNmsz03KT-516" value="col-form-label" style="html=1;shadow=0;dashed=0;shape=mxgraph.bootstrap.rrect;rSize=5;fillColor=none;strokeColor=#999999;align=left;spacing=15;fontSize=14;fontColor=#6C767D;" vertex="1" parent="wYJrxyhoSdgwNmsz03KT-464">
          <mxGeometry x="456" y="233" width="600" height="38" as="geometry" />
        </mxCell>
        <mxCell id="wYJrxyhoSdgwNmsz03KT-517" value="Remarks" style="fillColor=none;strokeColor=none;align=left;fontSize=16;fontColor=#212529;" vertex="1" parent="wYJrxyhoSdgwNmsz03KT-464">
          <mxGeometry x="320" y="279" width="120" height="38" as="geometry" />
        </mxCell>
        <mxCell id="wYJrxyhoSdgwNmsz03KT-518" value="col-form-label-lg" style="html=1;shadow=0;dashed=0;shape=mxgraph.bootstrap.rrect;rSize=5;fillColor=none;strokeColor=#999999;align=left;spacing=15;fontSize=16;fontColor=#6C767D;container=0;" vertex="1" parent="wYJrxyhoSdgwNmsz03KT-464">
          <mxGeometry x="456" y="278" width="600" height="38" as="geometry" />
        </mxCell>
        <mxCell id="wYJrxyhoSdgwNmsz03KT-554" value="Job Name" style="fillColor=none;strokeColor=none;align=left;fontSize=14;" vertex="1" parent="wYJrxyhoSdgwNmsz03KT-464">
          <mxGeometry x="120" y="520" width="100" height="30" as="geometry" />
        </mxCell>
        <mxCell id="wYJrxyhoSdgwNmsz03KT-555" value="" style="html=1;shadow=0;dashed=0;shape=mxgraph.bootstrap.rrect;rSize=5;fillColor=#ffffff;strokeColor=#CED4DA;align=left;spacing=15;fontSize=14;fontColor=#6C767D;" vertex="1" parent="wYJrxyhoSdgwNmsz03KT-464">
          <mxGeometry x="120" y="561" width="130" height="40" as="geometry" />
        </mxCell>
        <mxCell id="wYJrxyhoSdgwNmsz03KT-556" value="Remarks" style="fillColor=none;strokeColor=none;align=left;fontSize=14;" vertex="1" parent="wYJrxyhoSdgwNmsz03KT-464">
          <mxGeometry x="410" y="520" width="100" height="30" as="geometry" />
        </mxCell>
        <mxCell id="wYJrxyhoSdgwNmsz03KT-557" value="" style="html=1;shadow=0;dashed=0;shape=mxgraph.bootstrap.rrect;rSize=5;fillColor=#ffffff;strokeColor=#CED4DA;align=left;spacing=15;fontSize=14;fontColor=#6C767D;" vertex="1" parent="wYJrxyhoSdgwNmsz03KT-464">
          <mxGeometry x="410" y="561" width="350" height="40" as="geometry" />
        </mxCell>
        <mxCell id="wYJrxyhoSdgwNmsz03KT-561" value="Priorty" style="fillColor=none;strokeColor=none;align=left;fontSize=14;" vertex="1" parent="wYJrxyhoSdgwNmsz03KT-464">
          <mxGeometry x="260" y="520" width="100" height="30" as="geometry" />
        </mxCell>
        <mxCell id="wYJrxyhoSdgwNmsz03KT-562" value="" style="html=1;shadow=0;dashed=0;shape=mxgraph.bootstrap.rrect;rSize=5;fillColor=#ffffff;strokeColor=#CED4DA;align=left;spacing=15;fontSize=14;fontColor=#6C767D;" vertex="1" parent="wYJrxyhoSdgwNmsz03KT-464">
          <mxGeometry x="260" y="561" width="140" height="40" as="geometry" />
        </mxCell>
        <mxCell id="wYJrxyhoSdgwNmsz03KT-567" value="Followup Ref" style="fillColor=none;strokeColor=none;align=left;fontSize=14;" vertex="1" parent="wYJrxyhoSdgwNmsz03KT-464">
          <mxGeometry x="772" y="520" width="190" height="30" as="geometry" />
        </mxCell>
        <mxCell id="wYJrxyhoSdgwNmsz03KT-568" value="" style="html=1;shadow=0;dashed=0;shape=mxgraph.bootstrap.rrect;rSize=5;fillColor=#ffffff;strokeColor=#CED4DA;align=left;spacing=15;fontSize=14;fontColor=#6C767D;" vertex="1" parent="wYJrxyhoSdgwNmsz03KT-464">
          <mxGeometry x="771" y="561" width="190" height="40" as="geometry" />
        </mxCell>
        <mxCell id="wYJrxyhoSdgwNmsz03KT-571" value="" style="html=1;shadow=0;dashed=0;shape=mxgraph.bootstrap.rrect;rSize=5;fillColor=#ffffff;strokeColor=#CED4DA;align=left;spacing=15;fontSize=14;fontColor=#6C767D;" vertex="1" parent="wYJrxyhoSdgwNmsz03KT-464">
          <mxGeometry x="121" y="620" width="130" height="40" as="geometry" />
        </mxCell>
        <mxCell id="wYJrxyhoSdgwNmsz03KT-572" value="" style="html=1;shadow=0;dashed=0;shape=mxgraph.bootstrap.rrect;rSize=5;fillColor=#ffffff;strokeColor=#CED4DA;align=left;spacing=15;fontSize=14;fontColor=#6C767D;" vertex="1" parent="wYJrxyhoSdgwNmsz03KT-464">
          <mxGeometry x="411" y="620" width="350" height="40" as="geometry" />
        </mxCell>
        <mxCell id="wYJrxyhoSdgwNmsz03KT-573" value="" style="html=1;shadow=0;dashed=0;shape=mxgraph.bootstrap.rrect;rSize=5;fillColor=#ffffff;strokeColor=#CED4DA;align=left;spacing=15;fontSize=14;fontColor=#6C767D;" vertex="1" parent="wYJrxyhoSdgwNmsz03KT-464">
          <mxGeometry x="261" y="620" width="140" height="40" as="geometry" />
        </mxCell>
        <mxCell id="wYJrxyhoSdgwNmsz03KT-574" value="" style="html=1;shadow=0;dashed=0;shape=mxgraph.bootstrap.rrect;rSize=5;fillColor=#ffffff;strokeColor=#CED4DA;align=left;spacing=15;fontSize=14;fontColor=#6C767D;" vertex="1" parent="wYJrxyhoSdgwNmsz03KT-464">
          <mxGeometry x="772" y="620" width="190" height="40" as="geometry" />
        </mxCell>
        <mxCell id="wYJrxyhoSdgwNmsz03KT-575" value="" style="html=1;shadow=0;dashed=0;shape=mxgraph.bootstrap.rrect;rSize=5;fillColor=#ffffff;strokeColor=#CED4DA;align=left;spacing=15;fontSize=14;fontColor=#6C767D;" vertex="1" parent="wYJrxyhoSdgwNmsz03KT-464">
          <mxGeometry x="121" y="680" width="130" height="40" as="geometry" />
        </mxCell>
        <mxCell id="wYJrxyhoSdgwNmsz03KT-576" value="" style="html=1;shadow=0;dashed=0;shape=mxgraph.bootstrap.rrect;rSize=5;fillColor=#ffffff;strokeColor=#CED4DA;align=left;spacing=15;fontSize=14;fontColor=#6C767D;" vertex="1" parent="wYJrxyhoSdgwNmsz03KT-464">
          <mxGeometry x="411" y="680" width="350" height="40" as="geometry" />
        </mxCell>
        <mxCell id="wYJrxyhoSdgwNmsz03KT-577" value="" style="html=1;shadow=0;dashed=0;shape=mxgraph.bootstrap.rrect;rSize=5;fillColor=#ffffff;strokeColor=#CED4DA;align=left;spacing=15;fontSize=14;fontColor=#6C767D;" vertex="1" parent="wYJrxyhoSdgwNmsz03KT-464">
          <mxGeometry x="261" y="680" width="140" height="40" as="geometry" />
        </mxCell>
        <mxCell id="wYJrxyhoSdgwNmsz03KT-578" value="" style="html=1;shadow=0;dashed=0;shape=mxgraph.bootstrap.rrect;rSize=5;fillColor=#ffffff;strokeColor=#CED4DA;align=left;spacing=15;fontSize=14;fontColor=#6C767D;" vertex="1" parent="wYJrxyhoSdgwNmsz03KT-464">
          <mxGeometry x="772" y="680" width="190" height="40" as="geometry" />
        </mxCell>
        <mxCell id="wYJrxyhoSdgwNmsz03KT-579" value="" style="html=1;shadow=0;dashed=0;shape=mxgraph.bootstrap.rrect;rSize=5;fillColor=#ffffff;strokeColor=#CED4DA;align=left;spacing=15;fontSize=14;fontColor=#6C767D;" vertex="1" parent="wYJrxyhoSdgwNmsz03KT-464">
          <mxGeometry x="120" y="740" width="130" height="40" as="geometry" />
        </mxCell>
        <mxCell id="wYJrxyhoSdgwNmsz03KT-580" value="" style="html=1;shadow=0;dashed=0;shape=mxgraph.bootstrap.rrect;rSize=5;fillColor=#ffffff;strokeColor=#CED4DA;align=left;spacing=15;fontSize=14;fontColor=#6C767D;" vertex="1" parent="wYJrxyhoSdgwNmsz03KT-464">
          <mxGeometry x="410" y="740" width="350" height="40" as="geometry" />
        </mxCell>
        <mxCell id="wYJrxyhoSdgwNmsz03KT-581" value="" style="html=1;shadow=0;dashed=0;shape=mxgraph.bootstrap.rrect;rSize=5;fillColor=#ffffff;strokeColor=#CED4DA;align=left;spacing=15;fontSize=14;fontColor=#6C767D;" vertex="1" parent="wYJrxyhoSdgwNmsz03KT-464">
          <mxGeometry x="260" y="740" width="140" height="40" as="geometry" />
        </mxCell>
        <mxCell id="wYJrxyhoSdgwNmsz03KT-582" value="" style="html=1;shadow=0;dashed=0;shape=mxgraph.bootstrap.rrect;rSize=5;fillColor=#ffffff;strokeColor=#CED4DA;align=left;spacing=15;fontSize=14;fontColor=#6C767D;" vertex="1" parent="wYJrxyhoSdgwNmsz03KT-464">
          <mxGeometry x="771" y="740" width="190" height="40" as="geometry" />
        </mxCell>
        <mxCell id="wYJrxyhoSdgwNmsz03KT-583" value="" style="html=1;shadow=0;dashed=0;shape=mxgraph.bootstrap.rrect;rSize=5;fillColor=#ffffff;strokeColor=#CED4DA;align=left;spacing=15;fontSize=14;fontColor=#6C767D;" vertex="1" parent="wYJrxyhoSdgwNmsz03KT-464">
          <mxGeometry x="120" y="800" width="130" height="40" as="geometry" />
        </mxCell>
        <mxCell id="wYJrxyhoSdgwNmsz03KT-584" value="" style="html=1;shadow=0;dashed=0;shape=mxgraph.bootstrap.rrect;rSize=5;fillColor=#ffffff;strokeColor=#CED4DA;align=left;spacing=15;fontSize=14;fontColor=#6C767D;" vertex="1" parent="wYJrxyhoSdgwNmsz03KT-464">
          <mxGeometry x="410" y="800" width="350" height="40" as="geometry" />
        </mxCell>
        <mxCell id="wYJrxyhoSdgwNmsz03KT-585" value="" style="html=1;shadow=0;dashed=0;shape=mxgraph.bootstrap.rrect;rSize=5;fillColor=#ffffff;strokeColor=#CED4DA;align=left;spacing=15;fontSize=14;fontColor=#6C767D;" vertex="1" parent="wYJrxyhoSdgwNmsz03KT-464">
          <mxGeometry x="260" y="800" width="140" height="40" as="geometry" />
        </mxCell>
        <mxCell id="wYJrxyhoSdgwNmsz03KT-586" value="" style="html=1;shadow=0;dashed=0;shape=mxgraph.bootstrap.rrect;rSize=5;fillColor=#ffffff;strokeColor=#CED4DA;align=left;spacing=15;fontSize=14;fontColor=#6C767D;" vertex="1" parent="wYJrxyhoSdgwNmsz03KT-464">
          <mxGeometry x="771" y="800" width="190" height="40" as="geometry" />
        </mxCell>
        <mxCell id="wYJrxyhoSdgwNmsz03KT-587" value="" style="verticalLabelPosition=bottom;verticalAlign=top;html=1;shadow=0;dashed=0;strokeWidth=1;shape=mxgraph.android.phone2;" vertex="1" parent="1">
          <mxGeometry x="4220" y="1750" width="310" height="710" as="geometry" />
        </mxCell>
        <mxCell id="wYJrxyhoSdgwNmsz03KT-589" value="" style="shape=image;verticalLabelPosition=bottom;labelBackgroundColor=default;verticalAlign=top;aspect=fixed;imageAspect=0;image=data:image/png,iVBORw0KGgoAAAANSUhEUgAAASIAAAJOCAIAAACcAp1dAAAgAElEQVR4AeydCXwU1f3Ao1Zq1XhQteKVelCklqLWClqsIIgogtoC1lsqSosW/1LRakEtSg5ycOQghHAGCAQSwhXOkEA2mz2TTXaTTbLZ7G72yGZ3s/d9zPyZfTCZbA5C2Ek2yY/PfHR2MvOO73vffW/evHkbhcM/IAAEaCYQRXP4EDwQAAI4aAaVAAjQTgA0ox0xRAAEQDOoA0CAdgKgGe2IIQIgAJpBHQACtBMAzWhHDBEAAdAM6gAQoJ0AaEY7YogACIBmUAeAAO0EQDPaEUMEQAA0gzoABGgnAJrRjhgiAAKgGdQBIEA7AdCMdsQQARAAzaAOAAHaCYBmtCOGCIAAaAZ1AAjQTgA0ox0xRAAEQDOoA0CAdgKgGe2IIQIgAJpBHQACtBMAzWhHDBEAAdAM6gAQoJ0AaEY7YogACIBmUAeAAO0EQDPaEUMEQAA0gzoABGgnAJrRjhgiAAKgGdQBIEA7AdCMdsQQARAAzaAOAAHaCYBmtCOGCIAAaAZ1AAjQTgA0ox0xRAAEQDOoA0CAdgKgGe2IIQIgAJpFVh1otXuT2apPTzQtuYrty+Lmgw0Gu8cfWXkbwakBzSKr8MUG5/O7akbFl18fx+j3dtda1jclMoPTG1l5G8GpAc0iq/DrDI4/7ay+JrYsajWxXRfHmLRNkFnZeqypve/bqWajWO/w+LHIytsITg1oFlmFH6LZ9XGM2ftqa3QObwC7og0Ui6hyBc0iqjjwrprNyaut0zsiK5WQmiskAJpdITCaT+9Fs1abR6C192UT6Rxau9ePQaeR5tLqc/CgWZ9RDciJvWiWXdX655zqP+fUXHZ7bX/dzpo2G4w0DkiR9SUS0KwvlAbunF40W3lOcW1s2TWry25ewxybwZ2Qxe9pm7qrJqtKawXNBq7cLhMTaHYZQAP85941QyOQT28TnJCamk2unjaFxW1y+wLQaRzgwus5OtCsZzaD8Ze+aPbnnBqRDgZFBqN4+hsnaNZfcvRcB5rRw3WQQwXNBrkAQqIHzUKADI+PoFlklSNoFlnlEabUgGZhAhmmYECzMIGMrGBAs8gqD9AsssojTKkBzcIEMkzBgGZhAhlZwYBmkVUeoFlklUeYUgOahQlkmIIBzcIEMrKCAc0iqzz6rpnHj0lNLo7a1vvGb7UZnF6YRDy4xQyaDS7/0Nj7rpnW7vm/09KHM3i9b49nVxU2GPwBEC0U9UB+Bs0Gkvbl4+q7Zmqr5+3C+mtiy25PrhiXyZuwuTJkezSTd1tyxa1JFTnCNh9odnn2NJ4BmtEItx9BX6lmo+IZr+wT5dbqzinMIVtenX5mrgg060cphP0S0CzsSK8qwCvV7IaE8oVHGxvanV2XMJCaXO8cqgfNrqo8wnQxaBYmkGEKpo+aCbT2E03GP2ypuiGh/KOjEqnJ1TX+Fov7vUMNoFlXMgN/BDQbeOa9xdgXzX6XVbnkRNMT2VU/j2eAZr3RjJi/gWYRUxTBhPRFs5/HM+5Yy7o/lTM6uQI0i6zy6yE1oFkPYAbpcF80i05kvrJPFFveMn13DWg2SAV1ZdGCZlfGi+6zu9WsSks8g35tfx1aI3XC5sr1HPWKUvkjGVzQjO4SCUv4oFlYMIYtkK6aTdlZ/d9S2ct7RbcmVyDN7l7Hem5n9QOpnJ/Fwb1Z2MjTGhBoRiveKw48RLNrYstuSWLetZZ13wbOr9axkGbXxDJuXMOctF0wIYt/2dYsOpGZzFI1tjulRpfU6DK6fLASzxWXylVfAJpdNcKwBhCiWdTqsuvjGH/YUpXG0yw82ohWtrprHWvZmeaTzcZ5+eLLanZdLOO+DZzHsvi/21z5u82V6TwNzAgJa4n1KTDQrE+YBuykEM2ujS17ckvV5iptVlXr5O0C1Jo9vU3AUFparO63C+t70Uxl9Xx6ounOtaw717LuWMu6aQ3zmtiy78+3eGHi1YAV56WIQLNLJCLj/0Kd45kdnX4R5ndZ/AUF4sc2Ef1DpNlzO6ur2+yq4JzGXjSzevzHpcZktjqZrf6JoXxlX+0NCeWg2aCUM2g2KNi7j1Rmdv1Y1nJ/KgfpFLW67JrYsl+sKb9zLWvarpqntlahTmMfNcMw3OULWN1+q9uvsLi/P6+4JYkJmnWPnuajoBnNgPsWvB/DzrWY3z/ScO8G9nVxDFKzqNVld6xlfXxMUqowf3FaekWaUWM2unyx5S2gGZXJQO6DZgNJu/u49E5vKlc9Mbvy5kTmxM2Vd65lXRP8DcGo1WU/i2O8sEtYobL6A9jKcwrQrHuCEX8UNBvMInL6AlyN7bOT0kcyeA9lcL8tlW8RaH+/uZLU7Po4Bvn7ZqDZYBbV1cUNml0dv6u4WmPzbKvWvrhH+HAGd+7+2i0CbV6d/p1D9aNTLj6GRqP5oNlVMI6US0GzQSgJly/AUlm/ON08fhPvNxt5n55oyhG2xZUrn9lRHZ3EvPbSD0+jTuPLe0U8jc3m8X99VoY6jc9uFzBV1oZ254IC4rnZ+4cbanQOm8ffy9ZyaQjks5PSWp2zob23rbHdpbK63f7AIKAZplGCZuEsWLXNs5HfuuKc/L+lvW1fnJZO21VzW1LF9XGMB1I5c/Nq5+TVxqRxru88+BG1uuza2LJfp3HeKqxfcqLpqa1VaGhkzHr2mwXiD440/mYj77o4xvhN/HcPNSw50dTL9tHRxsnbBaPiGY9m8l7bX/fGgd62vx6o+6q4uVbvgPVDwlU5QLNwkcSdvkBmZetvNvJuXFP+i4TethsSysnhxGtjiXkeP4tjoJaKOsaI9tEJo+IZ18VeHIG8JnjJ9fGMa4NHro1lXB/HGBV/mQ3FeG0sMazS+3Z9HOPeDZxVjBaD0xc2OiM7INAsbOXf0O6cmSscFd9pOL6rNkPiyHWxjGe2V59qNsHMrLDUD9AsLBhxuzfw5ZnmX1JGL4aETr0k8uZE5kfHGi881w4PoJEdCmgWhvLHcLywof2xLD519KKXGjwk/nRNbFlMGmcDR+3ywVjI1VYS0OxqCeI4LjY43zhQR845HBIW9SWRP4tjPJdTU9ZiCQOjkR0EaHa15e/wBtYwVXeuvfgyWF+q7xA658Y15YuPS+Rm6DpeVT0Bza4KH47jTUbXakbL3wrqH0rnXhfLuGcD++W9ogUF4rEbubcmVUzbVTM/X/xEduWoeMbk7YL5+eLnc2puSaqYsJmYd//qvtpfrWOjMf03C8QPpnNvT2bO2C18s0A8YXPljWvK/5xT82aBeMqO6jvXsSZvF7xZIH5lLzH0/8SWqr8cqJuXX/dwBvexTXxijH5/7W82ch/J4M7Nq319f92EzfyH07lz9tXOyxc/tVXw6zTuzD3CBQXiKTsF6OXrNwvEU3NqfpnCenxz5ZsF4pdyRfduYI/L5C0oEL++v+6hdO59Gziz99a+WSD+/FQTr9V6tZhG9vWg2dWWv9Mb0Ng8Cov7bwfrf5FQPmOPsFRhkZvdfz/S+GgmL69OLzO7fwjOjk/naWRmd46wbexG3vJimczsqlBZp+ysnru/jq22Kizu+QXi32+uPCJpV1jcXxXLxqxn7axpU1jc2cGXzTZw1QqL+5zC8saBulVlLWKDU2J0vnuo4f9OSSu1dqHO8fGxxg8ON/A0tuo2+1fFze8damCrbZJ2VwJTOS9ffLzJKDe7t1Vr/5xTs0WgVVjc+2r1T2yp+u6cQmFxn5QaX9wtXHSsUWF2C7T2twrFs3JF51ssCotbaXXbPf6rxTSyrwfNwlb+i45KblzDfClXxFbb9A7fJ0WS327iH240tNm9seXKW5Mqsqu0Ood3v1g/LpP3balc5/AK2uzP59T85UCdUOcwOH1vHax/PLvytMxkcPpWlMrvXc/Oq9MbnL4coe7ZHYJNla0Gp4+jsc0vEMczVXKzW23zfHikYXmxTGxwSk2uJcebFh2T1OkdEqNzRal84ZHGmjaH2upZy1b97WB9idysd3j3iHQv7KrZLdQZnL7ChvY/bBH8FHw+dl5hmZUr+ufxJr3D19jufP9wwxsH6pqM3ayyGjZeIykg0Cxspf1JkeSWROb4TN6nJ6QrShXPbBfcs579weGGFaXyl3NFNycy5+WLV5TK3y1suHsda/pu4YpS+eenpGMzeL/fXPl/p5pXliqe3FJ1fyp70dHGlaWKGbuFo5Mr3imsX1mq+NtBokf6lwN1K0sVn51oenxz5St7RV+flX1bIv/j1qqpOTXLTjcvPyN7drtg8jbBF6ebvzzTPGOP8Oltgv87Jf2mRD43r/aJ7MpPiiQrSuVvHaz/TQbvbweJYD843BCTxpmVK1pZqlhcJBmfyXt2u2BlqeLLM81PbxP85UBdt4sZh43XSAoINAtbaR9rMq6pUK6pUKVyNek8TRJLlcBUrueo03maFLYqjqlcF9xfz1HHM5UpbOJ4KlezpkKVyOp0yYaLlxCnocvXcdRrKpRrL12SWKFKYavSeJq0YCzJwcvTeJpklirp0n4KG+2r03iatWx1Iku1gUvEGAxKRaYkoUKZwlal8zQbuJrEClUyi9hP42qS2aq8Or3JBbNAwlM9QLPwcMRx3BvAXL7AsNk8fgzWwApX5QDNwkUSwgECPRIAzXpEA38AAuEiAJqFiySEAwR6JACa9YgG/gAEwkUANMN9Aczg9HnCt0io2e0zu33kO5FOX8Dq6f9vrDu9Aa3d6/GT4fVW9BiOG10+pzf8T5NdvkC700u+F+MLYBa3f+BXVvX4A3qH1zbUHpcPJc1kJpfO4Q3v+Jfa5gkOr6t0Dm9v9bfPf2tod35d3JxXp0c1Umv3rmWrd9S0Ofs7z11scCwvbs6t1fVlprwfwwobDPFMZZXWTirR57T3eGKb3ZvJJx5LoBc97d5AvlifxFJdWPugx2to+IPbHyiRmxceaYxjKmkInsYgh4ZmGEa0OdVt9po2u8lN1B+l1Z3G0xQ2tFs9/pPNpiSWsqatTxXLj2F7RLp4plJmcgUwLFekG5fJ++SYRGX1XD1mk8uXVKG6P5WTyFL5ApjHjxU0GH6/ufKrYpnN0/3rJFq7d2u1NkfYpnN4ORrrWo7qrNzk8HaczNPYntkueHZH9Ump8bIp9AWwDL5m4ubKz081h3xxyMzuVK4mR9h2pe9E+wLYgXrDszuq3z/c0GojKLHV1tf2176WV1tvcJJJwjBcanKt56j31emtHv9pmSmVq6lps/t7fSyAYbjHj3n6tu6Iyxc41Wx6fX/d9+cUAQzvNWAyXRGxMwQ0C2C4zuGrbnNsFWgz+a0ctdXtD1Rp7fPy61aeU2hsntjyllf31R5sMPTl+97h9X9+SjpjN7H4oS+ApfE0v1rH/jhMmqmsns9OSm9JYiZUKH0BzObxr+Oox6xnf1nc3JNmYoPz70cbPymSiHSOTZWts3JFayqUekrTytPY/ri16lfr2JsrWy9bZXwBLJ2neTCNO79AHPLFUdZimZtXu+iYpFbvuGw41BM8fmw9R/1wBu+dwouaFTa0P7ml6uVcEVUzP4aVKy2v76/98kxzs8mVxFJdmMGcX2/oaekeP4a1u3xig6OsxSLqQ5I8/oBIZz/eZGSprdVt9jNys1Dn6GNfmpqdQdkfApr5A1it3nmy2XRSamKprToHcUdgcHqLmto5aqvLF6hucxQ2GOQWd+9fnIhvAMPOt1gK6g3B/ieeytPcFT7NlFbPP483RSde1Mzi8SdWqO5e15tmZrfvrNx0YVFhi9svNbmONLYLdXbqtzvS7I4UVuYVaZYfqpnO4S1qMpYqzD0J31P98/ixFLb6wXQuqVl+vWFidqhmGI632T1HJe2MFovTG6hpsx8LTlbues/rxzC1zVOqMO8X6/fV6cuVFov78jeTF8rru/PyOXm15UpLidz81Naq/5bKDc7wdPV7ynu4jg8BzYK39X6ZmfhtLpcvgIotEFwg3hsUyxfAnL5AXxxD1Dz+gPNSOIOuGYbhbn8ADZGgTIXcU4VLswCGu30BYm7HFdadPmqG43gAI+bBoBbGF5wTExKbx4/VG5w5wrYklmprtbZUYVZZPcGvzcunye4NHJG0p/M0zSZXo9EZx1Qeamx30DDYc/mkXPkZQ0AzHCd64Vq7p1hulpvdXWsJuisoU1r6McxwNZr5MazF4uG32nT2i9+p/WjNLltkvWsWwDAfhjeb3fxWm8ePdXQau7Rml42opxP6rhk1BF8AkxpdrGB3A8eJH82obLXFM5Vz82rfLqw/ITWpbZ4rms+F4cT3kcPr9wcwP4bZPf7gTTo1zsjdHxqaeQPYOYXlu3MKrsYaCH4dYxiuMLuzq7RfnJa+fbD+Tzur/3FcEnLTH/x+xbU2j7vn0XCk2UdHJQfEhrUc1f/KFD+c77StZigPNRrM7o5JtBiGt1iI18b+eUIybVfNwiONla02JH+4NMOI21GvMThzt1vNGtqdP5xXzN1fNytX9FKu6E87q78pkVk9/r5r5vQFzsrNRU1Grsa2VaDdyNdQt6zK1pNSk8lF9OX6rlkAw+Vm9+Yq7eenpG8V1r+wu+aL080Gp6+mzf7v082TtglGp1RcF1f2SAbv05NNX5fIlp6SflzU+I/jkh8ZLWwNcavcR1ECGB7cMLWV6HxG/hTnoaGZ0xvgaWyc4LuPREcRw+v0xFuMD2dw70/l3J5ccW1s2bx8sfZSq4JKy+bx59bq/nWyqcnU6b0ppy/QYnGbXESxIs0ezeQ9uaXqkQxeTBqHut23gf2rdayHM7g7qrX2YP8kgOHnFOa/5hPvF9+9jjUqnjF9t5CtsqKu2BVpFsBws9vXdYTA4Q0UNRmXFzczgotwdNXM4PSuqVDen8r5RUL5bckVo1MqfplSsfSU1OLuTTMMw20ev9jg1Dm8Dm9gv9gwZWfNU1sEz+fUjN/EH5fJI7eHM3gPpHLQT4SiTmBf7s38GDEU/NHRxl+nce9Zzx6dzLo5kfnuoYZmk2sDV/3IRu6v1hE/aHjnWtbd69kPpXPHZnAfTOc+kEr82O+da1mv7a8rV3UsOuILYCaXj2igg+phOLEMptHlc3gDTUbXRr5mt0jX0O7818mmuXm1koh/L25oaOYNYC0Wt8LsLqgn3pJ0eAPrOOr7Uzl/2Fq1olT+l/w69DZXiGZstfXlvaKnt1VRx9b8ASy/3vDuoYazcrPbH0CaPZFdteRE0/Izss5b8z+PS57cUjUqnvF/p6StdmIsu93p+6ZEdmsSc9I2wcfHGh9I5czYLeqfZlVaWwKTeA4R8iXOb7XN3lf71Naqk80mHMe7aqayepadaY5OJNKw8pw8kaWKZyqPSNrd/kAvrVmb3bOpsvWv+eKiJmO70xfPVN69jj1lR/XXZzvnulj296ONj2RwoxOZ/zrZZPP4+9iatTt9ySxVTBrn95srvzzTPC9fPGY9+91DDSqrh6myZPA13W6pXM0/jktGJ1c8ksHbL9aj70eXP1CutKwqUxCZCj5vNDi9u4S6JJaqXGlJYqke28T/z1n5OYVlyo7qJ7KrxJTnCn1sDwf4tKGhmdXjPys3H25sz6pq1do9Oof3ncKGO9ey/nWy6ZTU9MXp5tuSK2bsEZ6Rmavb7ELdxW1TZeujmfxxmfwDYgN5vEJlfWWv6K61rBS2mqO2flMiH53CemVvbV6dvlhmCtlONhv/eVxySxJzcZFEFXxkVN1mn5tXd30cY3lxc7agdXwm75nt1btFuiqtXaC1n5aZ3jxYf9Oay4802j3+pSelv93EzxZoBZQ0C3X2LQLt2I28327in5R2aHZ7csXKUrlAa6/S2jka27cl8tuSK57ZXr25SlvWYqlQWSVGonUmNZu5R3S62VSltZMZ3yrQPpFdeddadkKFslRh/tdJ6Z1rWe8eqg/JcrHMdECsf3mv6JYk5oICcbnSwm+1LS+W3ZfK6X2ksbHd+dcDdXeksBYeaTzeZPz36eYHUjmz99WelZvZamu50tLtxmixbK5qfSyr8sE0zt5aHar9UpPr78FW8b+l8gvP6Kq09j0i3eRtghd2C1N5mvcPN9yeXPHB4catAu3j2ZWPg2bh+s6we/38VluZ0sJSWx3BtTdQPXhyS9Wr+2onZPFHxTPuXs+evlv46j7RnH21aJu0TXBLEvOWJOZzO2tm7xPNySOOz8wV3pHCuj6O8eSWqll7Rb8LXhuTypm5R0heSN1BgX9ySbNypWVqTs11cYyntlZN3VVzW3LFnWvZz+2seWVf7ex9tTN2C3+dxvlZHAM9N+tlQF9t88zZV/uLhPLJ2wXU6Obsq31muyA6kTm+s2Y/Tyj/fRZ/9l7RK3tFr+bVPrml6ufx5TcklD+eXTk3j1hXJ4OvcXgvtma/TuPcs4Gg8fLeWiLjQSB/3Fr1izXMUXHlT2RXvrhH+Ggm74b48t9s5IXEPmdf7axc0a/TOKPiy2NSOS/lEjE+tol/a1JFL5oFMIyltj6zvfoXCeUTgumckEX8XNs969kziEK5WCJd45qzr/b5nJo7UiqomnGDT+RHxTN+l8V/OZjlZ7ZX35xI/Grp09sED6VzR8UzHs7gPbuDuNkDzcJlGXG/W2dwVqisluBosdrmmZUr+nl8+bWxjOviGGgR0mtWl10X/HhdHHEweJxxzeqy0OOxxMHgr0AQq9JfvDY29FpKIMTJ35TK0SPjshbLczurgxcSl4eGH0sshX/TGmY6TxPA8F40M7l8Cw7WX0sk4GJqKTESwU7dVcNrtZGdxmtiiZ+tIDOIVs9Hv2VxXRzj1iTm8uJmcggkJpVzDTo5lkgkSQMtXIfCQRkn9i/h6tgJ5gL9JC+6/NrYsuhE5j+PN6FBpq7PzVy+wIWHYOM38ckkXRtLkA+F3zWuuIsYx2fyCxsMqMaw1dantlaSQSHaRHqI3+64+GMDJI1nd1Q3tndMRglbnQtrQEOj0+gNYGdkpvUctcxMDGY4vIGTUuP26rat1dqt1dotwYGyNB7xEn5WVeuW4EH0p01V2uDL/Grq8ayqVuJVfJ56I1+zRUCE0Pu2U9hW3+5E42Bau/eopB1F+hOj5cF0zm838b46K0vjqTMrW7ODoeXXGxQWN4ZhXj9W02bPrdVd6OZ5O492BjCc12rbJdJ1G/W2am1ZixmtJ6V3+lBvOY2nTuOpM/iazVWtIVftF+vrDU5/gBgcEhsce+t0mZWtKOObKi+evEWg3VRJ5Dqdp9lU2dpLxrcItJurWjP4xMkZfDWKbm+tXqizo1zIzK6DDYZTzSbzpcfK/gAmM7uPS0376vR7RLpdwrZt1dpMPrFYQyZfE5La7j62Hpca24IzpB3eQKnC/OQWojGcny9ey+4+yyiQHTVtJQqznTI3Lax2hC2woaGZ1e0/IzOfbja12T0YjqNHKE4f8ZQZbTaP3xr8gS+Ht+Og0xewe4nZ8VaPz+7xO7x+dLLdS/wUmNVDDGSFnE8GSN0JPhO/ONZs8/ir2xxnZaYzMtNWgfbRTN7sfbVstdXi9tm9ARQa8az50kNg9JS225ns6GEuNSLqPjm6jU6ze4kEX0rzxYyQ57uJGC/WCfSwHgEhMn4JiMPrtwdzbfX47d7LZLwrIjfxQP9iHP7gY2hi0s2lSNGzaTSN0+PH3D5iwgAKxH4JO5nabne8wblpx5uM351TEKsSrWffvZ6dwdeg8UbHpYIOudblI/rJYbOBtoCGhmZ2j/+cwnxMYpSZLzOjCsOJCaxig8PlC5jd/jqDQ+/0UmvDVZJss3tXlbU8uaXq0UzeQ+ncm9cwPzzSCIvyXiVVdLnDGzgmaZ+TV3vPevZtyRUzc0XnFOYh4FAfMj80NEOTGBuNLpOr4z2ubnOHftXyw8MNdXrHGZnpvcMNubX6fswO6TZwYl0dP3ZaZvrgcMMftwoez658bX/t3lrdkHv9qafcDe7x4Bxx7+HG9lVlLavKWo5KjOgB/eCmKiyxDw3N0HwropNyuS+3C5Pcvj+v+EeRpLHdWaowf1zUmF+vd/XtPYs+AnX7sUajs1huvvBShqDNfrn2tY+hwmkEgeB7MQH0675XNBUrwvENGc36zhEtte31Y3avX2Z2gwZ9Rwdn0kRgGGpGEykIFgj0mwBo1m90cOGgEXD5Lq4IonN40VzTQUtK3yIGzfrGCc6KJAJys2tHTdvhRsPpZpPW7r3cDfvgJ30IaObxYyekxrPBHzTBMJzfaitqMjahCfY4ztZYD9YbzinMTm9AYXGfkBrz6w354otbqdystnmKZebjTUat3RvAMLs3cK7Fki1o3SPS1ekd6D1lrsZ2TNLe0O70+jGZ2VXUZGSqrOhrUmF2H28y5osNrTYPhhHzxPmttoPBB9DkcyRUjBiGq22eE1Ijv9Xm8gU4GuvxJqOSWFEBk7S7Dje2i3SONru3RG4uCKbwqKS92Uy8M2UPvn9wsP7iC+DyYIwinQPDcavHXyw3ZQu0e2v1UpPLH8AqVFYyd/liw6GG9uCsRccxSTtxvN5wXGpsaHe6/QGpyXWw3nBGZlZY3LxWW2HDRSYF9Qb08ojJ5SuWmzZXEShEekfIuwIuH/EG9M6atq0CLUt9kQZGrMLiyRcbtgi0J6UmvYOo4u1OX6ncXNhg4GhsTl+g2eTKFxuOStrr9A6p0XUkmLCCekIJBTFbm3hbTKRzHKw3kO9NEyEozCUKs97pdfkCQp39iKRdoLVXqKzHJO317U4MJ94MOisn3qDX2r0iveOrs7L/nJUdEBuo66YMvk89pGAIaGZy+WbsFj6fU3Oosd0bwL4tkf85p2aXSOfwEUNSHx+TjN/Ef31/bWO7s6De8MIuITFdeOPF7a2D9aeaTW8cqJu+W8hosVg8/i3V2j/tqL53A/EuxruH6pkqiy+ALS+W/WFL1fJimcbmzavTP59Ts+R4E1q2KbdW/+yO6kcz+UeDU+Bb7Z5vS+UTsioPNbaHLEThCxBj/S/uEa0sleud3n+faX5qa1Ucs0Xn8G6vbntqqyCFTUwwf6X/FgwAACAASURBVLOgfnwwhROy+O8dauC32ppNrgs15ndZlQX1Bqc3UFBvmLZLmMxS+4Pr5zy9rereDeyHM7ifFDVVau3/Otk0biOPzOCFFwhiy1uSWMopO6rHbeQ/msmfmF21uEgi0jt2iXQTsipfy6s7WG/4z1nZ49mV6Krxmfy3Doo5GmturW7ydsE9KPBjkjqDgxzI9fiJF/zmF4hj0jj3beC8sldU1NTu8gXqDc5/nZQ+msm/dwPxpkxChdLk9vFbbW8V1k/Iqlx6SqoI/oTauI28Z7dXp/GI11Umb7+YsCDhZqXV3e70/Vim+O0m/tuF9ejlCUGb482D9S/uER2VtGtsnsQK1dPbBGvZqtXlLc/uqF55Tu4NBA41tk/bVfPeoYZavaOh3bmBqylsMOSJ9c0mF7RmPdh9JYcNTt9D6dzr4xj/Oim9MIq48EjjPes5qVy1zePnt9qf2iq4ZnXZwxnc403GrYK2Rzfyb0goRzMAb0gof2F3zcF6/ePZlQ+mc082G8/ITM/trB4Vz7hjbcXNicSs4m9KiN8Ze/dQww3x5U9trTorN2fwNPdtYM/Nq5WaXGa379tS+S2JzAvz61aVKfQOr9Li/vvRxlHxjJ3CNvSOBpkVXwA72GB4OIP7cZFEa/e+VVj/s7iyF3bX8FttiSzlLUnM/5TITsvMz2yvvj6OceOa8p/Hl0cnMpeelJYqLB8cabw+jrG9ps3u9V+YRPZAKufrszK9w/vGgbp7NrDn5NX+dhP/lyms7CrtW8EfK7w+jpj3OCqecdc61vKzsv+UyO5ex74/lf30tqrRKRX3p3LXctTxFcpR8eUTs6u2V2s/ONJw85ry0SmssRnc32zk/a1AnCNsm72v9q61rFf31f5+c+XD6dx0noa8z5GZ3R8da4xOZN6WVHHH2opbk5gfHGmobrNn8DS3J1f8IoEZ/G/577L4++p05Urrn3YIroste2mPqFJr//6cImp12V3rWP8ra7kw4euOtazbifdcuLcmMX+XVVnYQLwtMXuf6JrYsvGb+Eck7b4AMe140nbBrUnMT08QXyVfnZXdnlwRz1TuErU9msn70w7BhSVM/n2m+c61rOXFzVq7x+zyFzUZ03mtWVWtNbrLLJ5FFtAg7gyB1gxpFrW6bMLmymK56YPDHZrtFLbFpHHuCr4pmMxW81tte2t1/ymR3bmW9WA694fzikONhspWG9KsSGpcx1HfvZ79p53Ve2t1cUzlfRuIGeiVrbZ3DzX8PJ54RXLlOUVcecu9lzSr0Tle218Xk8qJTmS+uEd4YRWqlivR7NrYsnvWs5PZqu/Py6ma/S6Ln8RSfXFa+qt17OdzagrqDe8f7kYzoc4xNadm3EZeGk8TW94yv0B8qtl0utmUzFK9lCv6xRriRZUdNW1n5aafylvGrCfW52KrrbP2iqITmZ+dkP5QpqBqdltyxVuFxGsvZ+XmylZbQb3h0U38sRt5a5jK784pPjjcuDMoOXrlnKW2/mlH9SMZ3DUVqt0i3Zy82ncP1RfUGxYUiG9MKP9HkSS3VjcvX/yrdeyvimXlSmI69c1rmH/aQYD95Jjk5sTyX6dxSc2ez6nZWt32yl7R/ansFLY6v94Qk8ZF7sWWK60eP9LsuljGH7cKdot0/z7TfHtyxTqOus7gmF8gfiCNs6BA/PS2qonZlYcaDcFutv+AWB/HVO4W6c7IzWGcfkCTikNGs2tWl92QUL6iVPGXA2LUmplcxE9a3pLI/OBwwz3r2R8dlSitHruXWCHwwXTuU1urKlRWm8cvN7uQZnli/ZdnmqOTmD+cV7S7fDyN7U87qsdv4l+400Ot2XVxxKvQHx1tHLP+Ymt2RmZ6PLvyrcL6J7dUPZTOPddikZmvoDW7NrbsZ3GMv+bX/f0o0TKQrdmzO6qLZaZ6g3PKzupJ2wQX7rve604zldU9e5/opjXEyzIfF0k2V7WqbR6XLyAxOj8/Jb0lkRlb3mL3+nUObxJLNWY9+62D9fn1hud21ty9jr2a0RJb3qk1uyWR+cIuYSJLtZajPiYxnmw2TdslvDmR+eSWqg8ON2RWtjYZnehdZW+AuBl+ckvVnLxamdll8fjLlRaexnZU0v7YJv59Gzg5Qp3J7dtU2RqTxl14tLFEbpq2qyYmjfPklqp/nZJO3y18OIP7ZHYVqdmUndUb+a0v5QofSOWsqSB+eO2WJOa0XTWTtgk+PNKgc3iRZtfEMu5Yy/rwSOM/jjfdnlyxgas2u/0Xpnffn8q5NYn5y5SKj49J0Nxxm8e/U9i2olR+qtmEbllp0iNcwQ4ZzW5LriB+jzy76sktVXevY6dy1Q3tzrcLG0anVOTV6X+7iT8zV4T6Dwyl9aF07tPbBAIt0Z1osVzUbKew7ZMiyU1rmJmVrS5fQGxwzMoV3Z/KyRcTL1PfllTxYDr33g2cx7L4tyVXzM2rrW8n1mB6IJXz/XnFggLxfamcXSJdfXBZxT52Gm9cU/5AKmdcJu+xTURXlqrZWbnJ48fm5NU+vY34/u5WM7c/kMJW/WYj7xcJ5bcnV/w5p+ZcixnHcY3N82Vx861JzCQWsfiu2e1LZqvuXs/+ZQrRho9OqXhlr+i8wryeq6a2ZjetKb9xDfOudawH0jifnmjiamzpfM1vNvJGxZePTiZ+in6/WI8WunT7A/n1+t9vrnznUL3F7UMrlnr92DFJ+/2p7MeyiC+m4DmGRzK4fztYX9TUPmN3zcTsyt9u4l9ojsZu5D29TTBpm4DU7I4U1oQs/p1rWX/YUrWtWrvkRNO9G9ifn5LO3CN8YVdNvcFJvKu2o/rWpIrRKaxxmfypOTVIM39wxOvFPcJrY4n7gu01beh+2OENFDYY1lQoy5WWITEha8ho9uSWqhl7hLclV9ySxLwjhZXKVZ9qNk3ZWf3rdM6mqtYnsqsezyZ+HN3jx3rSbJeo7Z/Hm25aw8zgtzp9gTqDY2auKCaNc7CB0Oy+Dey3C+sfTufeuKb8Z3GMuXm1F14hXV4su2Mta+kp6bwC8R1rWf93upmrsfX93uzeDez3Dzc8lM4NvhpXFqKZNxCYk1c3aZtgj0hH7TRuu3Rv5sMwtdW9s6btg8MND6Zzfh5fnsRSobdau9FsHfuxTfzfbOTdksT8/JRUYXFn8DVUzW5JYk7ZWf39ecWPjJb8eoPe4VVZPbm1usVFkofSubckEa+ToQWJPX7sUGP749lIM2KRApHO0RQcM4xJ4zyayTvSSKwdcECsfziD+3Zh/alm48w9wud2Vv9+c+XolIoH0rgv5Yomb6smNbslsWJ8Jv+FXTVJLNUxiXHKjuoH07mfnWh6bmf1+Ex+Qb2B6KPurP7tJv7UXTV3rWPdklSBNMODA4z/O6+4Lpbx8l5Rje7iQq7tTmJUaVVZy8EGgzr4Vnu4mh2awhkymr2wW7i6XIleHLw9uSKVq84WaB9M595MvGjMu434IqxIYRO1sCfNDjYYVpQq0D2SweHjt9r/uFXwRHZVsdz87iHiV5hjy1veLiSWGIhaXTY3r/ZEs3H2PhFqke5ez74+uLrOKalx4ZG+DoFcqL4pLNWr+2pvSCiPWh2qGb/V/vQ2weTtgiON7Z+eaBoVz8gWaNsc3p/KW+5ax/r6rOxgg+EfxyU/MVrKlZavz8puXFO+7LS0zeHttjUbs5796YmmfwXXPJ69V1Srd4RoNjq5Ynlxc/DHRDG3n3gssex0c1ZVa5PRdWGw4ZEM7lsH69uCaxb5AliJglhv9JV9oiajq9Xm+fKM7OMiyRaB9g9bqu5cy9pWrTW5fGg5lk+KJBdWSXgpV/jKXtFLuUQv9Insyo+ONlI1e2aHIFekq9Ta2+zegnrDHWtZN61hxqQRayXduZb1w3kFS22dsrP6uZ3VP5xXjM/kXbO6jNTM5vFvqtT+LI7xVmE9uY6y3kG8g7ezpm0dh7ghJwdIaZLk6oMdSpqdlZvfP9wwKo7oQSUwld+WEuth3J5ccfc61uiUiuvjGJ+eaGq1exhKS7edxhNSY7ZA++t0YkGlr87K3y6s/2UKa36BuN7gRJptr9ZmVrY+nMG9JpbQbL9Y/+SWqguvQhOLMa1j/Ty+/MktVXuI+6iGUfGMP+0QvHOo/v3DDduqtWiGfteRxofSuQcbDOs46nvWs6maPZDKfedQw0u5wtuSKmbuEVW22uPKlTetKZ+yo3rpSemTW6puSar4idGyp1Y3biPv8Wyio/XFaemNa8rjmUqH19+TZv8tkTNUlsnbBY9sJPpXSSxVaGsWHBz/7pw8s1KTLWgdt5H3RHbV1mrtynOKhzO4fz/aiF6OxjBcoLXP2C0cs5794ZHGT082PZjOeWEX8UDl0xNNP48vn7Fb+GWxbPJ2wd3r2avKWsqV1pdyhQsKxJ+eaLpzLWtOXm1cuZKq2at5tZLgC84Wt28DV33jGmKI9VfriBHIm9YQq1+VKS1TdlZP3y3ME+s/KZL8PNhJ3sBV4zixGldWULO3KZqZ3b6DDYbvzyt+YiirtXbQ7Oq/CHA00vjCbmFlq22/WH//Bs7oFOKLeV6++NYk5ipGy/Em4/pgVZ69T1TdZu9Js5PNRoHW/u6hhuhE5h1rWbcmMS/cyWzgqi1uP9Jst1BX2WpfUCAeFc94Za9oVVlLTBrxyCi3VndSapyyQ/BwBhfdp42KZ1wfx7ghgViN47MTTe1OYhXHbjU7KTUxlJaZe4TXxTLITuOo+PJbkipuWkMsxZHK1bQ7iUozIYsfXBCOeXMic/puYanC3Gr3vH2ofnQKMRp+3wb2r9O4+WI9hnV/bzZmPfu/JcRiXe8dbrglqeLjIsl35zuNNN60pvwXCeV3BJdweylXlCPUvV1Yf3sysQhHTBr38eyqrKpWckBf7/QlVqgeSufeGuy/3buB/U2JvNnkzqvTj9vIi05kjk6puC2ZuAlkqqxIsw8ON/zIaHkgjbO4SLK9pq1bzeRm9z+ON41OrlhcJDkmaY9ntjycwf3zzpodNW1TdlbP2CM832LJq9OjRQF71yx4b6baXtMGz83C4Bj6PvvspHRVWYvM5NY7vP8pkX10lBh2++68YnGRBP3CkNTk+veZ5m9KZHV6hzj4CPXbErnc7EYvqn1V3PzZyabqNnvwBXjLZyelr+wV/eVAXRJL1WQkplakcjWfnmgqa7FYPf69tboPDjf8xGhJ5ao/OibJFmiNLp8vQPxcw8fHJGk8TWKF6u3C+gUFYrRlVRHr/eI47scwjsb2r5PSTZWtJpdvPVf92ckmQZvd4vbvrGl751DDnlpdjc6xolTx5kHi8g+PNKbyNDIz8cM0Bqd3c1XrmwX1L+8VoTOJN+sw/Jik/eNjklf2iv6aL07jadAKeUaXL0eo+/BIwxFJO1qy4Yik/ZPgILsvgO2p1S082pjEUu0RESItL5aVKszpPM17hxtQgt88KP5vqVyoc5yWmT45Jnk5GHgKsQAEgQv98wcwscGxurzltf11s/fVflMir9TavAGsze7dItC+dVA8e1/tx8caDzYYbB5/g8G5mtGykd96tMn4+WlpjrCN0WL5b4n8gNhwQmr86GhjPFPZGuyOtljcq8uVi4skJ6RGjx+r1Tu+Piv795nm/WL9d8RNo0JidDWbXP8ra0HLY6Hlis80m/92sH49R42+znAcrzcQj6f5rTa22tp4af2I8NQ2ekIZAp3GAIa3BheNQwuh6oI3J0aXr83hbSVWFCZ+o4ioAQ6v1u4NLhMfaLV72xxetDSAP4BpHd5WOzEUjlY30Ng8Qp293uBod/rQz/u1O32t9uBi7hhudfvUNo/e4TU4iJ3gdCiCfbvTq7Z5DE6fweFTWT3KS9ulWV/EOU4fEbXR5SN+7iQYJlqA2uL2q4igiPWo24JjD0qrR2PzWNzEUtXEe1bBeVVSo6tG52gyEWPoqCPk8PpbLG6hztHY7iR/isOPYWa3X23zWD1EKxoIrnOqCSYVD4ajCabT7PKrrB5tcFnLdheRF5RmldXT5iB+l9DlCyit7po2e327k0DRue/lC2B6h7fe4BS22VttHrQKCFpTVWpyifR2hcWF1gbx+IkzjcHVS7V2r9ntc3oDbXavJbhshMbm0TuJ76ngAsYBovjsHrTMicdP0Gi1e80u4rGEnkgVseiAwUmkFn15YRhu9wRUVk97kCqyoNnsSuNp9tbqC+oNtXpH/3+jkR6puoY6BDTrmuirPxKZv46FBdes7lzbCQPpS+1lA7+YpM7EL17V+eBAfnL7A2KD83yLhddqMzgv80L9QCasp7hGqGY94YDjQIAOAqAZHVQhTCDQiQBo1gkHfAACdBAAzeigCmECgU4EQLNOOOADEKCDAGhGB1UIEwh0IgCadcIBH4AAHQRAMzqoQphAoBMB0KwTDvgABOggAJrRQRXCBAKdCIBmnXDAByBABwHQjA6qECYQ6EQANOuEAz4AAToIgGZ0UIUwgUAnAqBZJxzwAQjQQQA0o4MqhAkEOhEAzTrhgA9AgA4CoBkdVCFMINCJAGjWCQd8AAJ0EADN6KAKYQKBTgRAs0444AMQoIMAaEYHVQgTCHQiAJp1wgEfgAAdBEAzOqhCmECgEwHQrBMO+AAE6CAAmtFBFcIEAp0IgGadcMAHIEAHAdCMDqoQJhDoRAA064QDPgABOgiAZnRQhTCBQCcCoFknHPABCNBBADSjgyqECQQ6EQDNOuGAD0CADgKgGR1UIUwg0IkAaNYJB3wAAnQQAM3ooAphAoFOBECzTjjgAxCggwBdmnl8AaPNU9ls2lYs/XqH4N21rL8klL8Wx/hLQvl7ayv+s6N6W7GULzUabR6PL0BHxiBMIBA5BMKvmdXpq5Gbsk83L0rjzvyh9IWVJdNWlrzQeQseOTvzh9KP0jibTzfXyE1Wpy9yoEBKgEB4CYRTM68vIFSYU49JFiSWv7DybIhaPX88Oz+hPPWYRKgwe6FlC2/xQmiRQSBsmjnc/sMc9aJ0DmrBepYqtGVDZ878oXRROucwR+1w+yODDKQCCISNQHg08/gC2aeb5qwue+G77i3qk3XflcxZXbb5VBPcrYWteCGgyCAQBs28/kDasUbidmvFVTh28ebt7LSVZ1OPNnr9MC4SGRUEUhEOAlermcPtzz7VPI0Y5+jmZmz6dyVvxDEWJDK7bn+JZ8z4jhggCdnQeMnmU1K7CwZFwlHCEEYEELgqzbz+wBGues7q89N6aMdeXnU+p1TGqNNtPtWUUCCmbt/mVL+86lyIY+THuavLDnFU0HuMgBoCSQgDgf5rhuG4UGH+JJ3by/3YnNVllVIThmEJBXXvpLA+3MAmt7eSK178vpvWDJk2fWXJx+ncGrkZC0MeIQggMMgE+q+Z1elNPdrY+7giqdmqfaLM402VzcYSYVtxDbHtKJHN+ek82Xx13Xnxh9LUYxJ4njbIFQSiDweBfmqGYZhAZlywpryrHtQjpGY/5on2M1sOsZVzV5fN+K50xnel0/swJrkgkSmQEY1hOHIKYQCBQSPQT82CI/hSqlHd7odoVshu6b0F6xrI5lNSuEMbtNoBEYeJQD81M9q8i9K4Xa0IOdJVs1d77SiGXP7CypK/p3HarZ4wZRaCAQKDQ6CfmvGlpt7vypAwXTRTfpLB/SyL/9lmYluSxX89jtFVLeqRF38o5TUZB4cNxAoEwkSgn5ptO9tMlaGn/RDNDnGUB5iK/eWyjScaM09KjvFUX++o7unai8dXnN1W3BymzEIwQGBwCPRTs2921nSdd99VmE6albecqFQz63X/3V0z63/nZv94ftPJph/2irpeRT0ybWXJ1zuqBocNxAoEwkSgn5q9v47dl6lVpGarD9QeYqusDrfF7v5PDtGCvfh9acZxyWU1e2FFyXvr2WHKLAQDBAaHQD81ez2ujNrm9LR/SbNAAatFpDA2qs0KnfU/OQKk2cYTki1npJ9u4nU7UYsM8/U4xuCwgViBQJgI9Fez2D5qdr6y2RjAAk0aQrBycRtXov9qJ6HZjO9KV+yuOchuEcjae9fstdiyMGUWggECg0Ogn5r9Jf4yD6ZfWHl2zuqy9KIGg8WFYdjJSnW5WHe8Un2uVos0e2FlySs/nn9/PatOZe79HdA34qE1G5zKAbGGi0A/NXtvHaurG9NWng1O1Scm3b+ZXHGUq9pfLlcZHAEskFBQd4DZQmgm0n61g2jN0DZ3dZlQYQouZFA6bWVp12GVaSvPvp3CClduIRwgMCgE+qnZ1zsF1Fn5r/50bufZ5n1l8otbudxoc8nbbEabG8NxDAvUyI3yNpvK4Gg1OfjS9tMCLdpKhG0mu7tS2l4pNaLtRJX6FcrM/WkrS77aUT0oaCBSIBAuAv3UbFsx8Y4ZapFe/L40+7QkXDMPAxiWfrxxxqXJ+9NWlmyF52bhKm0IZ5AI9FMzXlP7iz9cfFtsYSpLZ3ZYnR691WW0uXVmp8Pt1VlcVqfHZHfrLU6r06Mzu8wOj9HmNjs8OjNxRG9xmu1u4k8Wl8Pt05mdRptbb3FZnB6FzrowlU06zGtqHyQ4EC0QCA+BfmrWbvV8lMZBDdqCxPKjXGWpSJt9Rrq3TJ5W1FjV3J55QlIi0h7hKjefkpQKtRtPSI7yVPvKFUd5qo0nGkuF2qxTkiNcZYmI+JNAbkw71rC3TJ59pumsULt6f+2bxNpYRGsJcxrDU84QyqAS6KdmHl9g82kpOQry91TW8h2Cz7L4n2dXLsnkf5NTs2QT78vtgi+2Vn2axftyh2BJFm/Z1qrPsyv/vbVqSfDIp1m8L7YKlm+vXrKJ/82umn9m8pdm8z/L4i3fXjX7x4730GCG/qBWD4g8PAT6qRmG4QKZ6bLvm6EWqd//fTOxPPi+WXiyCqEAgcEi0E/NcBwn3p4+1vhicF3hfovUy4Xw9vRg1QmIN+wE+q8ZhuM1ctOidE4va4H0YtFl/vRdyaJ0To3cBC9Oh73IIcCBJ9B/zXAc9/qxwxwVsQpqd6vHXUakS88Dup42LTiD5DBH7fWDZQNfJSDG8BO4Ks1wHLe7fJtPSYkhxxXdrNPYVaHLH1lB/LRF1qkmWKcx/KUNIQ4SgavVLNimBVKLgqsOh6FNOzttRcmGY43Qjg1SfYBoaSEQBs1wHPf4AlmnrnYN/enflcz56XxwDX3oK9JS2BDoYBEIj2Y4jjvc/kNs1cfpnF4WOe2lx/ji96WL0tiFLBX0FQerKkC89BEIm2ao9yhSmDccbZy/hklO1e9FLfSnaSvOzl/DXH+kQSg3Q1+RvpKGkAeRQDg1Q9mwOLzVclP2qaa/p3JmUmYAk76Rc45n/lD69zRO9ilptdxscXoHkQJEDQRoJRB+zVByPb5Au9XNa2rfeka6fIfgnRTW63GMOavLXo9jvJNCzMzaekbKbzK2W+G3p2ktXwg8IgjQpVlEZA4SAQQigwBoFhnlAKkY1gRAs2FdvJC5yCAAmkVGOUAqhjUB0GxYFy9kLjIIgGaRUQ6QimFNADQb1sULmYsMAqBZZJQDpGJYEwDNhnXxQuYigwBoFhnlAKkY1gRAs2FdvJC5yCAAmkVGOUAqhjUB0GxYFy9kLjIIgGaRUQ6QimFNADQb1sULmYsMAqBZZJQDpGJYEwDNhnXxQuYigwBoFhnlAKkY1gRAs2FdvJC5yCAAmkVGOUAqhjUB0GxYFy9kLjIIgGaRUQ6QimFNADQb1sULmYsMAqBZZJQDpGJYEwDNhnXxQuYigwBoFhnlAKkY1gRAs2FdvJC5yCAAmkVGOUAqhjUB0GxYFy9kLjIIgGaDVg719fUTJ05cvHix0+kctERAxANC4Ko0W7VqVVRUFIPBGJCkdkTi9/uTk5PHjBmzffv2jqNDbQ80G2ol1v/0gmYX2bnd7iNHjnz22WcGg6H/OLu7sqeQh5Nmer1+3bp1ycnJ3QGAY/iQ1IyOcjMYDC8F/4Vds55CHk6aMRiMqKioVatW0VE0wyBM0OxiIfYkw9WXcU8hg2ZXz3aohACagWZhqKvQmvUOcSA0c7vdx48fnz9//ujRo6OiosaNG7ds2bK6ujoMw7omTiaTLVu2bNy4cVFRUZMmTdq4cWN7e/vixYtDxlq6jr6QR+x2e0ZGxqRJk8gQeh/KQ61KVOd/EydOrK+vJ5N3RVkgr+o9ZLI1s9vtAoFg4cKFo0ePjo6Onj9/Pp/P7woH5ev555+PiooaPXr0woULBQJB19PI2Mkd6oXR0dGzZs3as2eP3+9ns9ljxox57733rFYreTLasVqt77333qRJk5qbm9ERarnExMR88MEHAoEAx/Fdu3Z1Jkd8Chk+pV47bty4uLg4nU5HjREFsmvXLqfTuXHjRlR206dPP336dCAQwHFcJpN98cUXMTExUVFR06dPLy4u7kvGqVEM7j7tmmm12vnz50dFRcXExCxYsGDZsmWTJ09GFSU3N5cKC8Ow/Px8hHLy5MlLly599dVXR48e/e6776IQqEOapFQkPnSksLDwgw8+GDdu3OLFi0mxv/vuO5/PR54ZsiOVShcsWDBt2rTRwX/Tpk2bOXPmggULpFIpOrPvWbiikEnNCgoKxo4dO2vWrKVLlz7xxBOIFTWzOI6TaaCSiY6O3r17N5VhSALQha+99lpUVBS6cO7cuTExMUgD5NLYsWOrq6tDLuTxeGPGjPniiy88Hg+O46WlpTExMaNHj3711VeXLl363HPPRUdH79q1C8fxwsLCmTNnojIdN27czOC/FStWuFwuFOa5c+fGjRtHXovOnDRpUl1dHRkp0mzjxo1Llix54oknFi9ePH369Ojgv9zc3Lq6ukmTJoUcLywsJC+P/B16NbPb7UuWLImOjl61apXdbkc4MAzjcDiTJk2KiYmhVqbq6urx48dPnDiRwWCQVUcqlc6ePRt9X1JP7kmzZ5999ocffiCbL6FQOGnSpDFjxvB4vN4Lo6c7qCvKQrdR9BQy0uyxxx6bPn06h8NBlF2v9QAAHcNJREFUWXa73bGxsVFRUUuXLnW73ShAlIaYmJijR4+ib3ccxxGZkFY3JAEYhv3444/R0dE5OTnkhU6nk8PhIH+ys7OjoqIyMzNDLkxJSYmOjj5z5gyO43q9ftasWZMmTRIKheRpGo2mtraW/NhTpxEZMnv2bPI7KxAIHD16lFQdhYA0GzNmTGxsLMo1hmGnT58eM2bMuHHjnnjiCerx3bt3R0dHz5s3z2w2kwmI8B16NTtz5kx0dPS///1vssaQOE6ePBkdHU1WJr/fv3Llyujo6K7fUki/PnYa33//fYvFQsaCYVhycnK3NYk8B+30JEPfsxASIPmxp5CRZl2z3NzcPGnSpKlTp6rVahQISkNWVhb57YOOFxUV9Z41p9O5ePHiXlREaQjpNxqNxjfeeGPWrFl6vR7HcbLVJb+8yKyRO91qhsp0/PjxIa2lz+f76quvqK0o0mzu3LltbW1kmCjxUVFRb7zxhtFoJI+bzeZ58+b1kinyzMjZoVEzv9//zTffREdHU1shMufoO5KsTGq1eurUqWTRkqfhOO5wOBYtWtRHzbp+MZ87d64vY83dynBFWaCmmbrfbchk9SUJkJeg/JLVCKWB/EieRoZAdu2of0L7Ho/niy++iIqK2r59O9maUU9zu91Lly6l1ngcx9E9W3JyMrJaLpc/++yzEydOrKmpoV5L3e9WM1SmIfdp6Crk1aFDh6gfv//++5DvEdSwh5QpAhJSH6iJicB9GjVD3zrPPvusXC7vmnOXy7VkyZIJEyaIxWIcx6urq8eOHdttjSG/1ai69tRpPHfuXEhc3daAkHNwHO9WhivKQtcw0ZFuQyYlWbRokcPhoF4b0gShNHQdZiCPdFuPyQB5PB4aT3rrrbcYDEbXe9RTp05FRUWlpKSgS1A/c/z48SKRiDySmpoaHR09evTo//3vfzKZLEQGHMe7hYxu8Mh0dt1Bd3fkOMqOHTvIZKMdZCN5GvnXrqVP/ikyd2jUrKfqRYKgwuq2nNCZV6QZVUV0eS8hkynpSbMrygI1NOp+T4H01BkL0QxdPnr0aDQ2g8YYqP+ljjdQ4yX3ZTLZwoULo6Ojo6KiJkyYsGfPHmofXqPRzJgxg7zVQb2MDz/8kLyXxnE8EAicPn36ueeeQ6q88cYbIWOh3UJGB8lxEWqa0T55g9CTTj0dp9YcMpuRvEOjZkajcfbs2V07RQgHas3IvhAqkq7dBhzHB1GzK8pCT8V8lZr1noaeIg05jmGYTCZbtWoVGsiNj48nmzV0+0qOEqH7wPz8/JAQcBz3+XwMBuP999+Pjo6OiYkpLS0lz+lWs4qKiujo6G+++cbv95NndrvTk049HQfNOjCiG4MxY8aw2eyOo5f2Qu7Nur0XR+eSvSZqS9UVdNcj6PJua8ClVHT8v1sZrigLHWF13us2ZLLT2LXLF9Kaoe8jUoPOYV/xJ5lM9tJLL3V7M5aSkoIGLXr6ZkSRYRh29OjRkAdu3UKWSCR/+MMfyHayl7T2pFNPx3sq616iGNw/0dia4Tien58fFRXVy0jjypUr0VcdcmnMmDFdb66Ki4vHjBkTcsvbFXTXI4hstzWgK3Qkw4wZM0KenPY9C13DREd6CrmPnUYcx9Gw+7fffks2QT3F1ZfjXUGhB2jz5s2rq6ubOnUqWSg9hdb1iwNBDumM2O32Dz/8MDo6+uTJkz0FhY73pFNPx7tmoffwB/2v9GpmNBrnz5/f03OzSZMmNTY2kghyc3Ojo6NnzpyJBkVwHEdP2CZPnnzXXXfRrRka3+va9l5RFsi8UHd6CrnvmqlUqmnTpkVHR2dnZ4fcVq1bt4462E2NF8dxm83GZDKpA/Farfa1116jTu9Al2RnZ48dO/ann37qSkAulwuFQupAJXpaTT6MwXFcLBZPmDAhZOQdx3H02GbSpEnkg0F0p8flcrds2UKmtiedejo+EjWbPHly17tb8nFwY2PjzJkzu84CmThxIpPJJEHjOO52uxE+NCFo6dKlkydPjo6O3rRp08cffxwdHV1RUUGe3xV01yPo5D62ZmSjERMT88477yxatEgikaAQ+p4FMnkhO6g5Cgm575rhOI7mUqCpah9++OGSJUvQdIrZs2f3ohlqdtDwyYUJbgsWLIiJiel27gh6WDdmzJiuqiCA48aNe/3115cvX47mZ4RM40ANV1RUFJqrsWLFCuS2z+dbs2YNGn2ZPHnysmXL/va3v6GRz9jYWJJSTzr1dLynsiYDjLSdMLRmXQdqQ1oeu92+e/fuWbNmIdzPP/98ampqt++b+Hy+oqIidCY5bc9ut3d9xtoVdNcjiHXfNXO73ZmZmagSvPbaay0tLWRp9T0L5CXUnW5DviLNcBxXq9U//vgjmo0VHR09ffr0njCSUbvd7ry8PHLS2bhx45YuXdrtTEj0AC0qKio7O5u8HO1otdqEhAQ0lzIqKur5559PSkoK6VrjON7a2vqPf/wDTVj74Ycf0CwT1CVhsVgfffQRGn1Bc+6OHz9ObZZ70qmn4z2VdUjKI+fjVWk2MNkIeVw7MJGOtFiQZuTA70jLPt35HQKaoVkIvfeO6MY07MMXiUTjx4+n3m4N+ywPZAYjXTMMw7KysqKiopIvzf0ZSDojJC706IycKzxCcj2Q2YwgzQ4dOpSXl0cdFnO73Tk5OTExMSFjkgMJaCTEVVNTM3HixJBZ1yMh4wOWxwjSDN3vkrOKZsyYgW6au45JDhid4R2R0WhcuHAhetEuZORweGd84HMXQZrZ7fYL7/ChQecLvUQ0rL9p06ZuxyQHntTwixFN44qOjn7//fepDzCHX04HPUcRpNmgs4AEAAGaCIBmNIGFYIFABwHQrIMF7AEBmgiAZjSBhWCBQAcB0KyDBewBAZoIgGY0gYVggUAHAdCsgwXsAQGaCIBmNIGFYIFABwHQrIMF7AEBmgiAZjSBhWCBQAcB0KyDBewBAZoIgGY0gYVggUAHAdCsgwXsAQGaCIBmNIGFYIFABwHQrIMF7AEBmgiAZjSBhWCBQAcB0KyDBewBAZoIgGY0gYVggUAHAdCsgwXsAQGaCIBmNIGFYIFABwHQrIMF7AEBmgiAZjSBhWCBQAcB0KyDBewBAZoIgGY0gYVggUAHAdCsgwXsAQGaCIBmNIGFYIFABwHQrIMF7AEBmgiAZjSBhWCBQAcB0KyDBewBAZoIgGY0gYVggUAHAdCsgwXsAQGaCIBmNIGFYIFABwHQrIMF7AEBmgj0X7OExOSExOSQZHV7MOScfnzM25//+bLlTqcLx3FJk3TK1OkPjh1Pbm/Me9NoNPYjWLgECAwMgSGp2et/XSBpkpKA8vbnPzh2fN7+fPII7ACBiCIwHDTDcZzF5kyZOp3qXkRRhsSMcAI0akbt3ZFdPhzHExKTUX+PKgaLzXlj3pvHik48OHY89WRUPCGdxpDWDMdxp9P1+bLl0KCN8NocsdmnSzOj0fjGvDdZbA5yYNuOHHRnRb15ozZBLDbnwbHju97s9VEzZG9Pl0csfUjYCCFAl2aSJmnXNkfSJF24aDE5XEFtgqjKdUV/2dYMx/G8/fmgWVd0cCQSCNClGdk5pFZ91GSRI4RoB/X0UKeRNDAETV80o7aTIZfDRyAwuARo1Iy8ZSJ7gyw2p+t9F8r/VWqGGkbURx1coBA7EOhKoP+a5e3PD3lgRb0fo8ZEKtRtTxKdSZ5DvZDcv2xrRj2BvAp2gECEEOi/Zkgqap8wITGZbKwkTdJjRSdQJkmFUJtDnoPj+Padu1BHkTynWy5Ui0JcRWGGCN9tIHAQCAwWgf5rRu0TorssqnLU0XyqA8gK8vaMHIK/Is1CZoGQgQwWRIgXCPRO4Ko06z1o+CsQAAKIAGgGNQEI0E4ANKMdMUQABEAzqANAgHYCoBntiCECIACaQR0AArQTAM1oRwwRAAHQDOoAEKCdAGhGO2KIAAiAZlAHgADtBEAz2hFDBEAANIM6AARoJwCa0Y4YIgACoBnUASBAO4H+a+Z0eVo0+jqJsraxBTYgMLwJ1EmULRq90+Xpn5H91Mzp8tRJlEazLRAI9C9iuAoIDCECgUDAaLbVSZT9M62fmrVo9EazbQhhgqQCgasnYDTbWjT6foTTT83qJEpox/qBGy4Z0gQCgUCdRNmPLPRTs9rGln5EBpcAgaFOoH81HzQb6uUO6R9QAqDZgOKGyEYmAdBsZJY75HpACYBmA4obIhuZBECzkVnukOsBJQCaDShuiGxkEgDNRma5Q64HlABoNqC4IbKRSQA0G5nlDrkeUAKg2YDihshGJgHQbGSWO+R6QAmAZgOKGyIbmQRAs5FZ7pDrASUAmg0obhzHzRbr5pz9IrEkJGKRWFJYVBxyED4ODwJDWDOX27M7/+j6rBy07c4/6nL3+DZ4YVHxOSY3kssMNIvk0rnKtA1tzfIOnVAoNX1BAJr1hRKcQxOB4abZOSa3sKi4sKh4fVZOxtZchVJDbfQ25+w3W6w4jqMT1mflkE1cYVHxsdPnNufsD2kVC4uKyQ4e2eCgjh8ZBdkVDDmyfW/h6VImNRZ05va9hejbgQxnc87+Cp4AOo001fJBD3YYarY+KweJcY7JJZ2htmZIRRzHkYHo5MKiYlJCaql01Yx6FTqTekSh1GzfW2i2WJFCXc0xW6xIM+pVPZ1MTQnsD10CQ1sz6r0ZapdIhXAcJ2s8ar7QCWQtR2V2jslFx6keUouzq2bU0NCZIrGE9Nnl9qCubEhEZJjkcepVOI6TTSV5JuwMGwJDW7Ou92ZUzcwW6+78o2QvkdRsc85+cuBkfVYOanCuSDPUEJG9QZFYQg0QNaekTiF1hTwe4lXIx5Cr4OOQJjASNSPdo5bcFWmGLiR7fd0aQupEjYV6bxbSmlG/IEIugY9DncCI0wx1+breMvWkGVn7u719QlehP5EjJahOXFYz6lXdBj7U6xaknyQwtDWj3puhAQzSCtRukA2XQqnJ2JqLziG7fNSBwZ40QwKsz8ohBwOpl5O6ovCpT/Auqxm6e8zYmksNnCwY2BlOBIawZsOpGCAvw5sAaDa8yxdyFxEEQLOIKAZIxPAmAJoN7/KF3EUEAdAsIooBEjG8CYBmw7t8IXcRQQA0i4higEQMbwKg2fAuX8hdRBAAzSKiGCARw5sAaDa8yxdyFxEEQLOIKAZIxPAmAJoN7/KF3EUEAdAsIooBEjG8CQyoZnUSZSAQGN5AIXdAIIRAIBCokyhDDvblYz9/4r1FozeabX2JAM4BAsOGgNFsa9Ho+5GdfmrmdHnqJEqj2QZtWj+gwyVDjkAgEDCabXUSpdPV4wqivWSqn5rhOO50eVo0+jqJsraxBTYgMLwJ1EmULRp9/xzDcbz/mvXiLvwJCAABKgHQjEoD9oEALQRAM1qwQqBAgEoANKPSgH0gQAsB0IwWrBAoEKASAM2oNGAfCNBCADSjBSsECgSoBEAzKg3YBwK0EADNaMEKgQIBKgHQjEoD9oEALQRAM1qwQqBAgEoANKPSgH0gQAsB0IwWrBAoEKASAM2oNGAfCNBCADSjBSsECgSoBEAzKg3YBwK0EADNaMEKgQIBKgHQjEoD9oEALQRAM1qwQqBAgEoANKPSgH0gQAsB0IwWrBAoEKASAM2oNGAfCNBCADSjBSsECgSoBEAzKg3YBwK0EADNaMEKgQIBKgHQjEoD9oEALQRGomYsNueNeW8ajUZaiEKgQKALgf5rlrc//8Gx48nt82XLnU5Xl/Aj8QBoFomlMqzTdFWakWo5na7Ply0nP0Y4MdAswgto+CUvPJrhOC5pkr7+1wWSJmnkMwLNIr+MhlkKw6aZ0Wh8Y96bLDYHx3FqfzJvfz6JLCExmexkojNRM4gOTpk6XdIkDXEgb38+9T4qITGZDJAaS0JiMjWWhMRkFBd5Mhn1G/PePFZ0ghomeSHsAAGaCIRNM7I1MxqN23fuQsmVNEmnTJ1Oukf2KllsDjqIfEAnHys6IWmSUnUlJUQnU/+UkJhMqhLSZUVGoUtQyAmJyWTUKEnktTRhhWCBAJVAeDRDAlCbFBQHEgA1KVSjuv6VmiayyZI0SRcuWvz5suUoBPTRaDSSSpNXUY9Qpeq2NxvSYJKBwA4QoInAVWlG9gAfHDue7J7hOI6sI/9KSjJl6nTUMyQzw2JzHhw7PqRtydufjxofFpuTkJjMYnPQx7z9+chk8ggZDvK5awuJ43jXk0EzkhvsDAyBq9KM7IlR04pumVCNp7Zm6BzkVYhs6BJSNrJpQo4ZjcaFixbXCIWfL1uOgu1qDmhGLQLYjzQCYdYsxKuQjyjz3R6k3nehE44Vnfh82XL0EDkhMZn6kfSQpEk9EtI7ZbE5Xa0mlSZDgB0gQB+BMGuG4zi1lqNmCnUat+/chZwhNXM6Xdt25KCH2lTNyLFK8mYPhUNtPLsOgZAnUxNA/BR952d6MARCX2WCkHsiEH7NqDdm23bkkAMY5JA6eSOHBCBv4ahjg9QhSjSMMWXqdOrtH/KZvJb6pxDNSNPQyZ8vW15Seg5as54qBByng0D/NaMjNRAmEBiWBECzYVmskKnIIgCaRVZ5QGqGJQHQbFgWK2QqsgiAZpFVHpCaYUkANBuWxQqZiiwCoFlklQekZlgSAM2GZbFCpiKLAGgWWeUBqRmWBECzYVmskKnIIgCaRVZ5QGqGJQHQbFgWK2QqsgiAZpFVHpCaYUkANBuWxQqZiiwC/dfM6fK0aPR1EmVtYwtsQGB4E6iTKFs0eqfL0z99+6mZ0+WpkyiNZlsgEOhfxHAVEBhCBAKBgNFsq5Mo+2daPzVr0eiNZtsQwgRJBQJXT8BotrVo9P0Ip5+a1UmU0I71AzdcMqQJBAKBOomyH1nop2a1jS39iAwuAQJDnUD/aj5oNtTLHdI/oARAswHFDZGNTAKg2cgsd8j1gBIAzQYUN0Q2MgmAZiOz3CHXA0oANBtQ3BDZyCQAmo3McodcDygB0GxAcUNkI5MAaDYyyx1yPaAEQLMBxQ2RjUwCoNnILHfI9YASAM0GFDdENjIJgGYjs9wh1wNKADQbUNwQ2cgkAJqNzHKHXA8oAdBsQHFDZCOTAGg2Mssdcj2gBECzAcUNkY1MAqDZyCx3yPWAEgDNBhQ3RDYyCYBmI7PcIdcDSgA0G1DcENnIJACajcxyh1wPKAHQbEBxQ2QjkwBoNjLLHXI9oARAswHFDZGNTAKg2cgsd8j1gBIAzQYUN0Q2MgmAZiOz3CHXA0oANBtQ3BDZyCQAmo3McodcDygB0GxAcUNkI5MAaPb/7Z3dShxJFIDntl/LF+gnyMvMG8iuuRgnEhiMISKYILKwI6wX8cbeiwV/YOcqjgiLrBgDMXMx1JItOBStjsczM9U/9QUveuxTdep8pz+quzVJmn2n6qgE0CwqbpKlSQDN0uw7VUclgGZRcZMsTQJRNTsbjafTaZqgqTpZAtPp9Gw0NpRv/C/eL66ub26/GfIxBALNJXBz++3i6tqwfqNm3+8nZ6Pxze039jQDdIY0jsB0Or25/XY2Gn+/nxgWb9TMOff9fnJxdX02Gp/+fcEXBNpN4Gw0vri6tjnmnLNrZnCaIRBIkwCapdl3qo5KAM2i4iZZmgTQLM2+U3VUAmgWFTfJ0iSAZmn2naqjEkCzqLhJliYBNEuz71QdlQCaRcVNsjQJoFmafafqqATQLCpukqVJAM3S7DtVRyWAZlFxkyxNAmiWZt+pOioBNIuKm2RpEkCzNPtO1VEJoFlU3CRLkwCapdl3qo5KAM2i4iZZmgTQLM2+U3VUAmgWFTfJ0iSAZmn2naqjEkCzqLhJliYBNEuz71QdlYBds6Io8jzPsqzDHwi0nUCWZXmeF0Vhs9OoWVEUCNb2S4v6ygSyLLOZZtQsz/PyEvgMgQQI5Hlu2NCMmrGVJXBFUeIjBLIsi6fZI/n5FgTSIIBmafSZKislgGaV4id5GgTQLI0+U2WlBNCsUvwkT4MAmqXRZ6qslACaVYqf5GkQQLM0+kyVlRJAs0rxkzwNAmiWRp+pslICaFYpfpKnQQDN0ugzVVZKAM0qxU/yNAigWRp9pspKCaBZpfirTr6ysnJ5eemcGw6HVa+lzfnRrBnd7ff7vlX9fn+BK+52u5PJxDl3eXm5srKywJmZKiSAZiGN+h4vSTN2szgtR7M4nOfNsiTN5l0W43UE0EzHqeqo2ZrJWd/O0oPWq1ev7u7u/KnPnz/7hzF/lyinTk9PO52OzNPv909PT/0Q7ifnbz6azc8wxgyhAKV8w+HwYRe9Np1OR56+SjGzNSsFl7wtLYCPzxIo8dR8NP6TO88uhYAZBJ7STCwSr/wuNJlMut1up9MpfZR5ZmvmZ5PJ2dBmtEZzSuNVKQbNNGAXHCN6lN40+q1MpAq3r+FwWLon7HQ68s5jtmY+Syl4wSWlNF1JIc1HNKvgAtFrJmqhWQV9eiKlxqtSDJo9wXKZ39ZrJnd6aLbMhrxs7pJCmo9o9jLEC4l+SjOR6tFnM7nrk7tKmYebxoX0RTmJxqtSDJop2S4yTPQIm+FVkTfv4Sl5N/joQPm1D7nD9JZKMM9mi2xex6KMZYxzbrHrTm02ESB0SV4Als6WXpOEZ7e2tpQ/N3v4viQ15gusN+ya8hjNFsg/9lSl7St2+lTzKdUKw9CsSRdLt9v99OmTX7E8qjnnSjtek0pq4FpDf5THaNakPss7krC78r6kSZU0ea0hfOUxmjWp4SXN5JVjk2po/lqVaoVhaNb8tlNBXAKhP8pjNIvbIrI1n4BSrTAMzZrfdiqISyD0R3mMZnFbRLbmE1CqFYahWfPbTgVxCYT+KI/RLG6LyNZ8Akq1wjA0a37bqSAugdAf5TGaxW0R2ZpPQKlWGGbULMuy5uOiAgi8mECWZaE/ymOjZnmev3iBDIBA8wnkea5UKwwzalYUBRta868ZKngZgSzLiqII/VEeGzVzzhVFkec5sr2sUUQ3k0CWZXme2xz7+fczlToSBgEImAmgmRkdAyGgJYBmWlLEQcBMAM3M6BgIAS0BNNOSIg4CZgJoZkbHQAhoCaCZlhRxEDATQDMzOgZCQEsAzbSkiIOAmQCamdExEAJaAmimJUUcBMwE0MyMjoEQ0BJAMy0p4iBgJoBmZnQMhICWAJppSREHATMBNDOjYyAEtATQTEuKOAiYCaCZGR0DIaAlgGZaUsRBwEwAzczoGAgBLQE005IiDgJmAmhmRsdACGgJoJmWFHEQMBNAMzM6BkJASwDNtKSIg4CZAJqZ0TEQAloCaKYlRRwEzATQzIyOgRDQEkAzLSniIGAmgGZmdAyEgJYAmmlJEQcBMwE0M6NjIAS0BOJpdnI+2tzZu/8xcc7d/5hs7uydnI+cc+H3tasmDgKNImDX7Pbr3fpg++R8tLt/cHh0/GzVoU5o9iwuAtpEwK7ZDAqHR8eycUlYBM0e5t3dP9jdPwhTy3o4gEA0AgvQTHkRh2HsZtEaTKI6EJhLM3/fuNob+L3Ly7PaG8hXeDO5PM1m560DZdaQOAG7Zifno9Xe4OR8JP74y13U+jK+evt+9/brnUcsYeZXIOEe6JyT+fV5E2825VdFwKhZeMWH/nwZX/UG21/GV/4V4u7+gRQWhj01XIL9QThbSc5QM3+syVuan48QiENgwZp5u1Z7g9//OJLr3ldi0Ky0TYVyljRT5o3DlCwQKBEwauav8tcbW/4xbH2wLTeHXgZ5YJN8h0fHEnb79e7t+13Z9B6+lpRR/lWh/+gfBeWm9OR89Hpjy08ie92jecNNVWbmAALRCNg1kyV6r9Y23pXefOzuH6z2Bmtv3v365uep9cH25s7eL/1NHyaXfrjLyZxycHh0vNobyKgPH39be/Nu7X+9X29sffj4m5xa7Q28gaW8oYoyLQcQiElgAZotdbmHR8ci5FITMTkElkeg7prJr5j4u0f/A+h/rv9dH2z/+dfZ5s6e3EMujxEzQ2BOArXWTF7Zz1kkwyFQLYE6aiY/9ZZXJtUyIjsE5iRQR83mLInhEKgbATSrW0dYTwsJoFkLm0pJdSOAZnXrCOtpIQE0a2FTKaluBNCsbh1hPS0kgGYtbCol1Y0AmtWtI6ynhQTQrIVNpaS6EUCzunWE9bSQAJq1sKmUVDcCaFa3jrCeFhJAsxY2lZLqRgDN6tYR1tNCAmjWwqZSUt0IoFndOsJ6WkjgP2l7CXtB3OMwAAAAAElFTkSuQmCC;textOpacity=10;" vertex="1" parent="1">
          <mxGeometry x="4237" y="1815.28" width="282" height="573.72" as="geometry" />
        </mxCell>
        <mxCell id="wYJrxyhoSdgwNmsz03KT-590" value="Log in Screen&amp;nbsp;&lt;br style=&quot;font-size: 20px;&quot;&gt;Ø´Ø§Ø´Ø© ØªØ³Ø¬ÙÙ Ø§ÙØ¯Ø®ÙÙ" style="shape=note;whiteSpace=wrap;html=1;backgroundOutline=1;fontColor=#000000;darkOpacity=0.05;fillColor=#FFF9B2;strokeColor=none;fillStyle=solid;direction=west;gradientDirection=north;gradientColor=#FFF2A1;shadow=1;size=20;pointerEvents=1;fontSize=20;fontStyle=1" vertex="1" parent="1">
          <mxGeometry x="4580" y="1770" width="210" height="180" as="geometry" />
        </mxCell>
      </root>
    </mxGraphModel>
  </diagram>
</mxfile>
